/* XPM */
static char *_[] = {
/* columns rows colors chars-per-pixel */
"32 32 8 1 ",
"  c #000C14",
". c #000D15",
"X c #010E16",
"o c #020F17",
"O c #031018",
"+ c #041119",
"@ c #05121A",
"# c #06131B",
/* pixels */
"++++++++++++++++oooooooo++++++++",
"++++++++OOOOOOOOoooooooo++++++++",
"++++++++OOOOOOOOoooooooo++++++++",
"++++++++oooooooooooooooo++++++++",
"++++++++XXXXXXXXoooooooo++++++++",
"++++++++........oooooooo++++++++",
"++++++++........oooooooo++++++++",
"++++++++        oooooooo++++++++",
"oooooooooooooooooooooooooooooooo",
"oooooooooooooooooooooooooooooooo",
"oooooooooooooooooooooooooooooooo",
"oooooooooooooooooooooooooooooooo",
"oooooooooooooooooooooooooooooooo",
"oooooooooooooooooooooooooooooooo",
"oooooooooooooooooooooooooooooooo",
"oooooooooooooooooooooooooooooooo",
"@+o...XXoooooooo........oooooooo",
"@+o...XXoooooooo........oooooooo",
"@+o...XXoooooooo........oooooooo",
"@+o...XXoooooooo........oooooooo",
"@+o...XXoooooooo........oooooooo",
"@+o...XXoooooooo........oooooooo",
"@+o...XXoooooooo........oooooooo",
"@+o...XXoooooooo........oooooooo",
"XXXXXXXX        oooooooo        ",
"oooooooo........oooooooo........",
"oooooooo........oooooooo........",
"OOOOOOOOXXXXXXXXooooooooXXXXXXXX",
"++++++++oooooooooooooooooooooooo",
"@@@@@@@@OOOOOOOOooooooooOOOOOOOO",
"@@@@@@@@OOOOOOOOooooooooOOOOOOOO",
"########++++++++oooooooo++++++++"
};
