/* XPM */
static char *_[] = {
/* columns rows colors chars-per-pixel */
"32 32 32 1 ",
"  c #020C15",
". c #020C16",
"X c #030D16",
"o c #030D17",
"O c #010E17",
"+ c #040E17",
"@ c #000C18",
"# c #030D19",
"$ c #020F18",
"% c #030F1B",
"& c #050D18",
"* c #040E18",
"= c #050F18",
"- c #050F19",
"; c #060E19",
": c #040E1A",
"> c #050F1B",
", c #031019",
"< c #03111A",
"1 c #061019",
"2 c #04111A",
"3 c #06101A",
"4 c #07111A",
"5 c #07111B",
"6 c #05121B",
"7 c #04101C",
"8 c #05111D",
"9 c #06101C",
"0 c #07111D",
"q c #06121E",
"w c #08121B",
"e c #08121C",
/* pixels */
"8%>>-->>77779>:>--77779>----2$33",
"%%>:**:>%%%%>>::*o%%%79:-***,,--",
"-*******-*--******-*3****o***->>",
"******-***********************::",
"**XX++XXo***+XX+XXoo++**XX*oX o*",
"3..+==XXoo3-XXX1+XXo+4o*XX3oXX.-",
":oooXX.oo*:*XXoooXX+++** Xoooo++",
"::ooXXoo**#:*Xoo*oX+++ooXXooo*++",
"-*ooXXo**o>>**ooo.**$,-*+Xoo@$=+",
"33-33+**-3>03-e-***-2233-5**:$-=",
"q8033-338%787733,$>9%q87733-3-,2",
"7%>>----7787%7--,,>9777%%:;;--77",
"--*****3--*--*****------o*;&o->>",
"-****-****--****-***o3**o*&&*-::",
"++**XX+X++*o+++X+=o*++**++o*X+**",
"1+o.+=XXX+-*XXX1+Xoo+1*oXX-oX o*",
"1Xoo++ooX+11ooX=oo*o+wooXX-ooo++",
"++ooX oo++++oo Xooo*++*oXXoooo+X",
"=+oo.ooo++**+ ooooo*+=**ooooX+**",
"---*o.**++--**3-o*-*---**-o**+*-",
"7799e*-*,,%8%253+o*9%22226>o*-7%",
"870:----277877--1=>9786<2,>>--77",
"3---***->99>---*X+>997,,,$**--09",
"--***o*-9>>>****+*->>>,$O$-**->>",
"-*****=**>::*****-***-**********",
"*o*.ooXXo**oooooooo*****ooooo.**",
"3oXX==.oX+1=XXX1*ooo=1*o*o3*o.++",
"-oXXXX*oX+=+X XXoooo+1*ooooooo=+",
"**oooooo++**XX+oo.X++X*oXX*.oo++",
"-**.oooo*o*-*Xoooo=+X=**o+ooo**+",
"22*-1+o*$%%2-*3-***-$2%,$2***-,2",
"225311--%%%83-53---3,28726----7%"
};
