/* XPM */
static char *_[] = {
/* columns rows colors chars-per-pixel */
"32 32 72 1 ",
"  c #614D3D",
". c #60503F",
"X c #5D4E42",
"o c #5E5146",
"O c #5F5349",
"+ c #604F42",
"@ c #625345",
"# c #685646",
"$ c #62554A",
"% c #64584D",
"& c #695C4C",
"* c #645C52",
"= c #6C5E50",
"- c #6B604F",
"; c #676056",
": c #6A6157",
"> c #676159",
", c #6B655C",
"< c #6F685E",
"1 c #716454",
"2 c #766856",
"3 c #736758",
"4 c #72695D",
"5 c #796C5D",
"6 c #6B6761",
"7 c #726B61",
"8 c #796F60",
"9 c #767062",
"0 c #7B7364",
"q c #7E7867",
"w c #7C7669",
"e c #7E796C",
"r c #7F7C71",
"t c #817359",
"y c #86795E",
"u c #807565",
"i c #847C65",
"p c #827C6D",
"a c #817E72",
"s c #86816D",
"d c #8B836D",
"f c #8F886E",
"g c #858175",
"h c #8B8472",
"j c #868378",
"k c #89867A",
"l c #8C897D",
"z c #938D75",
"x c #958F79",
"c c #989376",
"v c #A09B7F",
"b c #8D8C80",
"n c #9B9680",
"m c #A19D80",
"M c #A5A185",
"N c #ADAD8D",
"B c #B7BC98",
"V c #BABE9A",
"C c #BCC2A0",
"Z c #C0C49E",
"A c #C2C7A3",
"S c #C4C9A4",
"D c #C8CEA7",
"F c #C2CBA9",
"G c #CBD3AA",
"H c #CED8AE",
"J c #D4DEB4",
"K c #D6E1B5",
"L c #D9E4B9",
"P c #DEEBBE",
"I c #E1EFC2",
"U c #E2F0C3",
/* pixels */
"IIIIIIIIIIZhuuu0u08uxDUUUUIIIIII",
"IIIIIIIIIImaapwu0wwaamJUIUIIIIII",
"IIIIIIIIIImap1333738anJUIIIIIIII",
"IIIIIIIIIIMkp8aaaaw8anJUIIIIIIII",
"IIIIIIIIIPmap0aaaau8anJUIIIIIIII",
"IIIIIIIIIImbp8aepa8uanJUIIIIIIII",
"IIIIIIIIIIMla855755pbnJUIIIIIIII",
"IIIIIIIIIImkbblkabablxJUIIIIIIII",
"IIIIIIIIIPmwaaaaappauaJUIIIIIIII",
"IIIIIIIIIPm7<<<776648fJUIIIIIIII",
"IIIIIIIIIPM74<4777767hJUIIIIIIII",
"IIIIIIIIIIN7,,<,3,443vLIIIIIIIII",
"IIIIIIIIIIJc&@$$$$$#iGUUIIIIIIII",
"IIIIIIIIIIUGt@X@+@+1VIUUIIIIIIII",
"IIIIIIIIIIIJd:%*,,,0DIIIIIIIIIII",
"IIIIIIIIIIUJh>%;,,6uDUIIIIIIIIII",
"IIIIIIIIUPUKz*oO**,pGUIIIIIIIIII",
"IIIIIIIIUUULz$@O%$:aHUIIIIIIIIII",
"IIIIIIIIUPUJp***O*6eDIIIIIIIIIII",
"IIIIIIIIUUPJi*%%O*<wSUIIIIIIIIII",
"IIIIIIIIUIPHi@$oX@*wAPPIIIIIIIII",
"IIIIIIIIUKMf2%$***:,tyZUIIIIIIII",
"IIIIIIIIUSe7%**>:>,% &BUIIIIIIII",
"IIIIIIIIUSa9%*%*>>>$ -BUIIIIIIII",
"IIIIIIIIUAde&$$*-O$oO,CUIIIIIIII",
"IIIIIIIIUAau&<,,;o-O$wCUIIIIIIII",
"IIIIIIIIUAgw=6<6;**O#eHUIIIIIIII",
"IIIIIIIIUAge=,:*>O%O-rCUIIIIIIII",
"IIIIIIIIUSgp1#@o@..@<gCUIIIIIIII",
"IIIIIIIIUSggsqqwq900egFUIIIIIIII",
"IIIIIIIIUSggggggggegajFUIIIIIIII",
"IIIIIIIIUSsgpggggaeeegDUIIIIIIII"
};
