/* XPM */
static char *_[] = {
/* columns rows colors chars-per-pixel */
"32 32 113 2 ",
"   c #0F0704",
".  c #05080F",
"X  c #0D0B0D",
"o  c #140601",
"O  c #1A0600",
"+  c #130905",
"@  c #1B0A02",
"#  c #120B0A",
"$  c #1D100A",
"%  c #030D16",
"&  c #0A0C13",
"*  c #050E19",
"=  c #110C10",
"-  c #05101C",
";  c #09121C",
":  c #161213",
">  c #210900",
",  c #330800",
"<  c #24140C",
"1  c #2B160B",
"2  c #2E1A0F",
"3  c #301303",
"4  c #3D1403",
"5  c #391805",
"6  c #341A0C",
"7  c #3A1F0E",
"8  c #2F1B10",
"9  c #331F14",
"0  c #3F1F10",
"q  c #3A2216",
"w  c #060F20",
"e  c #051222",
"r  c #081120",
"t  c #111A23",
"y  c #19222B",
"u  c #420F00",
"i  c #441300",
"p  c #471806",
"a  c #4E1B00",
"s  c #521C01",
"d  c #4A210B",
"f  c #5C250B",
"g  c #412414",
"h  c #4D2712",
"j  c #412619",
"k  c #4A2D1C",
"l  c #512711",
"z  c #522C15",
"x  c #5A2D15",
"c  c #4F301C",
"v  c #6A3314",
"b  c #713616",
"n  c #452F22",
"m  c #4B3124",
"M  c #513424",
"N  c #5B3423",
"B  c #573B26",
"V  c #5C3A26",
"C  c #52362A",
"Z  c #533A2D",
"A  c #5C3B2A",
"S  c #553D31",
"D  c #5C3E31",
"F  c #623E2C",
"G  c #6E3E2A",
"H  c #713E21",
"J  c #5E4133",
"K  c #71442F",
"L  c #744B2F",
"P  c #6A4936",
"I  c #6B4D3C",
"U  c #724C35",
"Y  c #7B4C32",
"T  c #714E3B",
"R  c #7D5136",
"E  c #77513C",
"W  c #7A543D",
"Q  c #7D583E",
"!  c #495259",
"~  c #6B4F42",
"^  c #755443",
"/  c #7C5744",
"(  c #7F5942",
")  c #785B4B",
"_  c #8B5337",
"`  c #845038",
"'  c #8A543A",
"]  c #8E5D3D",
"[  c #925737",
"{  c #935C3E",
"}  c #995E3E",
"|  c #9D613E",
" . c #815940",
".. c #8D5E44",
"X. c #845E49",
"o. c #805F50",
"O. c #8C624B",
"+. c #936244",
"@. c #9C6343",
"#. c #95644D",
"$. c #98664A",
"%. c #966A4F",
"&. c #9A6B4F",
"*. c #816455",
"=. c #8D6856",
"-. c #8D6C59",
";. c #906751",
":. c #956B57",
">. c #9F6E50",
",. c #A26644",
"<. c #A26749",
"1. c #A16C4C",
"2. c #987360",
/* pixels */
"r ; ; ; * w * w w ; * * - - ; % * ; & & & & * & - - - - - - - * ",
"* w w * * * * * * * * * * * % % & & & & & & & & % % & * & - ; & ",
"w w * w * * w ; * w * * - % & * & # : # # & & & * * * ; * - * * ",
"w * * * * * ; * * * ; & % & X # # # # # # # # X # & & * % % * * ",
"* * * - ; * * * ; * * & & : # o O O > O > @ o # # X & & * - % - ",
"* * - - * * % * & & & # # + O @ j D D D ~ C 9 O o # X X & & % % ",
"* * * % * % * % * & & # o > j V U :.:.:.2.-.~ q < + # X . & ; % ",
"w * * % * * * % * & # + > M E +...+.$...x h D o.J 1 $ X X X * * ",
"* * * * * % * & * & # @ j E O.$.@.@.{ s i i 4 ) J q < o X X & % ",
"* * * % * % % % * #   @ q ( $.+.@.,.} s ` G , V ^ k 1 + # . * % ",
"* * % % % * % % % X # O p ( $.@.} | ,.b f #.p N ^ k 2 @ # = & & ",
"* ; & * * * % % X X + @ 6 E $.@.,.} | @.s f i L W c 6 $ # & & & ",
"* * - % % % % & %   # o 6 U #.' _ <.| ,.[ v b $.U V 8 @ + X & & ",
"% * % % % % % % % X # o 2 T O.i u _ ,.} @.1.>.:.E A 8 @ + X & & ",
"% % * * % % % % & X X   1 I -.l x s } @.+.] R Q T Z 9 $   & * * ",
"* % % % % % % % & . X # o n ) J d i Y &.+.U z 5 5 9 < # X & * & ",
"* % % % % % % % & & & X + @ n *.P V X.;.O.A 3 > O o o X X & % % ",
"% % % * % % % % - % & X # # @ n S C m k 7 9 O o + # X X % % - % ",
"* % % % % % % % % % % & X # # o o O O O o o + # # X X & % % % - ",
"* % * % % % % % % - - % & & X X # # # # # #   X & & * * % - % % ",
"% % % * % % % % - & - % & & . X . X & X X . X & & % % % % % % % ",
"% * * % % % * % % % % % % % & & & . . . & . % & % % % % % % % % ",
"* * % % % - % % % % % % % % % % % % . % % % % % % % - % % % % % ",
"* * % % % % % % % % % - % % % % % % % % % % % % % % % % % - % % ",
"% % % % % % % % % % % % % % % % % % % % % * . * % % % % % % % % ",
"* * - % % - % % % % % % % % % % . % % % % * t w % % * % % % % % ",
"* * * % % - - % % % % % % % % % % % % % % % ! r . % % % % % % % ",
"* - - - % % % % % % % % % % % % % % % % % % . % % % % % * % % * ",
"- - - - - % - % % % % % % % - % % % % % % % % % % % w % % % % w ",
"- e - - - - - - % % % % % % % % % % % % % % % % % % % % % % % % ",
"e e - - - ; - ; % % % % % % % % * % % % % % % % % % % % % % w % ",
"e e - - - - - - % % % % % % % % % % % % % % % % w % % % w w % % "
};
