/* XPM */
static char *_[] = {
/* columns rows colors chars-per-pixel */
"24 32 101 2 ",
"   c #0F0704",
".  c #0E0905",
"X  c #0D0B0C",
"o  c #130601",
"O  c #190600",
"+  c #120904",
"@  c #1B0A01",
"#  c #100A0A",
"$  c #040D16",
"%  c #0A0D12",
"&  c #050F1A",
"*  c #0E1014",
"=  c #05101B",
"-  c #091018",
";  c #171310",
":  c #2D0300",
">  c #220A00",
",  c #2A0E00",
"<  c #310300",
"1  c #350A00",
"2  c #3B0C00",
"3  c #231004",
"4  c #2B1203",
"5  c #26150B",
"6  c #331503",
"7  c #3C1300",
"8  c #351904",
"9  c #3A1904",
"0  c #311708",
"q  c #351B0A",
"w  c #3D1D09",
"e  c #3E210F",
"r  c #3F2818",
"t  c #431500",
"y  c #421A00",
"u  c #4C1D00",
"i  c #411E08",
"p  c #43240E",
"a  c #4C250B",
"s  c #4D280E",
"d  c #542201",
"f  c #5A2404",
"g  c #562A0D",
"h  c #5C2B0B",
"j  c #422512",
"k  c #4A2911",
"l  c #562D11",
"z  c #553016",
"x  c #5B3013",
"c  c #543018",
"v  c #5A351B",
"b  c #642A04",
"n  c #66300E",
"m  c #643211",
"M  c #6C3715",
"N  c #62361B",
"B  c #65391C",
"V  c #6C3E1E",
"C  c #723A15",
"Z  c #663E24",
"A  c #6B3E21",
"S  c #73401C",
"D  c #7A421D",
"F  c #6D4124",
"G  c #674228",
"H  c #754525",
"J  c #7A4623",
"K  c #7B4B2C",
"L  c #82431A",
"P  c #834722",
"I  c #8C4D23",
"U  c #824D2C",
"Y  c #84522F",
"T  c #8D542D",
"R  c #925329",
"E  c #96582F",
"W  c #9A5A2E",
"Q  c #835433",
"!  c #8B5533",
"~  c #8D5934",
"^  c #835639",
"/  c #87583A",
"(  c #8A5A3A",
")  c #915A35",
"_  c #9C5D33",
"`  c #935E3B",
"'  c #9B5F3A",
"]  c #A55E2E",
"[  c #AA5F2C",
"{  c #A25F31",
"}  c #A95F30",
"|  c #9C623D",
" . c #A6602F",
".. c #AA602E",
"X. c #A46136",
"o. c #AB6333",
"O. c #A5653A",
"+. c #AB6639",
"@. c #825B42",
"#. c #846048",
"$. c #906449",
/* pixels */
"= = = = = = = = & & & = = = = = = = = & & & & & ",
"= = & = = = = = & = = & = = = & & = = = & & & & ",
"= = $ = & = = = & & & = & & & & & & & & & - & & ",
"$ = $ = = = = = & & & & & & & & & & & & & & & & ",
"& & & & = & & & = & = = & & = $ & & & & $ & - $ ",
"= & & - & & $ $ % % % % % % X % % - - & & & = & ",
"& = & $ - % % # + +   @ + @ @   X % $ $ = & $ = ",
"= & & % * ; o O 3 e e w s v k 4 O + * % % $ & $ ",
"& & % X o o 6 9 B ` ' _ X.O.~ V i O o X X % $ $ ",
"- % X o @ p A J L ] o.[ O.X.| ~ A v q @ + X % $ ",
"% % # O a H R o.{ [ [ O.U y 7 9 ` ( c 0 O + % % ",
"% X O q V T o.[ [ [ o.L < 6 j : J ~ x w 4 + X % ",
"- % o 8 V X...[ [ [ o.L u #.G 1 2 Q H z q @ X % ",
"- # o 6 C { [ ..[ [ ..W t A @.l 2 / H l q @ . X ",
"% X O , M O.[ [ [ [ [ +.U 7 @.v < / J g 9 3 + * ",
"$ % + , m _ O.o.o.[ [ o._ d 2 1 n | J x q > + % ",
"$ % o , m ) ' P D O.[ [ o.o.I I { _ C V 9 3 . X ",
"$ % + , x ` ! < : J O.[ [ [ +.+.+.X.P N w 3 + X ",
"$ % + > x ` ` u x 1 P O.[ [ { R E ) K B w 5 o X ",
"$ % X o w K ` h c x f O.] ] I C h a s j q 5 . X ",
"& $ % X O p K ~ u t b O.} X.S a 6 O @ @ @ @ X % ",
"$ & $ % # O k / $.^ ! ! ! U Z 8 @ o + . . X % $ ",
"& $ $ $ % # O r j e e e 8 , 5 O + X % % $ % $ $ ",
"$ & $ & $ $ X     o o   o . o # % % $ $ $ & $ $ ",
"& $ $ $ & $ % %   X % % % % % % $ $ & $ $ & $ & ",
"$ & & $ $ $ $ $ $ $ $ $ $ % $ $ $ & $ $ $ $ & $ ",
"$ $ $ $ $ $ & $ $ $ $ $ $ $ $ $ $ $ $ $ $ $ $ $ ",
"$ $ $ $ $ $ $ $ $ $ $ $ $ $ $ $ $ $ $ $ $ $ $ $ ",
"$ $ $ $ $ $ $ $ $ $ $ $ $ $ $ $ $ $ $ $ & & & $ ",
"$ $ $ $ $ $ $ $ $ $ $ $ $ $ $ $ $ $ $ $ & $ & $ ",
"$ $ $ $ $ $ $ $ $ $ $ $ $ $ $ $ $ $ $ $ $ $ $ $ ",
"$ $ $ $ $ $ $ $ $ $ $ $ $ $ $ $ $ $ $ $ $ $ $ $ "
};
