/* XPM */
static char *_[] = {
/* columns rows colors chars-per-pixel */
"32 32 106 2 ",
"   c #0F0A07",
".  c #0C0B0D",
"X  c #140501",
"o  c #1A0600",
"O  c #130905",
"+  c #1C0A02",
"@  c #110B0B",
"#  c #1D100A",
"$  c #030D16",
"%  c #0A0C12",
"&  c #050E19",
"*  c #080C18",
"=  c #05101C",
"-  c #09121C",
";  c #141213",
":  c #210900",
">  c #310600",
",  c #2A1407",
"<  c #25140A",
"1  c #2B1609",
"2  c #321301",
"3  c #3D1400",
"4  c #351806",
"5  c #3A1904",
"6  c #321608",
"7  c #331B0B",
"8  c #3D1E0A",
"9  c #332012",
"0  c #3D2211",
"q  c #061220",
"w  c #111A23",
"e  c #19222B",
"r  c #430E00",
"t  c #421400",
"y  c #471902",
"u  c #421F0B",
"i  c #521A00",
"p  c #4D2009",
"a  c #53260C",
"s  c #5C260A",
"d  c #5C2A0F",
"f  c #432513",
"g  c #4A2B16",
"h  c #462F1F",
"j  c #522E17",
"k  c #5A2D12",
"l  c #51321E",
"z  c #5C341D",
"x  c #5D391F",
"c  c #6D330E",
"v  c #703513",
"b  c #743E1C",
"n  c #4B2F21",
"m  c #493125",
"M  c #533523",
"N  c #5D3422",
"B  c #573B26",
"V  c #5C3A21",
"C  c #563B2A",
"Z  c #5C3B2B",
"A  c #633C23",
"S  c #623E2E",
"D  c #6C3F28",
"F  c #60412D",
"G  c #72442A",
"H  c #75492E",
"J  c #794A2C",
"K  c #6D4A35",
"L  c #6E4F3C",
"P  c #744C33",
"I  c #744E39",
"U  c #7E5136",
"Y  c #7C553C",
"T  c #49525B",
"R  c #7D5A46",
"E  c #804B2B",
"W  c #824F30",
"Q  c #805437",
"!  c #8E5234",
"~  c #835439",
"^  c #85583B",
"/  c #935A35",
"(  c #945C3A",
")  c #9B5E3A",
"_  c #A05F36",
"`  c #96613F",
"'  c #9D623B",
"]  c #A36136",
"[  c #A2633B",
"{  c #895D40",
"}  c #835E4C",
"|  c #83624F",
" . c #8D6448",
".. c #946140",
"X. c #9D6543",
"o. c #92634A",
"O. c #9A644A",
"+. c #996A4C",
"@. c #876451",
"#. c #906751",
"$. c #916B54",
"%. c #986A50",
"&. c #9C7259",
"*. c #A46642",
"=. c #A36B46",
"-. c #A46C49",
/* pixels */
"q = q * q q & q = = & = = = = = & & - $ = & & * & & $ - & & = = ",
"& q * q & & & * = & & & & & & & - $ * % % * - $ & & $ - & & = = ",
"& & & * & & q & = = - $ & = & & % % % % % % % * % - - & & & $ $ ",
"q & q & & & & q & & $ $ $ . . % ; @ @ @ @ @ @ % % % $ & & & & & ",
"& & & & & q & & & & - - % ; @ O o o o o : + X @ . ; % $ - - & & ",
"& & & & & & $ & & & % . @ @ o : f Z Z F L C 1 X     . % $ $ & & ",
"& = $ & & & & & & % % @ o + f z H +.+.%.&.$.K 0 ,     . % $ % & ",
"& $ & & $ $ & & * % . X + M U ..( ` X.( k a D @.B , O   % % & $ ",
"$ & & $ $ $ = $ $ % @ + f P ( [ [ [ ( i t 3 3 } F 0 , O . % $ $ ",
"& $ & & & & $ & % %   + f ^ *.' _ _ ) i ~ D > N Y l 1 O   % $ $ ",
"& & $ & & & $ & $ % @ o u ~ *.) _ ] *.v s o.y z Y j 1 +   % * * ",
"$ - * & & & $ $ $ . @ o 5 U X.*.[ _ _ _ i s t G Y j 4 # @ % % * ",
"& $ = $ $ $ $ $ % . @ o 4 P O.! / *._ [ / c b X.J V 7 + O . $ & ",
"& & $ $ $ $ $ $ $ % . X 6 I  .r r ! *._ [ =.=.+.Y V 7 + O % % * ",
"$ $ $ & $ $ $ $ $ . . X , L  .a k i _ [ ' / Q ~ P B 9 #   % * * ",
"$ & $ $ $ $ $ $ $ . . @ + h R D i t E =.` J d 5 4 7 < @ . % & * ",
"& & $ $ $ $ $ $ $ $ % . O o n @.K N { o.{ A 2 : o o O   % % $ $ ",
"$ $ $ $ $ $ $ $ - * * . . @ o m Z C M g 8 7 + X @ . . . $ $ $ $ ",
"$ $ $ $ $ $ $ $ $ $ $ % % . O X X X o o X X X   . . % $ & $ $ $ ",
"& $ $ $ $ $ $ $ $ $ - $ $ % %   @ . .   . . % % % * $ - $ $ $ $ ",
"$ & $ $ $ $ $ $ - $ $ $ $ $ % . * . . $ . . % $ $ & & & $ $ $ $ ",
"$ $ & & $ $ $ $ $ $ $ $ $ $ $ $ $ $ . $ $ $ $ $ $ $ $ $ $ $ $ $ ",
"& $ $ $ $ $ & $ $ $ $ & $ $ $ $ $ $ $ $ $ $ $ $ $ $ $ $ $ $ = = ",
"& & $ $ $ $ $ $ $ & $ $ $ $ $ $ $ $ $ $ $ $ $ $ $ $ & $ $ $ $ $ ",
"$ & & & $ $ $ $ $ $ $ $ $ $ $ $ $ $ $ $ $ * $ $ & $ $ * $ $ * $ ",
"& & & & & $ = $ $ $ $ $ $ $ $ $ $ $ $ $ $ * w * $ $ $ $ * $ $ $ ",
"& & & & & & $ $ $ $ $ $ $ $ $ $ $ $ $ $ $ $ T q $ $ $ $ $ $ $ * ",
"& & & & $ & $ $ $ $ $ $ $ $ $ $ $ $ $ $ $ $ $ $ $ $ $ $ $ $ $ $ ",
"q = = = = $ = $ $ $ $ $ $ $ $ $ $ $ $ $ $ $ $ $ * & & * $ * & & ",
"= = = = = = = = $ $ $ $ $ $ $ $ $ $ $ $ $ $ $ $ * & & & $ & & & ",
"q q = = = = = $ $ $ $ $ $ $ $ $ $ $ $ $ $ $ $ * * * * & & & & & ",
"= q = = = = = = $ $ $ $ $ $ $ $ $ $ $ $ $ $ $ $ * $ & & & & & & "
};
