/* XPM */
static char *C[] = {
/* columns rows colors chars-per-pixel */
"32 32 237 2 ",
"   c #010201",
".  c #0B0302",
"X  c #020B01",
"o  c #0A0A01",
"O  c #01020C",
"+  c #020C0C",
"@  c #0C0B0B",
"#  c #130B02",
"$  c #130B0B",
"%  c #031201",
"&  c #0B1204",
"*  c #071707",
"=  c #121C03",
"-  c #14140B",
";  c #1A1C0C",
":  c #1C1708",
">  c #010413",
",  c #030C14",
"<  c #0C0C13",
"1  c #00021A",
"2  c #010B1C",
"3  c #0B091B",
"4  c #140D19",
"5  c #0D1412",
"6  c #04121A",
"7  c #0A141B",
"8  c #0A1B1A",
"9  c #141413",
"0  c #1A1A13",
"q  c #13141C",
"w  c #131B1B",
"e  c #191718",
"r  c #201816",
"t  c #092114",
"y  c #1A2519",
"u  c #153414",
"i  c #292816",
"p  c #2A3310",
"a  c #000325",
"s  c #020B25",
"d  c #090C24",
"f  c #00032A",
"g  c #010B2B",
"h  c #0B0720",
"j  c #021325",
"k  c #0C1324",
"l  c #031D21",
"z  c #0C1B23",
"x  c #04142A",
"c  c #0B132E",
"v  c #081E29",
"b  c #151B22",
"n  c #1C1E21",
"m  c #121A2C",
"M  c #171625",
"N  c #010B30",
"B  c #000538",
"V  c #011D34",
"C  c #091736",
"Z  c #131B34",
"A  c #161D3A",
"S  c #130C2D",
"D  c #241C2A",
"F  c #201736",
"G  c #08282C",
"H  c #142229",
"J  c #192625",
"K  c #07253A",
"L  c #1E253D",
"P  c #182637",
"I  c #1A363A",
"U  c #1C3E2E",
"Y  c #2E2A23",
"T  c #252626",
"R  c #343829",
"E  c #262D32",
"W  c #272A38",
"Q  c #2A343A",
"!  c #3C3B35",
"~  c #273128",
"^  c #364331",
"/  c #4B4D1A",
"(  c #71751E",
")  c #45443B",
"_  c #48583B",
"`  c #68653A",
"'  c #000B45",
"]  c #021445",
"[  c #061A46",
"{  c #121A4A",
"}  c #000B53",
"|  c #001652",
" . c #001C5C",
".. c #0A2448",
"X. c #1A2847",
"o. c #193944",
"O. c #072656",
"+. c #1A2956",
"@. c #17345E",
"#. c #292D48",
"$. c #283649",
"%. c #353A49",
"&. c #232C58",
"*. c #283658",
"=. c #373A56",
"-. c #001968",
";. c #062866",
":. c #152E67",
">. c #08376A",
",. c #183665",
"<. c #022B71",
"1. c #00287B",
"2. c #05367B",
"3. c #1B3976",
"4. c #182F72",
"5. c #253967",
"6. c #353C67",
"7. c #273974",
"8. c #1A454A",
"9. c #374347",
"0. c #27475C",
"q. c #3D4D59",
"w. c #3F625C",
"e. c #1D486B",
"r. c #1A4D76",
"t. c #29476A",
"y. c #3A4265",
"u. c #344974",
"i. c #305278",
"p. c #3F6266",
"a. c #45474B",
"s. c #4A5247",
"d. c #54594B",
"f. c #5A5B55",
"g. c #4D5055",
"h. c #655D58",
"j. c #59625B",
"k. c #546854",
"l. c #67675E",
"z. c #474B66",
"x. c #4B5464",
"c. c #565769",
"v. c #454D76",
"b. c #555C76",
"n. c #4D5772",
"m. c #605D64",
"M. c #5D6668",
"N. c #59657A",
"B. c #5A7579",
"V. c #4B6469",
"C. c #656866",
"Z. c #77796D",
"A. c #636B79",
"S. c #6A7775",
"D. c #797776",
"F. c #6B746F",
"G. c #827F78",
"H. c #7B9377",
"J. c #718375",
"K. c #9CA83C",
"L. c #8F8950",
"P. c #AFAD58",
"I. c #84847B",
"U. c #979B72",
"Y. c #9AA671",
"T. c #ACAF77",
"R. c #C3BC61",
"E. c #AFC058",
"W. c #BEC96D",
"Q. c #C6C76A",
"!. c #043987",
"~. c #002A80",
"^. c #1A478A",
"/. c #15498B",
"(. c #3A568E",
"). c #3A6585",
"_. c #5A5E84",
"`. c #465898",
"'. c #595F91",
"]. c #5A6386",
"[. c #4F6A89",
"{. c #676888",
"}. c #636B96",
"|. c #6A7697",
" X c #777998",
".X c #737686",
"XX c #4563A3",
"oX c #636BA1",
"OX c #757CA7",
"+X c #6C76AC",
"@X c #778786",
"#X c #79869C",
"$X c #79928E",
"%X c #7D88B6",
"&X c #7E8CC9",
"*X c #888985",
"=X c #959788",
"-X c #85879A",
";X c #989798",
":X c #8D8E85",
">X c #AD9F9E",
",X c #9BA78E",
"<X c #9CB78A",
"1X c #A4A698",
"2X c #8D92AF",
"3X c #A097A8",
"4X c #ABA8A6",
"5X c #B3AAA3",
"6X c #ABB8A6",
"7X c #B6B5AC",
"8X c #B9B6B8",
"9X c #A4B0B7",
"0X c #9AA9B0",
"qX c #C3BE9E",
"wX c #B5C7AE",
"eX c #E5E396",
"rX c #C3C5BD",
"tX c #C8DABF",
"yX c #D2DDB3",
"uX c #DCE6A7",
"iX c #D7DB8B",
"pX c #9CAAC9",
"aX c #ABB1D0",
"sX c #9098C9",
"dX c #BCC3D0",
"fX c #BBC4C1",
"gX c #CBC9D1",
"hX c #CDD4DA",
"jX c #CBD7CB",
"kX c #CDE9C7",
"lX c #CFD4E2",
"zX c #D4DBF0",
"xX c #E3DFE9",
"cX c #DAE6F9",
"vX c #E6E5E8",
"bX c #EBEDFA",
"nX c #EAF1F6",
/* pixels */
"..K K K 6 , w 0 ; i ;   u I.tXkXkX<X_ * . - D 9 4 3 d v v G G 8.",
"K K K j z J w . 0   - J.jXwXk.* u H.tX6Xs.@ @ D D M 7 k P I G X ",
"0.K 2 2 H ,   5 T C.wXhXJ.+ + w.U X t 6XnXJ.e O 4 q q > + , G I ",
"> P I G 7 > b a.;XlX0XH 2 0.[.8.8.p.I * E gXhXC.4   O n J 8 8 G ",
"8 H 8 6 7 W .XhXaX9.2 ..).).e.r.e.e.t.0.s O c.gX;Xf.-   w T 8   ",
"t Q E + a.hXlXx.1 X.u.i.e.e.r.^.O.O.O.t.0.x O < *X5X=X!     n E ",
"s.  J vXbXD.L 1 X.C [ 3.^.r.2.!./.^.<.' ..*.P   . h.5X5Xh.r . e ",
"0 ! 7X8XD O P c ..O.O.;.<.2.!.!.~.~.2.:.[ g 2 w !   . G.5Xh.$ . ",
". ) ,X- @ 3 d g [ B 3.} <.!.2.!.~.-.-.-.C ..x 3 O o   : s.>X# r ",
". Y G.  < , 1 f &.B | :.;.} ^.} ~.-.<. .' [ 1 O , @   . Y *X# $ ",
"o r l.  q 1 1 a f ] [ B ;.|  .-.' -.(.3.O.{ N c 2 3     $ G.$ r ",
"- e f.  M 1 1 f C *.&X] ] 5.] `.&.:.u.[ ] f a a 1 h 3 O 4 *Xr $ ",
"9 e M.O M 1 1 Z *.f zXaX5._.pXaXcXpXOX+.v.&.&.6.N g c > < *X-   ",
"+ J C.O 7 1 s A Z A 2XbX0Xn.bXbXgXlXzX|.OX}.OXsXv.&.C 2 > .X8 X ",
"O b M.O k d Z #.z.-Xc.3XxX.X8X8X  *XlXf.b.v.'.oX%X7.[ x s @Xy * ",
"+ J N.O m X.#.=. X Xz.c.gXxXxX>Xr 4XvX$._.+X+X4.sX5.B V j @Xt X ",
"o J M.O c #.v.y.OX_.=.z.=.;X9X:XT 3XaX{.'.+XXX4.4.4...V v @X* * ",
"% u j.O s S 6.&.oX}.'.].W 9.9.~ %.m.{.OX}.`.4.3.XX(.5.K 8 @X% % ",
"X y f.O k Z y.*.=.6._. Xb.N.A.A.;X-XA.{.5.u.:.;.:.:...g s $X8 * ",
"& y d.  n M %.L L { *.z.n.N.N.b.g.a.W #.1 t.u.,.@.t.t.X.P -X7 O ",
"- i d.  @   3 O Z Z c c X.X.A c S . > $.Z o.o.0...X.&.P C  XS 3 ",
"o 0 f.  X   w 9 . , 1 1 s a N f Z S z > > 6 G 6 K 2 1 1 d  XS F ",
". Y G.: #   ) C.F.@XA.#.N.}.|.'.|.|.N.6 q.[.;XB.$XQ + 2 W 2X3 3 ",
". ) =XY &   d.=XJ.S.9.O N.%XsX}.OXv.y.K #XV.J.@X$XJ . 4 a.4X4 O ",
"@ Y D.1Xl.o   R 0   8 %.z 1 s N f B &.0.j 6 t % ^ % % I.1Xs.. - ",
"4 . 0 :XjX5X^   &     5 , 2 k c { { &.*.8.x.9.X X J.tX,X^ X . o ",
"@ E 9   R 1X7XZ.  i i @ o w y E {.*.#.b.x.Q J y 6X<Xk.=   = ; o ",
"@ 5 e w O - l.8XrXf.  # i o i 1XF.q.%.9.7 X k.jX:X^ X X * % % = ",
"w + + Q Q , O n C.rX1Xi = ` Y.T.U.;X_ X d.jX7X~   9 J y X   % 5 ",
"+ H b O > Q W O . ! U.qXT.L.P.eXuXY.Y.yXwXp . T J w , O 6 H l + ",
"+ X 6 P m 1 h %.4 . # / L.iXeXQ.W.iXT./ p = & y q 2 d X.X.s 1 s ",
"J l , 2 d c h 1 M : # # # ( R.E.K.E.( = X = o   O 1 s s a a C .."
};
