/* XPM */
static char *C[] = {
/* columns rows colors chars-per-pixel */
"32 32 155 2 ",
"   c #3B1A1E",
".  c #362324",
"X  c #3C2224",
"o  c #3A2A26",
"O  c #3D2529",
"+  c #3D2A2A",
"@  c #3C332C",
"#  c #402225",
"$  c #4A2627",
"%  c #452927",
"&  c #44252A",
"*  c #4C252B",
"=  c #442C2C",
"-  c #4D2B2E",
";  c #54262D",
":  c #5A262F",
">  c #532B2D",
",  c #5C292F",
"<  c #43332C",
"1  c #4B332C",
"2  c #4F392E",
"3  c #533A2E",
"4  c #5A382F",
"5  c #4A2D32",
"6  c #572730",
"7  c #5A2730",
"8  c #532B32",
"9  c #5D2932",
"0  c #5C2F3A",
"q  c #463433",
"w  c #4C3634",
"e  c #433B38",
"r  c #4C3B3B",
"t  c #533234",
"y  c #5B3236",
"u  c #553F30",
"i  c #5E353B",
"p  c #523B39",
"a  c #583E3B",
"s  c #602833",
"d  c #622E38",
"f  c #62363A",
"g  c #64383C",
"h  c #4B413D",
"j  c #544437",
"k  c #5C4234",
"l  c #54443B",
"z  c #57493D",
"x  c #5B4A3F",
"c  c #644635",
"v  c #644B36",
"b  c #694939",
"n  c #64513D",
"m  c #6D523C",
"M  c #72563E",
"N  c #795A3F",
"B  c #663741",
"V  c #663C45",
"C  c #6B3940",
"Z  c #5C4441",
"A  c #524E45",
"S  c #5C4C43",
"D  c #554A48",
"F  c #584B4B",
"G  c #5C5147",
"H  c #5C534E",
"J  c #5F594D",
"K  c #5F5F54",
"L  c #624345",
"P  c #614E46",
"I  c #654748",
"U  c #6C464E",
"Y  c #6A4B4A",
"T  c #655446",
"R  c #695546",
"E  c #65564B",
"W  c #6C544B",
"Q  c #69594E",
"!  c #775B44",
"~  c #795D42",
"^  c #6F4C52",
"/  c #764E54",
"(  c #645456",
")  c #6C5253",
"_  c #6A5C54",
"`  c #675F5B",
"'  c #775955",
"]  c #71555D",
"[  c #725F59",
"{  c #6C6353",
"}  c #6F6358",
"|  c #776452",
" . c #7A6656",
".. c #726A56",
"X. c #7C6E54",
"o. c #746D58",
"O. c #7D765D",
"+. c #745960",
"@. c #7D5E66",
"#. c #6D6463",
"$. c #746F66",
"%. c #796B62",
"&. c #7C6A6D",
"*. c #866646",
"=. c #866847",
"-. c #8C6B49",
";. c #926E4B",
":. c #97724C",
">. c #826A58",
",. c #89725E",
"<. c #80666F",
"1. c #8D7562",
"2. c #907663",
"3. c #947964",
"4. c #9C7F67",
"5. c #867077",
"6. c #937B75",
"7. c #838673",
"8. c #8C8D76",
"9. c #8E8E78",
"0. c #978176",
"q. c #9A837A",
"w. c #8E9277",
"e. c #8F927C",
"r. c #A1856F",
"t. c #A38872",
"y. c #AA8A71",
"u. c #B08F74",
"i. c #928D84",
"p. c #988B88",
"a. c #989C87",
"s. c #9D9F8C",
"d. c #AD9387",
"f. c #A39793",
"g. c #9EA18B",
"h. c #A0A38E",
"j. c #A3AA8D",
"k. c #A6AE92",
"l. c #B0B997",
"z. c #B1BA99",
"x. c #B1A3A1",
"c. c #CEBBB8",
"v. c #B9C19D",
"b. c #B8C1A3",
"n. c #BCC8A4",
"m. c #C3CFA9",
"M. c #CAD5B1",
"N. c #CBD8B0",
"B. c #D2DEB8",
"V. c #D6E2BA",
"C. c #D9E7BC",
"Z. c #DAE8BD",
"A. c #DFEDC1",
"S. c #E1EFC2",
"D. c #E3F2C4",
/* pixels */
"S.S.S.S.S.S.S.S.S.S.S.S.S.S.S.S.S.S.S.S.S.S.S.S.S.S.S.S.S.S.S.S.",
"S.S.S.S.S.S.S.S.S.S.S.S.S.S.S.S.S.S.S.S.S.S.S.S.S.S.S.S.S.S.S.S.",
"S.S.S.S.S.S.S.S.S.S.S.S.S.S.S.S.A.D.S.D.S.D.S.S.S.S.S.S.S.S.S.S.",
"S.S.S.S.S.S.S.S.S.S.S.D.S.S.S.S.D.A.D.B.b.V.A.S.S.S.S.S.S.S.S.S.",
"S.S.S.S.S.S.D.D.Z.Z.D.D.D.D.D.D.D.A.k.7.i.s.B.D.S.S.S.S.S.S.S.S.",
"S.S.S.S.S.S.n.j.} } j.z.z.z.l.l.l.j.A &.( #.7.m.S.S.S.S.S.S.S.S.",
"S.S.D.S.A.j.e . 6 ; o n N m < - - 5 $ * + m M X.v.S.S.S.S.S.S.S.",
"S.S.D.D.N.S = . 7 ; 2 =.:.v ; s 9 9 s 9 = -.:.-.O.Z.S.S.S.S.S.S.",
"S.S.S.D.N.S > O , 6 3 -.M - 9 s 9 9 9 s , k =.;.X.Z.S.S.S.S.S.S.",
"S.S.A.D.a.w g & > ; u m > 9 9 9 s d 9 9 9 ; k R { Z.S.S.S.S.S.S.",
"S.A.D.D.8.> 4 % 2 w o - 7 9 7 - > ; 9 s 9 s 6 5 K Z.S.S.S.S.S.S.",
"S.D.A.D.w.m M o j l o , 9 * w z x r * 9 9 s / ) e.S.S.S.S.S.S.S.",
"S.S.A.D.w.4 8 . $ * X , ; < S T T R S > s 9 @.5.a.A.S.S.S.S.S.S.",
"S.S.D.D.8.5 f = 7 7 # 9 ; S E T T R P * 9 d U <.$.Z.S.S.S.S.S.S.",
"S.S.S.D.8.. t & : 7 # , ; x E R | Q S * 9 9 9 i _ Z.S.S.S.S.S.S.",
"S.S.S.D.8.8 i & 7 7 # , ; n 1. .3.3.Q & & 7 9 7 Q Z.S.S.S.S.S.S.",
"S.S.S.D.8.y t & 7 7 # , ; R 4.Q @ Q Q h p 7 9 7 Q Z.S.S.S.S.S.S.",
"S.S.S.D.8.f f & , 7 # , ; W u.>.S h | ,.z ; 9 7 Q Z.S.S.S.S.S.S.",
"S.S.S.D.8.f C & : ; # , ; k y.2.G S r.3.% ; 9 7 ) Z.S.S.S.S.S.S.",
"S.S.A.D.8.0 i . w 1 o , , o ,.1.,.t.3.j * 9 V 7 Q Z.S.S.S.S.S.S.",
"S.S.S.D.8.% b 3 j l o ; s $ w T E S = & 9 V ] w J Z.S.S.S.S.S.S.",
"S.S.S.D.w.v c o # * 1 k ; 9 ; ; ; ; 6 d V +.E ! ..Z.S.D.S.S.S.S.",
"S.S.S.D.8.$ 0 &   * u =.3 ; 9 9 9 9 9 B &.^ ~ -.o.Z.D.D.S.S.S.S.",
"S.S.S.D.8.8 5 & # & 2 -.~ > 7 7 9 9 9 ^ &.P -.*.A k.N.S.S.S.S.S.",
"S.S.S.D.8.t O O & # o k k % O O X # # r r < k 3 D f.i.N.S.S.S.S.",
"S.S.A.D.e.w 8 & * q a Y X o = + . Z ' ^ W ) = w H c.p.g.D.S.S.S.",
"S.S.S.D.m.h i & 5 ) 0.d.E ` x.#.r p.6. .[ 6.q.%.h p.a.M.D.S.S.S.",
"S.S.S.D.V.#.r = . & L Y L a f.F p Y I I L Y Y F H z.Z.S.S.S.S.S.",
"S.S.S.S.D.C.l.g.h.h.h.g.g.a.9.h.f.g.g.g.g.g.g.g.z.S.S.S.S.S.S.S.",
"S.S.S.S.S.S.D.D.D.D.D.D.D.D.S.D.D.D.D.D.D.D.D.D.D.S.S.S.S.S.S.S.",
"S.S.S.S.S.S.D.S.S.S.S.S.S.S.S.S.S.S.D.S.S.S.S.S.A.S.S.S.S.S.S.S.",
"S.S.S.S.S.S.S.S.S.S.S.S.S.S.S.S.S.S.S.S.S.S.S.S.S.S.S.S.S.S.S.S."
};
