/* XPM */
static char *C[] = {
/* columns rows colors chars-per-pixel */
"32 32 241 2 ",
"   c #010201",
".  c #0C0303",
"X  c #020B02",
"o  c #0A0B01",
"O  c #01020C",
"+  c #020C0C",
"@  c #0B0B0C",
"#  c #0A050D",
"$  c #120906",
"%  c #031101",
"&  c #0D1A02",
"*  c #061508",
"=  c #141B02",
"-  c #14140C",
";  c #191606",
":  c #010414",
">  c #020C14",
",  c #0B0C14",
"<  c #00021B",
"1  c #020C1C",
"2  c #0C091C",
"3  c #150E19",
"4  c #0B1314",
"5  c #04141C",
"6  c #0B141C",
"7  c #061819",
"8  c #131413",
"9  c #1C1212",
"0  c #111A16",
"q  c #12151C",
"w  c #15191C",
"e  c #1B1D1B",
"r  c #1C1916",
"t  c #201617",
"y  c #1C2214",
"u  c #16261A",
"i  c #11260F",
"p  c #282C07",
"a  c #27271A",
"s  c #28331D",
"d  c #000324",
"f  c #040B23",
"g  c #000429",
"h  c #010B2C",
"j  c #0A0F2C",
"k  c #0C0822",
"l  c #031323",
"z  c #0C1324",
"x  c #03142A",
"c  c #0B142C",
"v  c #071D27",
"b  c #131A2E",
"n  c #181A26",
"m  c #000234",
"M  c #010939",
"N  c #011A32",
"B  c #0D1C3B",
"V  c #041537",
"C  c #121934",
"Z  c #161C39",
"A  c #130C2D",
"S  c #221A2F",
"D  c #092427",
"F  c #162325",
"G  c #1A2729",
"H  c #062337",
"J  c #182638",
"K  c #143734",
"L  c #212324",
"P  c #282825",
"I  c #2B3225",
"U  c #232434",
"Y  c #232B31",
"T  c #282C38",
"R  c #383933",
"E  c #2B322E",
"W  c #453D18",
"Q  c #433E3A",
"!  c #37412D",
"~  c #3F4539",
"^  c #4E5A18",
"/  c #71751E",
"(  c #464A3A",
")  c #4F633E",
"_  c #68653A",
"`  c #000747",
"'  c #011243",
"]  c #021A4A",
"[  c #061747",
"{  c #121A4A",
"}  c #001B5B",
"|  c #001454",
" . c #000550",
".. c #0B2448",
"X. c #1C2442",
"o. c #172948",
"O. c #173949",
"+. c #0A2757",
"@. c #1C2853",
"#. c #193958",
"$. c #262E49",
"%. c #283547",
"&. c #34384A",
"*. c #232D59",
"=. c #253254",
"-. c #293759",
";. c #33375B",
":. c #302F41",
">. c #001A66",
",. c #00176E",
"<. c #052867",
"1. c #142E63",
"2. c #142B6F",
"3. c #173568",
"4. c #032977",
"5. c #03367A",
"6. c #123671",
"7. c #253B67",
"8. c #343C68",
"9. c #243977",
"0. c #423C4A",
"q. c #1E4250",
"w. c #3C434A",
"e. c #374445",
"r. c #394F55",
"t. c #174A70",
"y. c #284567",
"u. c #3B4365",
"i. c #354875",
"p. c #365D7B",
"a. c #2D536B",
"s. c #48484A",
"d. c #53564B",
"f. c #575957",
"g. c #4C5051",
"h. c #645D57",
"j. c #56625A",
"k. c #516651",
"l. c #64615B",
"z. c #65755B",
"x. c #474C65",
"c. c #575A69",
"v. c #4B5578",
"b. c #575E76",
"n. c #48506D",
"m. c #625B6B",
"M. c #5A6468",
"N. c #58657C",
"B. c #597274",
"V. c #486872",
"C. c #646863",
"Z. c #76776D",
"A. c #656C7A",
"S. c #6A7477",
"D. c #707069",
"F. c #807D76",
"G. c #7D8678",
"H. c #77926F",
"J. c #9CA83C",
"K. c #8E8850",
"L. c #B1AF5A",
"P. c #84877D",
"I. c #969776",
"U. c #9AA671",
"Y. c #ADB273",
"T. c #C4BD62",
"R. c #AFC058",
"E. c #BEC96D",
"W. c #C8C96C",
"Q. c #013682",
"!. c #012F87",
"~. c #184588",
"^. c #1C4E8E",
"/. c #39558D",
"(. c #585C89",
"). c #465898",
"_. c #5B6283",
"`. c #57638D",
"'. c #5C6294",
"]. c #676889",
"[. c #646B96",
"{. c #677396",
"}. c #787B9A",
"|. c #757787",
" X c #4563A3",
".X c #646CA2",
"XX c #6D76AA",
"oX c #767DA7",
"OX c #6B77B3",
"+X c #778786",
"@X c #7A879C",
"#X c #768F8C",
"$X c #7B83AB",
"%X c #7B88BB",
"&X c #7E8CC9",
"*X c #898884",
"=X c #878984",
"-X c #889388",
";X c #969A8B",
":X c #888A9A",
">X c #989899",
",X c #918684",
"<X c #A79F96",
"1X c #9DA392",
"2X c #A3A89A",
"3X c #B0A79F",
"4X c #A6B58F",
"5X c #8A89A0",
"6X c #9C96A4",
"7X c #8993B5",
"8X c #9F9EB0",
"9X c #97A9A7",
"0X c #AAA9A7",
"qX c #A6A5BE",
"wX c #BAB8B7",
"eX c #B0B2A8",
"rX c #C0BB9B",
"tX c #B5C4B2",
"yX c #E8E28E",
"uX c #C3D5BA",
"iX c #D2DDB3",
"pX c #DCE6A7",
"aX c #E5E6A0",
"sX c #D7DB8B",
"dX c #9BA9C9",
"fX c #ACB6D2",
"gX c #9199CA",
"hX c #BCC3C9",
"jX c #CBCED4",
"kX c #C8CBD7",
"lX c #CBD4D9",
"zX c #D3DBD4",
"xX c #CAD7C7",
"cX c #CFEBC9",
"vX c #D5DBE3",
"bX c #CFD9FD",
"nX c #DBE6FA",
"mX c #DEE9E5",
"MX c #E4E2EA",
"NX c #ECEFFF",
"BX c #EFEEF6",
/* pixels */
"N N H H l 7 e y - a ;   s H.xXcXcX4X) i   - t 3 n 2 6 b v 5 D K ",
"H H H D J Y L @ ;   ; G.xXtXk.% i H.uX4Xd.. @ S S S n z J K D + ",
"#.H : > G 4   8 L M.tXlXB.+ + r.K % i 9XmX+X8 # 3 3 n > O 7 D K ",
"> H J v 5 : w w.:XkX9X5 1 q.V.O.K a.H * G hXjXm.8   # n G 7 7 D ",
"> 7 6 6 z T |.lXfX%.: N p.p.t.t.a.t.y.O.1 : f.kX<Xf.-   w L 6   ",
"+ Y G O w.kXlXx.< B y.i.3.t.t.^.t.+.+.y.-.f O @ *X0X,XQ     e L ",
"R   - zXMXA.b < o.V ..6.t.t.5.Q.~.Q.<.[ ..-.J O   d.3X3Xh.t # t ",
"o I 0XwXL O b c ..+.+.<.4.!.5.!.4.4.5.2.] h 5 0 t   . D.3Xl.9 . ",
"  ( ;X$ # : f h V M 6.` >.5.4.5.!.>.,.} M ..f 1 @ o   9 d.3X$ 9 ",
"  I F.  # : d d @.m ` <.<. .~. .4.>.4.| M [ < : , @     a ,X$ 9 ",
"o t l.  2 : < d g ' ' m <.| | >.` >./.9.+.{ h j 1 2 O   9 F.$ 9 ",
"- 9 f.  q : < h V 1.7X' ' *.` /.1.@.i.] [ g d d < f , O 3 P.9 9 ",
"8 e c.O 2 : < C ;.g bXfX*.v.qXfXnXdXoX@.u.;.*.8.h h c < # =X4   ",
", u C.O 2 : 1 $.C Z 7XNXqXm.NXNXkXlXnX{.$X[.XXgXv.@.B f : |.0 X ",
"> F M.O 1 f Z $.x.5Xc.8XMX|.wXwX  =XzXc._.v.'..XOX8.[ x 1 +Xu * ",
"+ F M.: z Z $.;.}.}.x.c.kXMXMX3Xa eXMX:._.OX.X9.gX9.V x l #X7 % ",
"X s M.O c { v.u.oX(.;.n.w.5X0X-XU 6XdX].(.OX).9.9.1.+.N v #X& % ",
"% u k.O 1 A ;.*.[.[.(._.J w.e.E 0.m.].}..X).2.Q. X/.7.H 7 G.% % ",
"X y f.  2 b 8.;.8.8._.}.N.A.A.A.6X5XA.].8.i.3.1.2.3.+.f f #X0 * ",
"% y g.  q n &.J U { $.n.b._.N.b.x.0.U :.< y.i.7.#.7.y.o.H :X6 + ",
"- y d.    O , O b b c j o.X.B c 3 O O %.l o.O.#...o.#.J C $Xk 2 ",
"o r f.  o   8 6 # : < < d f h g b k 1 : : + 5 > H 1 < < k }.A S ",
". P Z.; o   ~ C.D.+XA.X.N.`..X`.{.{.N.1 r.B.#XV.#XT > , T 5Xk 2 ",
". Q <Xa X X d.;XG.S.w.+ N.7XgX{.$Xn.u.H @XV.+X#X#XK   3 g.8X3 # ",
". a Z.<Xh.    a &   0 T b < d h m m *.-.x 5 7 % i X X G.2Xd.o - ",
"@   - P.xX;Xs   o     4 > 5 b c { { -.-.%.g.r.X X z.uX1X! o   o ",
"  L -   P 2XeXZ.  e L o o 0 a T ].=.%.b.V.Y F i 2X;Xk.= X = =   ",
", , 8 ,     f.wXtXd.  . a o a 2XS.r.&.e.7   k.zXP.! % X & % X & ",
"w O   Y Y O O r l.wX<Xp ; _ U.Y.I.;X( % d.cXeXE   + F 0 X   X * ",
"+ G 7 O O J n O   Q I.rXY.K.L.aXpXU.U.iXtXs . a 0 4 O O > v v O ",
"X O 1 J b : k :.# . $ W F.W.yXW.E.sXY.^ p = & e 6 : f J X.f < 1 ",
"D 7 > 1 c b j : t $ ; $ ; / W.R.J.R./ & o & o   O f j g d d V B "
};
