/* XPM */
static char *C[] = {
/* columns rows colors chars-per-pixel */
"29 32 240 2 ",
"   c #010402",
".  c #0B0100",
"X  c #010B03",
"o  c #0D0A02",
"O  c #00040C",
"+  c #000C0C",
"@  c #0C070B",
"#  c #120101",
"$  c #120D03",
"%  c #1C0F00",
"&  c #021004",
"*  c #0B1104",
"=  c #00140C",
"-  c #081A09",
";  c #10160D",
":  c #171708",
">  c #000512",
",  c #010B13",
"<  c #030C1B",
"1  c #0A0819",
"2  c #011414",
"3  c #011B15",
"4  c #02131B",
"5  c #031B1C",
"6  c #0C1B1C",
"7  c #0A1817",
"8  c #131B13",
"9  c #191A1E",
"0  c #1F0F19",
"q  c #241409",
"w  c #241916",
"e  c #341B16",
"r  c #03231B",
"t  c #072718",
"y  c #1C2016",
"u  c #15251B",
"i  c #1C221E",
"p  c #1E2008",
"a  c #23241C",
"s  c #2D231E",
"d  c #372B1B",
"f  c #31240D",
"g  c #010026",
"h  c #00032C",
"j  c #020A2E",
"k  c #031D23",
"l  c #0B1B24",
"z  c #041525",
"x  c #131C25",
"c  c #131C2B",
"v  c #1C1722",
"b  c #020936",
"n  c #140D3E",
"m  c #00133C",
"M  c #251E29",
"N  c #301B2E",
"B  c #042224",
"V  c #0C2B2B",
"C  c #082527",
"Z  c #142324",
"A  c #1C2A29",
"S  c #192727",
"D  c #17382C",
"F  c #042636",
"G  c #142B32",
"H  c #1B2635",
"J  c #1A3436",
"K  c #0D372D",
"L  c #262925",
"P  c #28392E",
"I  c #2D3429",
"U  c #393027",
"Y  c #242B3E",
"T  c #252A37",
"R  c #253737",
"E  c #353D36",
"W  c #373B39",
"Q  c #3E2D37",
"!  c #482F3A",
"~  c #463734",
"^  c #1F4337",
"/  c #38453A",
"(  c #484A3F",
")  c #0C0B43",
"_  c #001B42",
"`  c #061947",
"'  c #1C1645",
"]  c #071E50",
"[  c #062549",
"{  c #132246",
"}  c #072C59",
"|  c #0E2D5A",
" . c #292A44",
".. c #362847",
"X. c #2A3344",
"o. c #273A43",
"O. c #363A57",
"+. c #343551",
"@. c #002965",
"#. c #163A67",
"$. c #0F397C",
"%. c #0B3663",
"&. c #3E3D65",
"*. c #483647",
"=. c #443C53",
"-. c #563D5D",
";. c #64394F",
":. c #4B3D67",
">. c #563C65",
",. c #472F6A",
"<. c #194641",
"1. c #2F464C",
"2. c #364848",
"3. c #39574B",
"4. c #374257",
"5. c #345952",
"6. c #1C4678",
"7. c #1B5A61",
"8. c #37466B",
"9. c #3A4D77",
"0. c #2C506D",
"q. c #3D6770",
"w. c #444A47",
"e. c #52444B",
"r. c #4C534B",
"t. c #444F52",
"y. c #484957",
"u. c #584957",
"i. c #485657",
"p. c #575A56",
"a. c #555440",
"s. c #664854",
"d. c #67595E",
"f. c #6C5353",
"g. c #56675D",
"h. c #49735D",
"j. c #46466A",
"k. c #554260",
"l. c #5A496B",
"z. c #595769",
"x. c #474C75",
"c. c #59487B",
"v. c #4A557B",
"b. c #565375",
"n. c #47516A",
"m. c #765765",
"M. c #6B4E73",
"N. c #4C6669",
"B. c #586765",
"V. c #57736A",
"C. c #577573",
"Z. c #4A6673",
"A. c #69746D",
"S. c #677978",
"D. c #726F71",
"F. c #857F74",
"G. c #836779",
"H. c #5E897A",
"J. c #668478",
"K. c #7A857D",
"L. c #81847A",
"P. c #898579",
"I. c #184088",
"U. c #284D8D",
"Y. c #355698",
"T. c #314E8C",
"R. c #357797",
"E. c #385EA3",
"W. c #3B7BA1",
"Q. c #475482",
"!. c #425B93",
"~. c #57558B",
"^. c #765189",
"/. c #704F86",
"(. c #4E7094",
"). c #697C86",
"_. c #726E94",
"`. c #4F6FB4",
"'. c #6A7CB6",
"]. c #8A798A",
"[. c #368596",
"{. c #3E91A3",
"}. c #5B8A8A",
"|. c #54949A",
" X c #678584",
".X c #778787",
"XX c #7E998B",
"oX c #688A95",
"OX c #758B95",
"+X c #7B9794",
"@X c #6E9A8B",
"#X c #79A298",
"$X c #4985A5",
"%X c #4A99A0",
"&X c #669AA5",
"*X c #7898A4",
"=X c #6695B8",
"-X c #739BB5",
";X c #7389BA",
":X c #69AAB7",
">X c #7DA4B5",
",X c #69A6A7",
"<X c #7788C3",
"1X c #769DC6",
"2X c #6D96D4",
"3X c #6EA1C0",
"4X c #7BC6E3",
"5X c #838989",
"6X c #969A8D",
"7X c #898792",
"8X c #859796",
"9X c #8F948B",
"0X c #B59E9E",
"qX c #A69B9B",
"wX c #99A39D",
"eX c #A2A39D",
"rX c #8296A2",
"tX c #8A8DB2",
"yX c #8AA2A9",
"uX c #97AAA5",
"iX c #8CB2B8",
"pX c #A5A3A4",
"aX c #A4B6B1",
"sX c #BAB7BE",
"dX c #88A6C9",
"fX c #98A8C3",
"gX c #B0ABD2",
"hX c #8FB5EC",
"jX c #AFB8EA",
"kX c #8998CF",
"lX c #93C1DB",
"zX c #BFD0C8",
"xX c #94CAEE",
"cX c #AADAFF",
"vX c #A1CCF7",
"bX c #C8C5F4",
"nX c #EADCFF",
"mX c #DAF9FF",
"MX c #C0F1FF",
"NX c #E4F6FF",
/* pixels */
"l < z B B B r 3 3 7 - Z g.uXaX#XK.^ & t K r t t - & X . @ ",
"> X.J 2 5 r 3 r X + i.wXJ.3 X t ( 6XJ.& X K K t - - : : M ",
"o.O 4 G 2 3 V & 3.7X.Xx + R R X   $ P.zXV.& & - : p % o . ",
"O R 5 + B 5 V S..XT   c T 4 C t.~ w   i aXaX/ X X : f q . ",
"Z X 3 r 5 N.8Xi.> c H x c X...g Q ~ e.M   2.wXK.( q # d ~ ",
"r r = 2.+XB.l c c H  .Y  . .....N *.*.O.y.z , p.P.a.e # q ",
"X t S.8X2.O <  .X.H ' +.O.+.....k.....&.O.&. .O s A.F.d . ",
"t J.B.  O =.).n.n.v.v.j.&.,.>.,.l.c.x.x.Q.Q.9.n.@ o U L.eX",
"h.3.3 A y.=.:.+.x.{ v.Q.9._.tX]._.~.<X<XT.'.;X8.X.X.v 9 8X",
"h.3.5 E u.=.=.' g ` h [ tXbXjXnXjX<X`.`.`.E.(.T.+.+.c x .X",
"J.^ Z t.k.>.:.h ' #.} 1XjX~.g ' kXhXE.E.`.U.Y.!.0.8. .7 ).",
"@XV A z.>.>.~.h ` m 0.cX0.' n n @.jX2XI.E.I.Y.!.9.x.+.4 ).",
"#Xr J z.>.M.c.) | %.=XvXb m j.b h vXhX@.U.$.U.T.v.x.y.1 ).",
"#Xr X.b.>./.c.) ) b W.xX%.[ g j [ 1X1X] 6.@.#.~.c.l.u.@ 9X",
",XB X.M.c./.,.) $._ R.{.0.0.j b.Z.q.=X_ } ` [ _.b.l.s.# qX",
"@XC +.m.M.].,.) [ } 4X[.[.mXmXNXoXR.lX[ _ b { _.z.u.u.. 0X",
"8Xu ~ ;.;.M.>.> k K [.{.xXMXmXNXxX3X(.[ z > o.z.w.A./   K.",
"XX* M f.;.m.d.j.0.7.%X[.:XdXdXdX=X(.$X0.q.2.B.B./ g.P X J.",
"XXu N f.;.G.D.].#X|.:X%X:X1XtXtX-X=X-X+XyX.XK.B./ g.I & C.",
"J.D e ! ! G.].].yX&X,X,X>XfXfXfXdX>X>X*XyX8XK.A./ r.P = C.",
"8X/ D d.u.].G.7X XoX}.}.oX8XtX].OXoX)..X X5XK.L.E / S = V.",
"H.t   L 0 ! # I 7 D 3 V 7 9 N 0 4 Z 6 S 8 a a U a ; & 3 C.",
"}.3.= S 9 D.*.r.3.A.2.B.w.u.m.d.p.B.t.g.w.p.( ( :     6 .X",
"^ q.Z O o gXpXK.5XaXK.wXF.9X0X0XpXpX5XwXL.6XK.L.y     S +X",
"B C.C.2   L X.L * 8 8 X . % e e a a ; * 9 w 8 8   8 E 3.n.",
"5 B Z.OX1.    X i     w L # # q $   ; y o : 8   / r.i.2.l ",
"V V , G .XS.S +   L I $ $ d U : ; a ; ; a X * A.A.2.7 O 4 ",
"G z C 5 , N.8Xi.+   @ w s $ o : 8 8 / A   2.5Xi.x l 1 O O ",
"> o.V 5 V , 5 S.S.W .   X - ; u A 6   Z 8X8XR , O , 4 4 O ",
"4.> > o.V B C + t.S.B.a   - u = = 3 S.uX1.> 4 o.G 4 O O x ",
"< Y G < V V 5 5   O t.5XV.6 X 5 J oXZ.5 B 1.H > , l H x O ",
"1 c H k 2 r G C Z 7 + 7 3..X@XJ. XJ 4 B k < z C k < , < x "
};
