/* XPM */
static char *C_1[] = {
/* columns rows colors chars-per-pixel */
"32 32 234 2 ",
"   c #020201",
".  c #0C0400",
"X  c #020A02",
"o  c #01020C",
"O  c #030A0D",
"+  c #0A0B0D",
"@  c #0B0C03",
"#  c #120B05",
"$  c #051302",
"%  c #0B1402",
"&  c #081608",
"*  c #13150C",
"=  c #171806",
"-  c #000213",
";  c #030B13",
":  c #00021C",
">  c #010B1B",
",  c #0D0C14",
"<  c #130D14",
"1  c #051212",
"2  c #0C1414",
"3  c #05121C",
"4  c #0B131B",
"5  c #0C191B",
"6  c #061C18",
"7  c #151213",
"8  c #121B13",
"9  c #19191C",
"0  c #261E17",
"q  c #0C2205",
"w  c #17240A",
"e  c #1B251D",
"r  c #182617",
"t  c #27240E",
"y  c #262518",
"u  c #263615",
"i  c #333017",
"p  c #010222",
"a  c #030A24",
"s  c #00042C",
"d  c #020A2B",
"f  c #0B0925",
"g  c #011223",
"h  c #0B1222",
"j  c #02152D",
"k  c #0B1A2C",
"l  c #091927",
"z  c #141C23",
"x  c #171926",
"c  c #000233",
"v  c #030B32",
"b  c #00023C",
"n  c #080D3A",
"m  c #091637",
"M  c #171A38",
"N  c #110F24",
"B  c #211C26",
"V  c #221A3F",
"C  c #0B2427",
"Z  c #1D2824",
"A  c #15222B",
"S  c #172828",
"D  c #17352B",
"F  c #0C2231",
"G  c #152534",
"H  c #1A2738",
"J  c #14333B",
"K  c #25282B",
"L  c #263427",
"P  c #272A38",
"I  c #273638",
"U  c #373536",
"Y  c #363128",
"T  c #443E32",
"R  c #3E423B",
"E  c #2B4836",
"W  c #45412C",
"Q  c #40502B",
"!  c #665A26",
"~  c #021341",
"^  c #00144B",
"/  c #091847",
"(  c #1A1842",
")  c #001555",
"_  c #001C5D",
"`  c #091D54",
"'  c #000B4D",
"]  c #261E43",
"[  c #0A2443",
"{  c #1B2442",
"}  c #1A2848",
"|  c #0C2253",
" . c #052457",
".. c #172B5A",
"X. c #1A3257",
"o. c #173446",
"O. c #272A48",
"+. c #2A3848",
"@. c #353849",
"#. c #242752",
"$. c #273758",
"%. c #373956",
"&. c #322B55",
"*. c #001A62",
"=. c #001A6A",
"-. c #022261",
";. c #032868",
":. c #122B6A",
">. c #173668",
",. c #052A73",
"<. c #193876",
"1. c #0C3872",
"2. c #283866",
"3. c #343C64",
"4. c #233A79",
"5. c #473D61",
"6. c #264758",
"7. c #3B515B",
"8. c #17447B",
"9. c #244264",
"0. c #364668",
"q. c #2C5169",
"w. c #294976",
"e. c #365B77",
"r. c #3B4E78",
"t. c #3E626A",
"y. c #3E617F",
"u. c #464A4A",
"i. c #535945",
"p. c #434857",
"a. c #4D575D",
"s. c #585B59",
"d. c #4B534A",
"f. c #596851",
"g. c #65675B",
"h. c #74745C",
"j. c #444A6A",
"k. c #455662",
"l. c #535969",
"z. c #434672",
"x. c #495573",
"c. c #575B77",
"v. c #57686B",
"b. c #586479",
"n. c #567066",
"m. c #686B64",
"M. c #697767",
"N. c #78776B",
"B. c #656978",
"V. c #6E7878",
"C. c #777776",
"Z. c #847B7E",
"A. c #7C8C29",
"S. c #74836A",
"D. c #76867D",
"F. c #688476",
"G. c #9CAB2E",
"H. c #AABE4D",
"J. c #888367",
"K. c #919678",
"L. c #A59D78",
"P. c #9DAB79",
"I. c #98A369",
"U. c #B0A77C",
"Y. c #C1BA70",
"T. c #BAC75B",
"R. c #BFCD7A",
"E. c #C4D958",
"W. c #CBC97C",
"Q. c #0B3581",
"!. c #133C83",
"~. c #174290",
"^. c #3E5888",
"/. c #32508F",
"(. c #3E6787",
"). c #585A86",
"_. c #5A668A",
"`. c #546590",
"'. c #636C8A",
"]. c #6A6B85",
"[. c #6A788A",
"{. c #747987",
"}. c #6A6D9D",
"|. c #697498",
" X c #7D7A95",
".X c #6F74A0",
"XX c #778984",
"oX c #718986",
"OX c #7884A6",
"+X c #7586B1",
"@X c #828D83",
"#X c #949985",
"$X c #999C95",
"%X c #8A9392",
"&X c #9EAB92",
"*X c #ABB68F",
"=X c #B1A699",
"-X c #B1B397",
";X c #ACA993",
":X c #979AB8",
">X c #8D93B1",
",X c #9EA4B4",
"<X c #B9BAAB",
"1X c #A9A9BA",
"2X c #ADB5BA",
"3X c #BBBEB4",
"4X c #ACB0A9",
"5X c #C3B88A",
"6X c #C3BBB8",
"7X c #B4C49D",
"8X c #B4C7B6",
"9X c #BAD3BD",
"0X c #D3CE95",
"qX c #D0E193",
"wX c #C0C6B8",
"eX c #96A9CB",
"rX c #A9BADC",
"tX c #B0B8C6",
"yX c #B4B8E5",
"uX c #BACEC4",
"iX c #BDC6E3",
"pX c #C6C7C9",
"aX c #D3D5D8",
"sX c #CFD6D0",
"dX c #CBE4D0",
"fX c #CFD9E9",
"gX c #D3DDE2",
"hX c #CEDEFF",
"jX c #D2E4E7",
"kX c #DBE4FF",
"lX c #E8EDFF",
"zX c #F5FFFF",
"xX c #F5F2FF",
"cX c #E5F2F8",
/* pixels */
"[ j g 3 1 % y t . # = # < < ; X q q X %   x o < < # * 8 O } s ` ",
"j > J l O U . = Y i i 0 Y P O.I u u u R P U B K *   t $ 5 g } / ",
"F 3 F 1 2 y Y h.=XK.Z.C.XX{.{.oXD.D.F.XX]. X%X2Xh.= % % e o } a ",
"F j ; 5 9 . =X=X0 .     o - : > ; a p v : : M U <Xh.  w & & 3 g ",
"3 z , K 7 Y 6Xu.# . o < h g v G ~ X...3.2.v 4   M.*Xu q % w 1 C ",
"2 z , x   pXZ..   o o : > a m [  .<.:.>.2.p l   $ P.P.$ $ $ r & ",
"9 0 # . s.pXU , < x N p m %.r.r.~./.:.....a v.n.X f.7XR $   8   ",
". K # # aXl.o f : d : : m _.+X+X4./.4.>.$.g oXoXq $ S.K.$ 8 2 e ",
"# Y   C.3X- f : d v s s 3.:X0.3.>.>.| 9.o.O oXoX$ D $ 8Xa.O 2 + ",
"i   T aXp.> #.v m ~ / n { |.x.OX`.(.X.q.7.C F.n.X n.5 u.4X; 7 + ",
"t   $XpX- m 0.~ | c n n / '.x.'._.x.J l D 1 n.n.6 +.k.o 1XC.  * ",
"  f.8X+.g X.X.m ^ b  ./ %.>Xc.l.[.[.k.D C X 7.v.+.j b.G d.9Xt X ",
"w 3XD.O 6.9. . ._ :./.| 2.'.p.5.'.B.l.H 6 o F l $.0.G a.y P.I.% ",
"F.4XC D q.w.;. .) _ w.X.eXzXlXxX1X].{.@.P P b.0.m 0.} P i.P.R.A.",
"8Xn.$ t.q.8.8.1.!.*.^ ~ yXfXB.B. X5.].@.- H OX_.v s x.E I.qXT.T.",
"9XE C 6.e. ./.;.,._ ;.2.hX1Xz B @.] :X].> M .X`.c M v.%X*XR.T.G.",
"dXD D 6.(.1.1.Q.!.) ) w.rXzXgXgX1XP c.c.} m `..X~ v P N.*X0XW.Y.",
"7XF.$ t.e.1.Q.,.=.!.-. .eXtX[.aX2Xp.B.].} s `..Xp O.x * J.U.0XY.",
"F.9X6 J y.8.<.;.Q.=.) ^ X.b.%XzXB.H c.].$.v |.:X: P , @ T L.5X! ",
"q dXXXo e.q.<.;.=.<.:.b X.iXxX>Xj.%.b.c.H : 0.%.H 2 o y # ;XJ.. ",
"$ f.jXE j w.>.;.) ;.' z.kXlX X%.j.c.'.j.k : @.O u.  @ . W U.W . ",
"u X 8XuX- X... .4.b ' >XyX).5.].z.c.j.O.M A oXu.Z   r   6XZ.. 0 ",
"L X 7.jXk.j ..| ' ` 2.2.s ( >X].}.}.3.{ z ; D.m.X   y g.3XU   0 ",
"% Q X %XjX- } } ( ~ c ( 5.( 5.c.}.).&.( k   M.S.w $ . sXu.o B , ",
"$ e 2 Z cXv.: { v s v n M V ] &.5.3.0.@.o 8 g.#X= X #X%XX K : V ",
"r e & X v.gX6.: k p : : : f ] &.:.#.#.P O   w i X i.-XR + o M : ",
"2 Z 2 2 X aX%Xo o o : f f p f M #.#.( H K *     @ -XS.  ; o @.d ",
"3 A 1 H 5 7.aXs., O ; z N f : : s c : o 2     = J.<X9 @ ; h G M ",
"G l 1 A K   8XpXI 7     o - - : : N : o < < 0 d.6Xm.  9 , h > k ",
"G > G A 5 6 L @X&X@XV.B.{.{.{.].c.B.B.v.m.s.N.$Xg.  9 , 4 > k l ",
"j p } A ; L X 8 & % O 8 9 2 o - > ; 4 N +   < 7 # . x X 3 3 G A ",
"m j g 3 O 5 L w & % $ & O O 3 x A o , x < < 7 . 7 B   5 O z O l "
};
