/* XPM */
static char *C_1[] = {
/* columns rows colors chars-per-pixel */
"32 32 234 2 ",
"   c #010201",
".  c #0D0301",
"X  c #010A02",
"o  c #0A0B02",
"O  c #01030C",
"+  c #040B0B",
"@  c #0B0C0E",
"#  c #130C06",
"$  c #041301",
"%  c #0E1403",
"&  c #0B140E",
"*  c #081708",
"=  c #131305",
"-  c #171908",
";  c #010213",
":  c #020C14",
">  c #01021C",
",  c #010C1B",
"<  c #0A0B18",
"1  c #130C14",
"2  c #041313",
"3  c #0B1316",
"4  c #04141C",
"5  c #0C151C",
"6  c #031A1B",
"7  c #0B1A1A",
"8  c #121B14",
"9  c #1C1C1E",
"0  c #161718",
"q  c #231C08",
"w  c #211A12",
"e  c #172207",
"r  c #192717",
"t  c #0C240F",
"y  c #233609",
"u  c #272715",
"i  c #322C1B",
"p  c #263316",
"a  c #3E331F",
"s  c #010323",
"d  c #020B23",
"f  c #00032B",
"g  c #080A28",
"h  c #021423",
"j  c #0B132B",
"k  c #021B2D",
"l  c #0B1D29",
"z  c #091825",
"x  c #131D24",
"c  c #1B1C25",
"v  c #181829",
"b  c #000133",
"n  c #020B35",
"m  c #00003B",
"M  c #010D3C",
"N  c #0F0E36",
"B  c #03123D",
"V  c #091934",
"C  c #161938",
"Z  c #201A3E",
"A  c #0B2626",
"S  c #14232B",
"D  c #1A2928",
"F  c #092536",
"G  c #1B233C",
"H  c #172837",
"J  c #2D2A23",
"K  c #242727",
"L  c #343229",
"P  c #282B37",
"I  c #312B33",
"U  c #273536",
"Y  c #363635",
"T  c #2A342A",
"R  c #473C31",
"E  c #3D463B",
"W  c #344A2F",
"Q  c #48432F",
"!  c #635723",
"~  c #4F603C",
"^  c #000C49",
"/  c #02144C",
"(  c #071947",
")  c #001A5C",
"_  c #011755",
"`  c #0F1249",
"'  c #221C42",
"]  c #0C2646",
"[  c #152244",
"{  c #1B264A",
"}  c #062557",
"|  c #192A5B",
" . c #1B335D",
".. c #1B3244",
"X. c #242B49",
"o. c #372C4C",
"O. c #2B3646",
"+. c #353546",
"@. c #2D2B55",
"#. c #26295A",
"$. c #283859",
"%. c #333755",
"&. c #001965",
"*. c #022461",
"=. c #012A6C",
"-. c #052965",
";. c #0A3765",
":. c #193668",
">. c #07387B",
",. c #193774",
"<. c #142B6C",
"1. c #293F67",
"2. c #343D65",
"3. c #213E76",
"4. c #443E58",
"5. c #483E63",
"6. c #1E404A",
"7. c #3C444A",
"8. c #264558",
"9. c #374659",
"0. c #3A5252",
"q. c #16437A",
"w. c #264967",
"e. c #3D4B6C",
"r. c #364667",
"t. c #325273",
"y. c #454B4B",
"u. c #545A44",
"i. c #464A56",
"p. c #4B565A",
"a. c #56575A",
"s. c #534E52",
"d. c #645F59",
"f. c #5A6555",
"g. c #48635E",
"h. c #6D695A",
"j. c #69745A",
"k. c #494A68",
"l. c #545C6A",
"z. c #444674",
"x. c #4C5878",
"c. c #535C73",
"v. c #585D7C",
"b. c #495965",
"n. c #59646B",
"m. c #586178",
"M. c #5B7376",
"N. c #546B65",
"B. c #686A66",
"V. c #6A7866",
"C. c #7A776B",
"Z. c #65697A",
"A. c #667A77",
"S. c #777576",
"D. c #7C8C29",
"F. c #688279",
"G. c #73857C",
"H. c #798871",
"J. c #9CAB2E",
"K. c #AABE4D",
"L. c #82827C",
"P. c #8B9978",
"I. c #939A7E",
"U. c #8F876D",
"Y. c #A59D78",
"T. c #98A778",
"R. c #98A369",
"E. c #B8AE7A",
"W. c #BAC75B",
"Q. c #BFCD7A",
"!. c #C4D958",
"~. c #C4C26B",
"^. c #083E86",
"/. c #263F81",
"(. c #0C428C",
"). c #315292",
"_. c #366181",
"`. c #585D86",
"'. c #425E86",
"]. c #605982",
"[. c #5A6786",
"{. c #5C6492",
"}. c #4E658F",
"|. c #666B85",
" X c #716A89",
".X c #697687",
"XX c #767C87",
"oX c #686E99",
"OX c #6B7596",
"+X c #7B7A97",
"@X c #726A91",
"#X c #6C74A3",
"$X c #6D6DA1",
"%X c #847E98",
"&X c #768687",
"*X c #728B83",
"=X c #7784B2",
"-X c #7B89AB",
";X c #989B94",
":X c #8E8F94",
">X c #A79D93",
",X c #9DA788",
"<X c #A9A498",
"1X c #B3AA93",
"2X c #ADB59A",
"3X c #B4BA93",
"4X c #9394AF",
"5X c #A49EBA",
"6X c #9FA1AD",
"7X c #A8B6A7",
"8X c #A6A9BB",
"9X c #A9B7B9",
"0X c #B6B7B6",
"qX c #B9B8AA",
"wX c #C2B789",
"eX c #C2BCBE",
"rX c #B7C6B5",
"tX c #B9D1BB",
"yX c #D4D090",
"uX c #D0E193",
"iX c #C0C3BB",
"pX c #98A8CA",
"aX c #ADBACF",
"sX c #B0B9E1",
"dX c #BAC2C5",
"fX c #C6D7C3",
"gX c #CAD5D8",
"hX c #D0CFD0",
"jX c #CDE0CA",
"kX c #DCDCE5",
"lX c #CBD1EC",
"zX c #D5E1FF",
"xX c #E5ECF9",
"cX c #F7F9FF",
/* pixels */
"] k h z 2 % q q . # # # @ + : X e * X *   v O 1 # . = & O C f / ",
"k d H x + T   # R i i i I P ..U y y p E K +.c I -   e   2 d F ^ ",
"F , F 2 & w i h.1XI.C.S.&XXX&X&XF.G.A.&X|.+X:X0XB.- % $ 8 O [ g ",
"F k : 7 9   <X>Xw . .   O O > > O , > s > > C Y 2Xh.X e * X : : ",
"3 S < K 1 J 0XR #   O 0 j d k [ B  .| 2.#.f ,   j.,Xy $ $ t X 7 ",
"3 c 3 c   eXS..     O > > d V ] } ,.<.,.| s 4   X T.T.$ $ X 8 X ",
"0 K 1   s.eXI O 1 v j s V %.e.t./.).,.|  .> n.g.X ~ 3XW $   &   ",
". i . 1 kXa.O < > g > s C [.-X=X,.).,.<.8.h *X*X$ $ V.P.$ 8 & 8 ",
"# L   S.0X; g > s f s f 2.4Xz.e.:.:.} 8.F + F.G.$ r * 0Xa.+ 3 @ ",
"i   Y hX7.> X.n n M ( B [ OXx.-X}.'.w.w.8.6 F.A.X N.7 y.9XX 1 @ ",
"u   ;XdX; V w.( ( b n n ` oXc.OX[.x...A A $ g.M.h 6.b.O 9XS.  - ",
"  f.rXU , {  .( ^ m _ ( 1.4XZ.c.OXOXb.D 6 X 0.M.O.k m.H y.rXu X ",
"r rXF.+ 6.w.} } _ -.).[ $.|.i.4.Z.Z.n.K : O l l $.e.G b.p T.R.% ",
"H.7XA F 8.q.-.-.^ _ 3.| aXcXcXcXpX%XXX7.x S m.e.V r.{ H u.T.~.D.",
"rXN.$ g.w.q.q.;.>.) / ^ sXlXS.Z.%X5. Xo.; V +XoXb f m.W P.uXW.W.",
"rXW A 6.t.} ).-.=.) -.1.zXpXv P o.o.8X|.> d OX{.n V b.,X3XQ.W.J.",
"jXp A 6._.;.>.^.^.^ / q.aXcXkXkX6XI v.v.C n {.#XB g P S.3XyXyX~.",
"tXF.$ g.t.;.>.>.&.^.) } pXaX%XhXaXi..X|.[ f }.=Xs P x - U.E.yXE.",
"V.tX2 F t.q.>.=.^.) ^ / 1.|.4XcXZ.H m.|.{ n OXpX> P O o Q Y.wX! ",
"% fXG.$ w.q.,.=.&.=.*.b { lXcX6Xb.%.|.m.C > 9.9.G : + J - 1XU.. ",
"X f.jXH d w.;.*._ &.m e.zXxX%X4.k.v. Xk.h > O.: 7.  X o R 1XQ . ",
"r X 9XrX: ] } } <.m ^ =XsX].5.@Xz.`.x.X.j z XXs.8   -   eXh.. q ",
"p X E gX9.d ] ] ^ / #.#.f ' 4X@X$X$X5.[ z O G.V.X   e h.0XL   1 ",
"X E X *XgX> [ { ( M f m @.' 5.].$X{.@.G 5   V.H.% X . hXy.  v < ",
"$ r * D xXn.; C f f f N C C ' o.'.2.z.%.O 8 h.,X% X I.:Xo K > C ",
"r K 2 X p.gXO.; j g > > s g Z %.#.{ X.G +   - p X u.2XE @ O C > ",
"2 D 2 2   gX:XO ; ; ; g s s g C ' ' C v c o     X 1XC.  @ ; +.> ",
"6 S 2 D 3 7.hXi.1 ; O < 1 s > > s b > ; +     = H.qXe + : < C V ",
"H z , S D   0X0XT 1   O O O : > s j ; O @ # w y.qXB.  c 3 z ; j ",
"F , H l 4 + K L.>X:XB.B.A..XZ.|.c.m.Z.l.n.a.S.>Xd.  r @ 5 , z h ",
"k h H A O D   = = o o 0 x 3 O ; , : 3 v O . 1 0 .   c   5 4 S l ",
"F k k : X 3 u = = % = & 2 + 4 l S O : 0 @ 1 0 . 1 w   5 : x ; 4 "
};
