/* XPM */
static char *C_2[] = {
/* columns rows colors chars-per-pixel */
"32 32 240 2 ",
"   c #010202",
".  c #0C0301",
"X  c #010B02",
"o  c #0B0C03",
"O  c #01030C",
"+  c #010A0C",
"@  c #090B0D",
"#  c #0D0709",
"$  c #140A04",
"%  c #041504",
"&  c #0C1B05",
"*  c #01140A",
"=  c #0B120C",
"-  c #0A1200",
";  c #131300",
":  c #181A09",
">  c #010313",
",  c #020C13",
"<  c #0B0B13",
"1  c #01031C",
"2  c #030B1B",
"3  c #0B0D1B",
"4  c #090318",
"5  c #110312",
"6  c #120916",
"7  c #011313",
"8  c #0A1112",
"9  c #04141C",
"0  c #0A151B",
"q  c #071A19",
"w  c #141C1A",
"e  c #151716",
"r  c #241703",
"t  c #221719",
"y  c #311F1F",
"u  c #1E2508",
"i  c #182518",
"p  c #152D10",
"a  c #34340E",
"s  c #262718",
"d  c #312D13",
"f  c #010323",
"g  c #030A23",
"h  c #0A0C23",
"j  c #02032B",
"k  c #000C2C",
"l  c #0C092C",
"z  c #16092B",
"x  c #021524",
"c  c #021C22",
"v  c #0C1A21",
"b  c #01122B",
"n  c #0A122C",
"m  c #091A29",
"M  c #131D24",
"N  c #1B1922",
"B  c #171628",
"V  c #000335",
"C  c #050A38",
"Z  c #041837",
"A  c #151739",
"S  c #261B28",
"D  c #271439",
"F  c #042225",
"G  c #0B2126",
"H  c #0C222C",
"J  c #0C292B",
"K  c #1A2222",
"L  c #1C232B",
"P  c #162528",
"I  c #0C293C",
"U  c #172A34",
"Y  c #1A3433",
"T  c #143329",
"R  c #2C2A25",
"E  c #242529",
"W  c #332D28",
"Q  c #373529",
"!  c #222A36",
"~  c #293836",
"^  c #383A35",
"/  c #2C312A",
"(  c #32492E",
")  c #7B751F",
"_  c #4B4838",
"`  c #525632",
"'  c #000D49",
"]  c #011E4D",
"[  c #071646",
"{  c #1A1649",
"}  c #000956",
"|  c #001455",
" . c #140D41",
".. c #231854",
"X. c #0B264B",
"o. c #032345",
"O. c #192549",
"+. c #1B394C",
"@. c #0A2755",
"#. c #182458",
"$. c #17375B",
"%. c #0A305D",
"&. c #272B47",
"*. c #2B3648",
"=. c #353C4A",
"-. c #2A295B",
";. c #243657",
":. c #333658",
">. c #001965",
",. c #001E78",
"<. c #000B67",
"1. c #0C2B63",
"2. c #012864",
"3. c #162E68",
"4. c #073265",
"5. c #19376A",
"6. c #032B79",
"7. c #073777",
"8. c #1C3B7B",
"9. c #1C2B70",
"0. c #262C66",
"q. c #373863",
"w. c #2B3A71",
"e. c #443954",
"r. c #42346F",
"t. c #37464E",
"y. c #2A4953",
"u. c #314250",
"i. c #164164",
"p. c #2A4866",
"a. c #374768",
"s. c #3C5775",
"d. c #2D526B",
"f. c #3C6060",
"g. c #494F42",
"h. c #565646",
"j. c #434C55",
"k. c #485A57",
"l. c #555855",
"z. c #4C5A41",
"x. c #526556",
"c. c #707750",
"v. c #434A68",
"b. c #435365",
"n. c #5B5D66",
"m. c #494D7A",
"M. c #5B5B7B",
"N. c #585876",
"B. c #4C5475",
"V. c #685D7F",
"C. c #566566",
"Z. c #5A6576",
"A. c #496465",
"S. c #636969",
"D. c #716E68",
"F. c #767768",
"G. c #666974",
"H. c #687579",
"J. c #737476",
"K. c #787A73",
"L. c #837D55",
"P. c #857F73",
"I. c #738473",
"U. c #B9B23D",
"Y. c #A59A4A",
"T. c #BDBB56",
"R. c #888B7B",
"E. c #86967C",
"W. c #B4AD71",
"Q. c #8EA475",
"!. c #C2BB73",
"~. c #B4C07E",
"^. c #D3CC6B",
"/. c #E1DA6F",
"(. c #002985",
"). c #013393",
"_. c #0C3C90",
"`. c #2A3D88",
"'. c #134599",
"]. c #14438B",
"[. c #2F4F8C",
"{. c #1F52A1",
"}. c #585B87",
"|. c #4A4986",
" X c #655A87",
".X c #596588",
"XX c #4F6B91",
"oX c #636486",
"OX c #637C87",
"+X c #777B87",
"@X c #6B699B",
"#X c #677494",
"$X c #767999",
"%X c #71649A",
"&X c #7577A9",
"*X c #6B75A6",
"=X c #778388",
"-X c #77829A",
";X c #6D898A",
":X c #7D87B2",
">X c #888788",
",X c #999A89",
"<X c #9B9F9C",
"1X c #8D9291",
"2X c #97AC8D",
"3X c #A4A195",
"4X c #A8B397",
"5X c #B6B899",
"6X c #8182B7",
"7X c #8A94A9",
"8X c #9DABB1",
"9X c #A9A8A6",
"0X c #BBBDB6",
"qX c #ADB3AE",
"wX c #BEC6B1",
"eX c #DCD999",
"rX c #CBC490",
"tX c #C6C8B4",
"yX c #C8C3A7",
"uX c #DEE8A1",
"iX c #9197CA",
"pX c #A39DC1",
"aX c #99A0CC",
"sX c #A6A7D7",
"dX c #AAAEC4",
"fX c #AEB0E0",
"gX c #BAC9C6",
"hX c #B0C1DD",
"jX c #C4C5C6",
"kX c #C7CCD8",
"lX c #D3D9D5",
"zX c #DCF2C3",
"xX c #DAE6D7",
"cX c #D0E3C5",
"vX c #D4D7E3",
"bX c #CDD7F2",
"nX c #DEF0F3",
"mX c #EBEBF8",
"MX c #F5F9FD",
"NX c #EBEEF1",
/* pixels */
"[ o.Z * X * 7 O @ 6 . . a Y.^.U./.^.) ; $ . $ e B l j Z A Z k k ",
"k k b J T * X K O S S _ W.eX^.T./.T.^.W.` $ $ t B B n n n b g 1 ",
"b x + X i % X e + L 1XjXR.c.W.uXeXrXc.L.yX3XR     < 3 > O , 0 P ",
"O E s   o ; - i =XjX+X7 e x.I.2X5Xh.d t t R.0X>X@ 8 = 8 w K = X ",
"y $ . . : : ` tXgXv > d.y.I f.;Xj.e.4 O w e ^ 0X0Xg.X u u   X u ",
"$ y r . a 5X5Xz.X *.a.y.s.p.+.s.-.f l &.4       h.yX5Xu   s Q   ",
"r $ r 5XyXc.u % ( Y y.y.o.] ] ' V { C 1 > > X i X u F.tX,X:   o ",
"$ t R.,Xs X & p * q m ;.p.X.V ' 0.V C :.=.M = & s X X h.,XD.R . ",
". ^ <Xw X X k.8X2X1X;X-X1 m.6XiX:XsXaXa.q H.F.1X,X_   . / 1XD O ",
"O ! -X, > + T A.f.f.*.=.h V. Xe.a.B.b.U 9 H.k.l.g.i   O B +Xz z ",
", Y OX2 Z b Z I > 2 , O O z D 6 > 2 2 O O w     8 + O 4 4 M.z z ",
"7 Y OXb $.$.@.X.+.f.t.3 z 6 z D U *.u.~ P U P L h v 4 h 4 N.f z ",
"% T OXg $.5.3.3.$.;.I B :.e.e. XN.Z.H.Z.b.*.! A *.&.h h h G.1 2 ",
"% s H.1 @.9.8.`.@.d.p.Z.+X7X$XpXG.Z.N.Z.$X}. X:.v.:.g 2 4 G.< + ",
"; a K.> { 9.`.`.1.XXXX*XB.#Xa.q.&.:.&.&.}.m.&X}.q.:.n > + C.% & ",
"o a F.O [ 0.`.[.w.XXa.XX#XbX&X*.kXkX8X}.N.0.&X@X0.q.A x   x.% & ",
"X ^ K.> { -.|.aXw.&X&Xv.n.mXS.^ NX9XNXkXe. XsX|...-.A 1 O l.* q ",
"X ~ OX> A #.w.6X&X&XoXM.V.MXK.i xX9X+XvXdXm.%Xr...{ j f > C.* % ",
"o ~ G.O n Z O.m.&X|..X$XG.MXmXvXMXdXn.dXmX@X .{  .l f h O Z.i % ",
"o R J.O B g f C O.[ -.a.{ #X7XfX7X}.s.-.aXfXC q. .l 1 z O C.i X ",
"o R K.  < > > 1 j j j [ 0.5.C ] 4.@.3.V #.*XC C l f 1 6 O n.e @ ",
"= R K.      h 9 1 Z j ] [.[.| 2.| 6.| ' C V C f 1 h O O @ S.@ < ",
"$ W 1Xe     w 0 > b k C ' | <.,.<.(.} 6.2.V ;.b > N O   ~ >XO 6 ",
". Q 9XW o   = X 9 x X.1.| >.'.6.).).(.>.2.] k m O L   O l.9X5 e ",
"# t D.9XF.    i 7 c Z o.2.6.6.(.(.).).7.4.%.O.H v X   >X0XJ.B O ",
"S     h.0XtXl.  8 x X.$.4.2.).{.'.'.'.i.%.I Z H   S.lXjXn.    B ",
"@ K w X R F.3X3XN , f +.p.5.%.i.[.7.%.5.$.I c v qXqX=X~ 8 M L 3 ",
"  w L w   6 l.1XjXG.0 > X.p.d.d.i.[.XX$.2 , OXnX7Xx.9   v ! M O ",
"P + O M E e 6 6 l.jXkXj.* J y.+.y.y.* + A.nXgXt.0 + 9 L P , , G ",
"J J G 9 4 < N t 5 6 D.lXqXp % ( T % ( wXxXC.9 P P w 9 , 9 G G c ",
"q F H H L D B 5 E S . : E.xX4Xp ( 4XcX=X/ & K K , L Y U G F c 7 ",
"F q c m h 4 6 S 5 t t - - ` 2XzXuXQ.( & - e w 0 L 0 9 G F c F T "
};
