/* XPM */
static char *C_2[] = {
/* columns rows colors chars-per-pixel */
"32 32 245 2 ",
"   c #010302",
".  c #0C0200",
"X  c #020B02",
"o  c #0A0B04",
"O  c #02020B",
"+  c #020A0C",
"@  c #0B0C0C",
"#  c #0C050E",
"$  c #041403",
"%  c #0D1402",
"&  c #01150B",
"*  c #0B1906",
"=  c #171507",
"-  c #010313",
";  c #010C14",
":  c #0A0B12",
">  c #01031B",
",  c #030B1D",
"<  c #0A0D1C",
"1  c #0B0217",
"2  c #130916",
"3  c #021314",
"4  c #0A1314",
"5  c #03131C",
"6  c #0D141D",
"7  c #011A1D",
"8  c #0B1C18",
"9  c #121B15",
"0  c #121C1C",
"q  c #181617",
"w  c #150707",
"e  c #251918",
"r  c #261605",
"t  c #18230E",
"y  c #18251A",
"u  c #112C14",
"i  c #262609",
"p  c #3A2A07",
"a  c #35340F",
"s  c #252717",
"d  c #302E1C",
"f  c #010223",
"g  c #030A24",
"h  c #0A0C24",
"j  c #02012C",
"k  c #000B2B",
"l  c #0B0729",
"z  c #140928",
"x  c #021424",
"c  c #0E1325",
"v  c #051C22",
"b  c #02152C",
"n  c #091928",
"m  c #141425",
"M  c #1A1C25",
"N  c #181826",
"B  c #000133",
"V  c #000C3E",
"C  c #0B093A",
"Z  c #070C33",
"A  c #051937",
"S  c #111333",
"D  c #181638",
"F  c #120F3C",
"G  c #271D29",
"H  c #2B193B",
"J  c #20072E",
"K  c #092328",
"L  c #1A2323",
"P  c #13242B",
"I  c #1A242B",
"U  c #182727",
"Y  c #0A293B",
"T  c #152936",
"R  c #18342B",
"E  c #2A2C25",
"W  c #272B29",
"Q  c #372C29",
"!  c #2D3628",
"~  c #363A28",
"^  c #212B37",
"/  c #253335",
"(  c #343736",
")  c #312C30",
"_  c #403A16",
"`  c #4C362B",
"'  c #34441D",
"]  c #3A542D",
"[  c #254231",
"{  c #384028",
"}  c #494938",
"|  c #554E3C",
" . c #645D33",
".. c #77711B",
"X. c #180F44",
"o. c #051848",
"O. c #161645",
"+. c #001255",
"@. c #051D54",
"#. c #1C1851",
"$. c #000A56",
"%. c #271D59",
"&. c #05244B",
"*. c #162549",
"=. c #1A374A",
"-. c #0B2958",
";. c #17345A",
":. c #0F3157",
">. c #252A47",
",. c #2C3649",
"<. c #363A49",
"1. c #222456",
"2. c #253758",
"3. c #373857",
"4. c #302E5F",
"5. c #001768",
"6. c #001F7F",
"7. c #042764",
"8. c #1C2F68",
"9. c #173669",
"0. c #00247C",
"q. c #032B73",
"w. c #0C3677",
"e. c #193A7B",
"r. c #122F6C",
"t. c #262C66",
"y. c #263967",
"u. c #363964",
"i. c #313C76",
"p. c #413651",
"a. c #41366B",
"s. c #28434A",
"d. c #35444B",
"f. c #284757",
"g. c #3A4555",
"h. c #3A5751",
"j. c #1C426F",
"k. c #274766",
"l. c #38466D",
"z. c #3B5774",
"x. c #32526A",
"c. c #535A48",
"v. c #424C58",
"b. c #495B58",
"n. c #525353",
"m. c #56625A",
"M. c #57624F",
"N. c #737A53",
"B. c #434A6A",
"V. c #525A6D",
"C. c #5A5E66",
"Z. c #484D7A",
"A. c #4A5A74",
"S. c #57597A",
"D. c #49526D",
"F. c #64597B",
"G. c #586668",
"H. c #596A73",
"J. c #4B6667",
"K. c #636A66",
"L. c #77786D",
"P. c #666A74",
"I. c #6A7678",
"U. c #767976",
"Y. c #69726A",
"T. c #847E56",
"R. c #827F78",
"E. c #6E8865",
"W. c #B3AC37",
"Q. c #A69B4B",
"!. c #B7B358",
"~. c #868E7B",
"^. c #838F76",
"/. c #B8BB7D",
"(. c #AEA77D",
"). c #8DA374",
"_. c #C5BF5D",
"`. c #C0B971",
"'. c #D4CE6D",
"]. c #E1DA6F",
"[. c #002584",
"{. c #08368E",
"}. c #003392",
"|. c #0B358D",
" X c #2B3D88",
".X c #124497",
"XX c #14438B",
"oX c #32488E",
"OX c #294D8F",
"+X c #2350A1",
"@X c #4E548C",
"#X c #635C84",
"$X c #566489",
"%X c #5B718E",
"&X c #4A6890",
"*X c #64648A",
"=X c #667A88",
"-X c #797A87",
";X c #696897",
":X c #747999",
">X c #6B7394",
",X c #7579A9",
"<X c #7677B0",
"1X c #768387",
"2X c #76829A",
"3X c #6B8788",
"4X c #7882B4",
"5X c #898989",
"6X c #92968A",
"7X c #9C9E98",
"8X c #8D9091",
"9X c #95AF8E",
"0X c #A8A797",
"qX c #B8BC9B",
"wX c #AEB098",
"eX c #8081B6",
"rX c #8C9CBC",
"tX c #8F97AD",
"yX c #9FA4BC",
"uX c #9EB5AB",
"iX c #A6A9A6",
"pX c #AEB8B1",
"aX c #C5BEA4",
"sX c #BDC3A7",
"dX c #BCC1B6",
"fX c #DDD99A",
"gX c #C7C08C",
"hX c #DCE69F",
"jX c #D3D3B6",
"kX c #C6C9B2",
"lX c #8F92CE",
"zX c #9AA3CE",
"xX c #B1B0C8",
"cX c #AFB1E1",
"vX c #B8C8D0",
"bX c #C3C7C7",
"nX c #C5CBD8",
"mX c #CDD5D4",
"MX c #D6EBCD",
"NX c #CDD3E6",
"BX c #D7E7EB",
"VX c #E9EBF9",
"CX c #E8F6FD",
"ZX c #F3FAFC",
"AX c #E9EEE7",
/* pixels */
"&.&.Y 5 + & & O # q w . p Q._.W.]._...r . . = q z f f Z F A k k ",
"A A v T R & X L O G G } (.fX'.!.].!././. .r = ) N z k c n b f > ",
"A S 3 & t $   9 O M 8XbX^.N./.hXfXgXT.T.aX0XE   O ; < ; O 3 c U ",
"O ( ! X % t % y U.vX-X4 t M.E.9XwX| i r d R.pX5X@ @ @ 4 y W 9 X ",
"Q e . r i i | dXvXL O x.f.Y h.3Xv.p.- O G 4 ( kXpX} X = y X X ! ",
"r ` p . _ gXsXM.X s.x.f.z.k.:.l.u.f S <.<   X O c.sXqXi   d } o ",
"Q . i aXjXN.i $ h./ f.k.&.Y o.o.B #.Z f - + X s % i ^.jX0Xs   = ",
"e Q 6XwXd X u u & & n =.2.&.o.X.t.B B 3.3.0 X * { X . M.7XL.! w ",
". ( 7X0 X X b.uX8X2X3X3X> Z.eXrX4XzXrXl.; I.Y.~.6X|   . ) 8XJ # ",
"O ^ 1X; - O R J.J.J.d.g.h F.#Xa.B.A.D.T n I.m.m.c.L   O N -Xz z ",
"3 T =Xg A x A Y - 7 3 O # H X.z , x x O O U O   + + O - 1 F.l J ",
"& T 3Xb ;.;.:.&.2.J.g.c 2 J J H ^ ,.g./ I / I I < c > h 1 S.f S ",
"$ R =Xx ;.8.r.r.:.2.Y c 3.p.p.F.V.H.H.V.v.>.T S ,.>.h h g P.> > ",
"$ s I.> -.8. X X&.k.2.A.-X:X;XyXV.H.V.S.>XS.#X1.l.3.g > < P.: + ",
"% a L.- O.r. XoX-.&X&X%XA.%Xl.4.>.,.>.>.S.Z.<X$Xu.3.b ; + K.* $ ",
"o a L.O O.8. X Xe.%Xl.%X>XNX2X2.nXNXyXF.S.4.<X;Xt.u.D , X m.$ * ",
". ~ -X- >.%.@XlXt.<X,XB.G.VXK.( AXpXVXNX3.#XcX@X%.%.F g O G.& * ",
"  ( I.- F #.i.eX<X,X$XS.H.ZXU.9 MXiX-XmXxXa.;Xa.#.X.j g O G.8 & ",
"o ) P.O S S *.Z.<X@X$X:X*XZXCXBXCXxXV.yXVX;XX.X.X.j f h - G.8 $ ",
"o ! U.O m h f Z 1.A 2.l.*.>XeXvXrX$XB.4.zXcXC u.J j f z O G.y X ",
"o W U.O ; ; - > g j j &.t.9.B @.9.-.y.B 8.<Xo.D l g - < O C.9 + ",
"o W U.    O 6 5 g A j @.&XoX+.q.7.XX7.@.o.o.*.> > h O O # K.# # ",
"X W 6X=     0 3 ; b Z V $.$.5.0.5.}.$.|.r.V y.S - N O O ( 5XO # ",
"  ( iX! o   *   n x *.8.+.5.+X0.}.}.[.5.7.@.x b O W O # n.iX# 2 ",
"  0 Y.pXL.X   ( 5 v A o.7.q.0.0.[.}.{.q.7.:.=.n I O # 5XxXU.N # ",
"L   O c.sXbXK.X 4 5 *.;.r.7.{.+X.X.X.Xj.:.A b K   I.MXbXK.  O N ",
"4 L 0 X E U.0XiXM O g =.k.9.7.w.OXj.7.j.j.Y x v pXpX1X/ : N I < ",
"+ 0 U 9   % n.5XbXP.c - Y k.x.x.j.OX&Xf., 5 3XBXtXb.4   0 / P + ",
"T + O 0 W 2 O # n.bXnXn.& K f.[ f.s.7 + H.CXvXd.4 + 3 I P ; ; P ",
"P I 6 ; O O 2 q # 2 P.mXuXu $ ] u $ [ vXMXG.3 0 K 6 ; O 5 K K v ",
"3 v n m m G J # ) e   t E.AXqXu ] 9XMX^.! 9 L M ; M R P v K 7 & ",
"5 3 x c 1 1 2 G # q e * u ] ).MXMX).' $ X % 9 9 I 5 ; 7 v 7 K K "
};
