/* XPM */
static char *C_3[] = {
/* columns rows colors chars-per-pixel */
"32 32 238 2 ",
"   c #010302",
".  c #0B0200",
"X  c #020A01",
"o  c #0B0B02",
"O  c #00030B",
"+  c #010A0B",
"@  c #0A0B0C",
"#  c #0A050D",
"$  c #120200",
"%  c #130B02",
"&  c #150C09",
"*  c #190A09",
"=  c #031302",
"-  c #0B1303",
";  c #03150B",
":  c #0B160A",
">  c #171807",
",  c #010314",
"<  c #020B13",
"1  c #01021A",
"2  c #0B041D",
"3  c #010C1B",
"4  c #0B0A18",
"5  c #140817",
"6  c #041115",
"7  c #0C1413",
"8  c #0C1A13",
"9  c #03141C",
"0  c #0B131C",
"q  c #061C19",
"w  c #141C13",
"e  c #1A1C13",
"r  c #14151A",
"t  c #171619",
"y  c #221701",
"u  c #241D1A",
"i  c #250F02",
"p  c #092017",
"a  c #182314",
"s  c #1E240A",
"d  c #242507",
"f  c #26281A",
"g  c #333015",
"h  c #000122",
"j  c #010C23",
"k  c #0A0C23",
"l  c #00032B",
"z  c #020B2B",
"x  c #080E28",
"c  c #110D29",
"v  c #021424",
"b  c #021A23",
"n  c #0B1C24",
"m  c #02132B",
"M  c #011A2B",
"N  c #0B1628",
"B  c #151828",
"V  c #000232",
"C  c #030D33",
"Z  c #03073A",
"A  c #081837",
"S  c #181A36",
"D  c #231C37",
"F  c #241628",
"G  c #022325",
"H  c #082229",
"J  c #1B2424",
"K  c #1C252C",
"L  c #14252B",
"P  c #0A2737",
"I  c #1B2639",
"U  c #1C3434",
"Y  c #1E312D",
"T  c #252B24",
"R  c #27282A",
"E  c #283624",
"W  c #282738",
"Q  c #322C39",
"!  c #2B3333",
"~  c #273639",
"^  c #332E2C",
"/  c #453C2E",
"(  c #394838",
")  c #3B4F2A",
"_  c #53522D",
"`  c #000849",
"'  c #011546",
"]  c #001448",
"[  c #051A47",
"{  c #001C5D",
"}  c #071A51",
"|  c #00095A",
" . c #231D41",
".. c #0C2842",
"X. c #162348",
"o. c #1A384A",
"O. c #08275A",
"+. c #1B2A55",
"@. c #193658",
"#. c #222442",
"$. c #262847",
"%. c #2B324A",
"&. c #36374D",
"*. c #252955",
"=. c #293856",
"-. c #363859",
";. c #302E55",
":. c #001466",
">. c #052863",
",. c #122B64",
"<. c #093269",
"1. c #193765",
"2. c #012874",
"3. c #05337A",
"4. c #1A3771",
"5. c #2A3866",
"6. c #363C65",
"7. c #213C7F",
"8. c #443B4B",
"9. c #1E4349",
"0. c #29444A",
"q. c #3C5443",
"w. c #22455C",
"e. c #3B4757",
"r. c #3C535B",
"t. c #3F4F4F",
"y. c #1B4464",
"u. c #27496A",
"i. c #294575",
"p. c #36487C",
"a. c #345379",
"s. c #374E6D",
"d. c #4C4949",
"f. c #4A594C",
"g. c #545447",
"h. c #424D5A",
"j. c #48575A",
"k. c #545B59",
"l. c #554952",
"z. c #635E4D",
"x. c #58695A",
"c. c #646557",
"v. c #67735C",
"b. c #524C69",
"n. c #4B576A",
"m. c #545866",
"M. c #495378",
"N. c #555676",
"B. c #4A4C65",
"V. c #675E7B",
"C. c #5A6975",
"Z. c #54696D",
"A. c #636A69",
"S. c #666774",
"D. c #797976",
"F. c #687279",
"G. c #8C7F31",
"H. c #827C7E",
"J. c #7E875C",
"K. c #758475",
"L. c #938E30",
"P. c #8A8455",
"I. c #BDB85C",
"U. c #888778",
"Y. c #848F73",
"T. c #86A174",
"R. c #B7B272",
"E. c #C2B856",
"W. c #C0BA7E",
"Q. c #CDC76B",
"!. c #E4D67E",
"~. c #E6E276",
"^. c #063385",
"/. c #0B3283",
"(. c #233A80",
"). c #164687",
"_. c #2A4486",
"`. c #2B5486",
"'. c #3E5897",
"]. c #3E4D84",
"[. c #3B6284",
"{. c #575C86",
"}. c #445B9F",
"|. c #5B638B",
" X c #596993",
".X c #686B8A",
"XX c #727A87",
"oX c #6C799C",
"OX c #737B96",
"+X c #6C6B98",
"@X c #576BA0",
"#X c #6A71A6",
"$X c #6E78AB",
"%X c #817E93",
"&X c #79878A",
"*X c #75889B",
"=X c #7F87B8",
"-X c #888A85",
";X c #8B9A8F",
":X c #959687",
">X c #919491",
",X c #A49C97",
"<X c #9EA69C",
"1X c #87A09A",
"2X c #A8B095",
"3X c #8489B8",
"4X c #8B94AA",
"5X c #99A9A6",
"6X c #9DA5B9",
"7X c #B3A9A3",
"8X c #ABB8AA",
"9X c #B9B9A6",
"0X c #AAA9B2",
"qX c #B2B5B4",
"wX c #A8AAA7",
"eX c #BBC48F",
"rX c #B7CBB5",
"tX c #C7C7AA",
"yX c #C7CDB3",
"uX c #D0CD8D",
"iX c #8692C9",
"pX c #A8B5C9",
"aX c #A7BAD6",
"sX c #B3BDCE",
"dX c #BBC3C4",
"fX c #BBC1D1",
"gX c #C4D6C3",
"hX c #C7C8D3",
"jX c #C8D3D9",
"kX c #D5D7DB",
"lX c #CECDC9",
"zX c #D0E0DD",
"xX c #C9D8E1",
"cX c #D0D3F3",
"vX c #D9E3F1",
"bX c #DBE0E6",
"nX c #F2FCFF",
"mX c #E3E9F6",
/* pixels */
"3 v 8 = X > d . . O 1 2 # X X = X + X X o o o > > e   ~ v z ..A ",
"M O 8 a = d   f 8.Q W W W T E E Y U ~ ! T > u f f   J + v M ..P ",
"X., 6 : - = d :XH.S.b.b.m.k.f.f.t.h.j.f.f.A.-XqXH.T J 6 L v ..m ",
"A B + X - X 9X,Xf 5 O , , O X   O O O O O   > ^ qXwXO B I 3 P v ",
"h I k w o _ tXs o   O , k k 0 r 3 , 2 4 4 O O   m.hXJ O n N n n ",
"z x < a - yXv.  o   O , S I #.$.B 1 , 1 4 c r B O >XsXO < Y + n ",
"S c O r c.9Xs - g.! < 4 #.-.6.6.-.S h 1 1 1 1 x , &.vXn.6 L + 8 ",
"k B 4 e kX( X g >Xg.7 1 #.s.6.6. .D  .$.S l l l S 1 &XpXr 8 w a ",
"c @ r D.,X  X f ;XA.O B X.6.+X$X+X;.c ;.l l +.[ =.1 A xXS.8 T X ",
"* . k.lX^ :   X K.x.O B %.N.#X+X%XV.;.;.Z l } l ] @.j n.xXE = a ",
"y $ 9XH.  O 0 J k.k.6 K -..X{.;.V.V.4XcXiX' ` 4.] ].z 1 jX&XX > ",
"y _ tX*   0 , B.9 9   L n.*X{.N.b.hXcXOX[ V ` { <.<.u.j 0.zX( X ",
"d W.P.> # &.1 %.OXr.+ ~ n.m.I B.kXbX6X .V >.3.3.).3.`.9.< 5X<Xa ",
"L.Q.P.g t B z l 4Xe.+ ~ C.F.h.fXhXH.B.6.,.} ` 2.^.y.<.a.o.L dXv.",
"~.E.Q.z.l.1 *.Z aXn.9 ~ A.Z.&.hXkXjXcX$X[ >.2.2.3.).<.a.r.; ;XrX",
"Q.Q.uXyXF.-.l *.oX%., ! A.C.~ dXqXqXnXaXO.} { ^.^.).).[.P U ( gX",
"I.Q.eXT.*X@.[ } 3XN.2 5 S.0X%.Y e o mXfX] ` 3.^.^./.`.y.9.= x.rX",
"~.W.eXK.9.{.V [ %Xb.5 F l.*Xn.6XqX>XnX*X} { | :.^.2.<.u.9.X 2XT.",
"G.uXJ.q.P u.1.[ 6.*.2 F 8.+X|.fXbXkXvX{.p.}.2././.{ O.u.p 0.rX) ",
". R.J.p r.w.a.@. . .# c ;.OX X.Xe.n.OXC O.,.` { >.,.1.M q rXJ.= ",
"  g tXE U Z.P o.{.e.1 1 $. X@X}.|.n.OX6.+.O.] } ' u...1 F.rXa X ",
"> . U.;XX 0.9.b 4Xe., =.5.i.}.#X3XM.{.*.Z V C z j =., B zXh.o w ",
"% e : 8Xt.; j.; 1Xr., M.p.,.(.}.#X|.|.` h h A N 3 B O &X0X& 5 u ",
"o t X A.rX; ; ; 1Xr.1 =.1.4._.(._.$XiXX.C 1 < 0 0 O R kXQ F # B ",
", O r   8XK.X ( 5Xr.P ..<.u._._.iX#X5.C 1 , < @ o o 7XD.O F B F ",
"3 B + X g.9Xf X ( G G @.1.i.i.4.].6.X.A c 0 @ . O c.,Xd.  r D 2 ",
"m M 6 X   R.Y.X X X 9 @.@.@.+.X.' A C k < O     u 9Xz.t t < R 1 ",
"A , J @   / 9Xc.: + M ..P A H m z C 3 , O   * * U.,X&   Q , n b ",
"M 3 6 e % . U.:X! q v G 3 6 6 O 3 3 , O . * ^ / ,Xd.  @ K 9 q H ",
"3 P O f . . g g.5X*X*X*X&X&X-XD.&X&X&X-X%X>X,X7Xg.. t r + H G G ",
"3 G O w . i $ i r 3 v b 6 8 > o : 8 8 7 : * * * * . R r + G G b ",
"M 3 q . i $ i $ @ < v v X X > o : ; ; - & & * * * 5 # ; H G p G "
};
