/* XPM */
static char *C_3[] = {
/* columns rows colors chars-per-pixel */
"32 32 236 2 ",
"   c #020202",
".  c #0D0100",
"X  c #020B02",
"o  c #0B0B01",
"O  c #01030B",
"+  c #010A0C",
"@  c #0A0A0C",
"#  c #0B0109",
"$  c #110200",
"%  c #120B09",
"&  c #041303",
"*  c #0C1404",
"=  c #071909",
"-  c #121204",
";  c #1C1500",
":  c #17180A",
">  c #010314",
",  c #020C14",
"<  c #0C0B12",
"1  c #01021B",
"2  c #020B1B",
"3  c #0B081A",
"4  c #160816",
"5  c #041215",
"6  c #0B1414",
"7  c #0C1A13",
"8  c #03141B",
"9  c #031B1B",
"0  c #09181A",
"q  c #141415",
"w  c #13131B",
"e  c #18141A",
"r  c #171B17",
"t  c #200B00",
"y  c #241A03",
"u  c #261E1B",
"i  c #192107",
"p  c #01221C",
"a  c #072516",
"s  c #192614",
"d  c #272909",
"f  c #22211B",
"g  c #282B1F",
"h  c #35341B",
"j  c #303014",
"k  c #000323",
"l  c #00032B",
"z  c #020B2C",
"x  c #070B24",
"c  c #130626",
"v  c #011424",
"b  c #0E1124",
"n  c #031A24",
"m  c #0B1B23",
"M  c #00142A",
"N  c #001A2B",
"B  c #0B162C",
"V  c #1B1B2B",
"C  c #161726",
"Z  c #000233",
"A  c #030C33",
"S  c #02083B",
"D  c #0D1535",
"F  c #0E1E34",
"G  c #061738",
"H  c #181B37",
"J  c #241826",
"K  c #241C3B",
"L  c #092422",
"P  c #1A242C",
"I  c #122A2A",
"U  c #192327",
"Y  c #082638",
"T  c #1C273A",
"R  c #14353A",
"E  c #272828",
"W  c #263527",
"Q  c #272836",
"!  c #332B36",
"~  c #2B3534",
"^  c #28373A",
"/  c #37392C",
"(  c #3B4A37",
")  c #484932",
"_  c #615A2E",
"`  c #001346",
"'  c #021A49",
"]  c #071649",
"[  c #000F56",
"{  c #031B57",
"}  c #0B174A",
"|  c #072448",
" . c #162449",
".. c #193847",
"X. c #072658",
"o. c #182B58",
"O. c #1B3858",
"+. c #0F3043",
"@. c #212442",
"#. c #262847",
"$. c #2B3248",
"%. c #262B55",
"&. c #2B3753",
"*. c #363857",
"=. c #33324D",
"-. c #052B67",
";. c #142E64",
":. c #193767",
">. c #002B76",
",. c #03337C",
"<. c #0A377B",
"1. c #1F387D",
"2. c #093464",
"3. c #283766",
"4. c #353C66",
"5. c #213F77",
"6. c #2B356D",
"7. c #463B41",
"8. c #1E434A",
"9. c #2A454A",
"0. c #3C5345",
"q. c #24435C",
"w. c #394656",
"e. c #3D565A",
"r. c #1B4464",
"t. c #264568",
"y. c #394366",
"u. c #354A7A",
"i. c #33557A",
"p. c #2D4D71",
"a. c #4D474A",
"s. c #4A5A4C",
"d. c #555648",
"f. c #464A59",
"g. c #495759",
"h. c #575353",
"j. c #625D5A",
"k. c #57685B",
"l. c #68725D",
"z. c #666454",
"x. c #4A486A",
"c. c #564E62",
"v. c #4C5567",
"b. c #545668",
"n. c #485479",
"m. c #505275",
"M. c #645D77",
"N. c #5C686B",
"B. c #4B6572",
"V. c #516075",
"C. c #646865",
"Z. c #686A73",
"A. c #677376",
"S. c #78787B",
"D. c #6D7568",
"F. c #8C7F31",
"G. c #827C7E",
"H. c #7E875C",
"J. c #748371",
"K. c #959032",
"L. c #8C8657",
"P. c #BFBA5E",
"I. c #87877D",
"U. c #898D73",
"Y. c #86A07D",
"T. c #B8B372",
"R. c #C2B856",
"E. c #CBC66D",
"W. c #D2CC6D",
"Q. c #E4D67E",
"!. c #E8E478",
"~. c #063783",
"^. c #173E81",
"/. c #2A3F80",
"(. c #154685",
"). c #304E86",
"_. c #3B6285",
"`. c #555C87",
"'. c #455C98",
"]. c #586997",
"[. c #59668B",
"{. c #666B9B",
"}. c #6B7799",
"|. c #76769A",
" X c #696F8A",
".X c #5F75B1",
"XX c #616BA4",
"oX c #767AAA",
"OX c #7B8887",
"+X c #768697",
"@X c #6F8592",
"#X c #7984B0",
"$X c #858784",
"%X c #8B988B",
"&X c #979989",
"*X c #869799",
"=X c #908A92",
"-X c #A39A9B",
";X c #9EAC9D",
":X c #A5A596",
">X c #A0BA9F",
",X c #8E8AAB",
"<X c #8598A7",
"1X c #9397B0",
"2X c #AA9EA2",
"3X c #97ADA6",
"4X c #9CA7B9",
"5X c #B3A8AA",
"6X c #B3B9A8",
"7X c #B3B4B4",
"8X c #A9AEAC",
"9X c #C2BC80",
"0X c #C1BBAB",
"qX c #BBC48F",
"wX c #BEC3AD",
"eX c #B7CBB6",
"rX c #C8C7AB",
"tX c #CDD2B7",
"yX c #D1CE8E",
"uX c #8A96CC",
"iX c #9EACC9",
"pX c #B8BFC9",
"aX c #A9B9D6",
"sX c #ADBAC3",
"dX c #C4BFD3",
"fX c #B9C5C8",
"gX c #C3D4C3",
"hX c #C8CBD3",
"jX c #C8D3D8",
"kX c #D5D7DB",
"lX c #D0CFCB",
"zX c #D0E0DD",
"xX c #D3D5E8",
"cX c #CBD7E9",
"vX c #DAE3F4",
"bX c #E9F0FA",
/* pixels */
"v m 7 & X i j :   > 3 3 >   & & & + + & & X o - : r   ^ v z Y G ",
"F > 7 s * d   / 7.! K ! ~ E j W W R ^ ~ f r s g g   U 5 n M | G ",
" .O , = * - h :XS.Z.c.c.c.g.s.s.g.f.g.g.h.D.&X7XG.E U , P v Y N ",
"F H + X *   rX6XE 4 > > O +     O O O       f ! 7X5X  U T 2 Y v ",
"k T 6 r * ) tXh X   O > x 2 3 w 2 > 3 b w O     C.hXE + m 9 m n ",
"D B , U * tXL.X *   O > H Q  .#.B 1 > 1 b C V V O *XpXO 5 P + L ",
"@.x O q C.wXW d d.E , 3 #.*.4.4.=.H k 1 1 1 k b > *.vXg.5 I   7 ",
"c V < r kX)   ( &Xh.6 2 #.y.4.4.K K K #.H Z l l D 1 |.sX0 7 r r ",
"C < e S.-X  X g %Xk.  V @.y.{.oX|.7.c *.S l %.} &.k F cXA.7 W   ",
"% . j.lX~ q   X D.N.+ P =.`.{.{.,X`.%.%.} S o.Z ` O.k B.jXW X i ",
"y . 0XI.  O 6 U g.g.0 T w.[.n.*.c.M.,XcXuX} ` 5.` ).z > jXOXX : ",
"; _ rX-   w > v., 0   P b.|.`.m.c.dXxX|.} S [ -.-.:.t.z 9.zX( X ",
"d T.L.y # *.1 &. Xg., ^ B.b.H x.xXvX2X .Z ;.(.<.(.>.i.r., 3X;X: ",
"K.W.L.h e V z z <Xe.O ( A.Z.x.pXhX Xx.4.:.{ [ ~.,.r.2.p.O.I eXl.",
"!.R.9Xz.a.1 %.S iXv.9 $.N.N.^ fXxXjXvX}.| >.,.,.,.(.2.).B.& %XeX",
"W.W.yXtXS.y.l %.{.&.> ^ A.N.^ pX7X7XbXaX;.X.>.~.~.~.p._.Y R 0.fX",
"P.E.qXJ.<XO.' } ,Xm.3 4 Z.5X$.J r   bXaX' [ <.~.>.(.).r.8.& k.eX",
"Q.E.qXJ..._.Z ' oXx.4 J c.+Xb.4X7X*XbX#X{ X.[ [ ,.>.2.p.8.& >XY.",
"K.yXH.0.Y p.3.' 6.#.c K x. X[.aXxXxXvXn.u.'.>.^.<.{ 2.q.p 0.eX( ",
"  T.L.a e.q.i.O.D K 1 c 7.|.].].w.v.|.A } ;.` X.X.X.&.N 9 fXl.& ",
"  j rX/ I B.Y ..m.w.1 k %.XX].].`.x.oX3.o.} ' | G t.Y > A.fXr X ",
";   U.%XX 9.8.n 1Xf.> *.4.4.)..X#Xx.`.%.A A G M z &.> C zXf.@ q ",
"o r = 8X0.5 g.& *Xw.> n.).;./.)..X`.`.} l k Y m , U O OX7X< q J ",
"o r   C.eX= = a *Xe.> q.;.<./.^.1.oX#X .A > 3 C 6 + E kX! J < e ",
"> O w   6X%XX s.3Xe.Y Y X.t.)./.uXXX3.A k > < @   # 8XS.  J e J ",
"1 P +   d.wX( X ( p n O.:.p.u.:.).4. .D b 6 <     z.-Xa.  e K 3 ",
"M B 5 o o :XU.X X + n O.:.O.O. .D G A x > O .   u 5Xz.r e < E , ",
"Y 2 U 6 $ ) rXl.= + N +.Y G F D M M 2 > O   4 t =X-X%   ~ + 0 v ",
"Y v 0 f ; . U.&X~ 0 v N 2 2 6 O , + + O # e ! 7.2Xa.  + P 5 9 L ",
"M +.X g $ $ h d.3X+X@X+X@XOXI.D.OXOXOX$X$X=X-X5Xa.# e C + L p p ",
"N R , f $ t $ $ w , v n 5 7 : * = = 7 7 % 4 4 4 4 # E w X p p p ",
"Y 8 E % y $ t $ < , v n   & ; - = & & o % 4 4 e 4 4 < 5 L p a p "
};
