/* XPM */
static char *E[] = {
/* columns rows colors chars-per-pixel */
"32 31 224 2 ",
"   c #010203",
".  c #040A05",
"X  c #00030B",
"o  c #020B0D",
"O  c #090B0E",
"+  c #0A040A",
"@  c #0B130D",
"#  c #05100A",
"$  c #13140D",
"%  c #010214",
"&  c #020C14",
"*  c #0C0A13",
"=  c #02011B",
"-  c #0A071C",
";  c #030F1A",
":  c #0B0D1A",
">  c #0A0615",
",  c #130E14",
"<  c #170D18",
"1  c #031216",
"2  c #0C1314",
"3  c #03131A",
"4  c #0B151C",
"5  c #03191E",
"6  c #0C1B1B",
"7  c #041A17",
"8  c #131414",
"9  c #131812",
"0  c #13141B",
"q  c #1A141B",
"w  c #151B1C",
"e  c #1A1A1B",
"r  c #1A1716",
"t  c #211A1D",
"y  c #0F221E",
"u  c #1D231F",
"i  c #22251C",
"p  c #24251A",
"a  c #0A0522",
"s  c #020A22",
"d  c #0C0C23",
"f  c #0B022C",
"g  c #0A0C2A",
"h  c #040428",
"j  c #120C24",
"k  c #110D2C",
"l  c #021523",
"z  c #0C1422",
"x  c #051924",
"c  c #0B1C23",
"v  c #061A2B",
"b  c #131322",
"n  c #131924",
"m  c #1B1C23",
"M  c #15142B",
"N  c #1A1A2B",
"B  c #0A0A36",
"V  c #130B36",
"C  c #0C1535",
"Z  c #0D1A34",
"A  c #0F173B",
"S  c #0A1739",
"D  c #161234",
"F  c #1C1A33",
"G  c #191636",
"H  c #231D25",
"J  c #221F2D",
"K  c #211E35",
"L  c #0E222B",
"P  c #0A2226",
"I  c #1C242A",
"U  c #1A2529",
"Y  c #0B2332",
"T  c #192734",
"R  c #232524",
"E  c #2C2C23",
"W  c #24242B",
"Q  c #2A262A",
"!  c #242A2C",
"~  c #2F292D",
"^  c #312A2B",
"/  c #34332B",
"(  c #292530",
")  c #2B2B32",
"_  c #2B2D3B",
"`  c #252A39",
"'  c #322B36",
"]  c #2B333B",
"[  c #3B3A36",
"{  c #34363A",
"}  c #3C3B3B",
"|  c #36363A",
" . c #3E4035",
".. c #0F1141",
"X. c #1B1443",
"o. c #1E174A",
"O. c #231A4B",
"+. c #1F274E",
"@. c #2B2C42",
"#. c #242649",
"$. c #312E4D",
"%. c #2D3245",
"&. c #3D3C44",
"*. c #3C3C4A",
"=. c #373546",
"-. c #292A57",
";. c #322C55",
":. c #3C3D51",
">. c #413D4C",
",. c #413C5C",
"<. c #453E6B",
"1. c #3D4349",
"2. c #3F4569",
"3. c #414244",
"4. c #43444C",
"5. c #4B4C4D",
"6. c #484946",
"7. c #544D49",
"8. c #4E504F",
"9. c #56544B",
"0. c #4B4C53",
"q. c #464857",
"w. c #54545B",
"e. c #595E5D",
"r. c #555657",
"t. c #51485D",
"y. c #5D655A",
"u. c #69665C",
"i. c #746D5B",
"p. c #504E64",
"a. c #5D5D64",
"s. c #595967",
"d. c #555473",
"f. c #4C4D65",
"g. c #625F66",
"h. c #615E74",
"j. c #5C606F",
"k. c #5C6164",
"l. c #646665",
"z. c #6C6D6A",
"x. c #666769",
"c. c #736D66",
"v. c #79756A",
"b. c #646673",
"n. c #6C6D73",
"m. c #69697A",
"M. c #716D74",
"N. c #736D79",
"B. c #6F7571",
"V. c #727475",
"C. c #7B7C75",
"Z. c #797B7A",
"A. c #75767A",
"S. c #6D746C",
"D. c #82766C",
"F. c #807876",
"G. c #888477",
"H. c #948C79",
"J. c #95937D",
"K. c #6E7180",
"L. c #7A7987",
"P. c #6F6E8D",
"I. c #7F8085",
"U. c #7D81A7",
"Y. c #848887",
"T. c #978D86",
"R. c #8D9385",
"E. c #9A9A8A",
"W. c #898C96",
"Q. c #919593",
"!. c #9C9D9A",
"~. c #949799",
"^. c #8E9397",
"/. c #A79F8A",
"(. c #9FA09C",
"). c #A8A38B",
"_. c #ADAD93",
"`. c #A8A99B",
"'. c #B2A897",
"]. c #BCB49B",
"[. c #B8B599",
"{. c #8085AD",
"}. c #938EA2",
"|. c #979AA7",
" X c #9C99B1",
".X c #9CA0A1",
"XX c #A9AFA9",
"oX c #A3A7A7",
"OX c #B0A5A1",
"+X c #ACB4AC",
"@X c #A8AAB4",
"#X c #B3B5B4",
"$X c #B8BCB9",
"%X c #B5ACBD",
"&X c #C5B99F",
"*X c #C7BBA5",
"=X c #CBBCB8",
"-X c #B9C0B9",
";X c #C8C1A7",
":X c #D5C8AD",
">X c #C7C8B7",
",X c #D7D1B6",
"<X c #D9D9BF",
"1X c #D7CCB6",
"2X c #A5A6C4",
"3X c #BAB8C2",
"4X c #B2AECB",
"5X c #C7CDC8",
"6X c #CDD8CB",
"7X c #D5D8D6",
"8X c #D2D5C4",
"9X c #E3D9C4",
"0X c #DCE6DC",
"qX c #E3E5DA",
"wX c #F3E8DA",
"eX c #F6EDD1",
"rX c #E3E7E5",
"tX c #EBF2E9",
"yX c #FFFDE6",
"uX c #FBFAE9",
"iX c #E2E3FF",
"pX c #F2FAF1",
"aX c #FCFFFB",
"sX c #CDCBF0",
/* pixels */
"Y Y Y v x c c 2 6 .       .                 O 0 N S C S Z L c 7 ",
"v l l c L c 4 1   . 9 i p E / /  .[ ^ E p $ O X d C A Z Z x 5 y ",
"Y l l Y T c 3 1 o w ! / [ 6.u.F.c.u.9.7.6. .t < % g D S g 3 6 y ",
"Y l v Y c & & 4 X o m W Q } 9.l.C.v.i.i.i.9. .E & s g g z 5 6 6 ",
"x 3 x l % X & T n _ 4.w.s.x.N.h.T.T.H.D.D.9./ E j - h = z n 4 @ ",
"3 5 c ; & ; ` q.s.b.s.p.m.}.4X=XOX'.'./.H.D.7. .W d % % - c 2 # ",
"3 c 6 & 1 ] q.f.q.:.K - K h. X%X=X=X&X&XJ.J.D.7.) M = = % : 2 @ ",
"& 4 & X & ] 2.1.= a a = j ,.P.L.wX9X=X*X:XJ.D.7.' K a % % X @ 9 ",
"w X 4 ] _ ~.K.@.= % % = = f @.t.=XyX:X:X:X].D.z.=.' k = d %   U ",
"  4 ) 0.s.K.N X % % % % = f k j v.yXeX:X].*XG.r.>.K = % d X   @ ",
"  0 U 0.|.@X=.>.j d = % j F D - H.1X;XeX,X).G.!.>.,.p.P.d.T X X ",
"*     ! N.Y.W X > X X = % % % X OXeX;X;X[.*XE.V.h.2XsX4XP.@.& ; ",
"e   ~ >.g.L.0.X * X > N 0 % - 3.qXuX,X>X_._.G.w. XiXiXU.-.s & 3 ",
"*   0.5.6.A.~.N.q X X , * m a.#XuX9X_.<X[.E.(.-XP.2XU.+.h = s % ",
"+   m   + q >.r.L.V.n.Z.^.#XrXaX'.>X_._.R.>X5X|.%.2.-.S S A l & ",
"*   *   >.~ r 6.V.Q.@X$X7X7X%XZ.`.J.C.8X>X(.k.T +.+...B A h h l ",
"8   X e } r.8.k.e.Z.R.0XpXpX5XqXC.(.-XoXw.@.$.;.#.O.V <.O.D = D ",
"* O e 0 6.Q.oX+XXX-X+X0X0X6X6XpXtX#XY.a.p.d.<.X.o.O.V O.f D - a ",
"O O o   { (.Q.x.Q.R.S.-XpXpX0XXX6.i O > M $.;.V V X.f f = K j = ",
"    o   5..Xx.9 Z.I.B.XXtXR.y.      8 0 % a D V ..X.V f a F j % ",
"X o ! | B.~.e.R S.+X-XQ.z.  . . p u r 8 & j F g G V D g D j > X ",
"  X ) ! ! { y w !  . .y 9     9         X % a = = = a % - % : > ",
"X   1   . n w U w . 9 . 8 6.  $ $ u  .1.W K ( M @.@.@.% X X n : ",
"w o X X { W.^.Y.e.Y.5X(.l.(.v.7X7.8.u.Z.I.~.|.W. X@X}.n & X U X ",
"& X X 2 I 1.e.k.V.l.x.A.Z.z.l.c.Q [ 5.a.x.b.b.b.m.j.1.4 X o & o ",
"c 4 & X X   X & X                   + O O X X X : l 3 X X 1 1 1 ",
"& & 3 3 1 4 U ) W Q m q r t t r t , 2 0 q b 4 * X   X o 1 1 1 o ",
"& 3 5 3 1 & 4 w { &.| H H ~ Q r ' Q ( ' >.4.1.{ 4 3 3 1 1 1 1 1 ",
"c 5 3 3 3 2 & X 0 m H , < t q + < - > < b b % X & & o & 1 1 x P ",
"3 3 & x I T I m < m m H Q ' ^ H =.=.$.=.=._ N 4 X X & 5 7 5 7 5 ",
"x x 3 ; & X X X     + + < < < < + % % % X X X X ; & l L P 5 1 & "
};
