/* XPM */
static char *E[] = {
/* columns rows colors chars-per-pixel */
"32 32 71 1 ",
"  c #5D4C3D",
". c #614D3C",
"X c #655444",
"o c #685747",
"O c #6B5A46",
"+ c #63564A",
"@ c #665949",
"# c #6A5B4C",
"$ c #6A5F50",
"% c #6D6355",
"& c #6E6659",
"* c #6F685B",
"= c #716454",
"- c #756957",
"; c #716659",
": c #736A5D",
"> c #7A6E5D",
", c #756E61",
"< c #786E61",
"1 c #767164",
"2 c #7B7364",
"3 c #7C766A",
"4 c #7E796C",
"5 c #7F7C71",
"6 c #827559",
"7 c #807767",
"8 c #827A66",
"9 c #807669",
"0 c #817A6C",
"q c #827E72",
"w c #88806C",
"e c #938C6E",
"r c #858175",
"t c #898575",
"y c #8F8A75",
"u c #878478",
"i c #898679",
"p c #8C887B",
"a c #928D77",
"s c #928D79",
"d c #949076",
"f c #95927B",
"g c #99957B",
"h c #9E9A7E",
"j c #8E8C80",
"k c #979582",
"l c #9B9A82",
"z c #A19E81",
"x c #A3A285",
"c c #A8A685",
"v c #A9A885",
"b c #A6A68A",
"n c #AAAB8C",
"m c #AAAB90",
"M c #B1B696",
"N c #B6B996",
"B c #B8BA97",
"V c #B6BA9A",
"C c #BABD9A",
"Z c #BDC19D",
"A c #C6CCA4",
"S c #C9CFA7",
"D c #CBD3AB",
"F c #CFD8AF",
"G c #D3DCB2",
"H c #D7E2B7",
"J c #D9E5B9",
"K c #DCE9BD",
"L c #DFEDC0",
"P c #E1EFC2",
"I c #E2F0C3",
/* pixels */
"PPPPPPPPPPPPPPPPPPPPPPPPPPPPPPPP",
"PPPPPPPPPPPPPPPPPPPPPPPPPPPPPPPP",
"PPPPPPPPPPPPIPIIPPIIPPPPPPPPPPPP",
"PPPPPPPPPPPPFCBBBBAGPPPPPPPPPPPP",
"PPPPPPPPPIPJxrw49rtvJPPPPPPPPPPP",
"PPPPPPPPKGCvyuu42rtabCFKPPPPPPPP",
"PPPPPLKDns8>2ttrqrp8>8sMGPPPPPPP",
"PPPPLDms82007tppppp90r8whNDLPPPP",
"PPPKCkq80qr0>w50qqq25jjq80fVKIPP",
"PPJVp00qrrq:.#@Xo$;=5q55q99yCJPP",
"IKVp00quq:+...O$$=++$155qq99pVKI",
"KDs29qjq% X#**::<1,&,&$1qqq22fSK",
"nf7>,25; +&&&**:,;,,11,$<39928gb",
"uqq5552X@*&$@&&&;;&&$,1*$0qqrrrr",
"r535qq3X&**%*1,111,,$,11=3qiq90r",
"u4<qqu3X:1,%,1111321;,11;<qiq<8i",
"ppquuu2+111*13333331,,11%1qjqqpj",
"jppuq0-X133*13333343,11,$,93qjqq",
"32<;<q5<153,13333333,11:;34,=,92",
"292=;qrq5131,,,,1,,,,,,:500;;099",
"Zfq0$<uru41123353322,:25uq;o0ufC",
"PBtq:#<quu0,-><<1:1-2rurq,X=0uBP",
"PHxqq,=:rtur99q04422qiiq:#-30zGP",
"PPFkrr0>=1448tprurr300:$$<09gDPP",
"PPPDlrrr2$O#>ppq9ry>O@$2300gDLIP",
"PPPPGMs0rr2-9sprrpp2=2wr0rvGPIPP",
"PPPPPKDbr4427rq504r>-228cSKPPPPP",
"PPPPPPPKAnd9-:%%%%%-6evAKPPPPPPP",
"PPPPPPPPILJFZMMMMMMCFHKIPPPPPPPP",
"PPPPPPPPIILIIIIIIIIIIIIPPPPPPPPP",
"PPPPPPPPILILLILIILIIPPPPPPPPPPPP",
"PPPPPPPPILIIILILIIILPPPPPPPPPPPP"
};
