/* XPM */
static char *E[] = {
/* columns rows colors chars-per-pixel */
"32 31 227 2 ",
"   c #000302",
".  c #030905",
"X  c #090D04",
"o  c #00020C",
"O  c #030C0D",
"+  c #0A0806",
"@  c #0C110C",
"#  c #04100E",
"$  c #11130B",
"%  c #000213",
"&  c #030B13",
"*  c #01021C",
"=  c #03091B",
"-  c #0C1315",
";  c #03131B",
":  c #081817",
">  c #151916",
",  c #15211C",
"<  c #020224",
"1  c #030A24",
"2  c #04042B",
"3  c #0B0A2A",
"4  c #080927",
"5  c #0D1423",
"6  c #031C25",
"7  c #0A1C25",
"8  c #0C142B",
"9  c #051B2C",
"0  c #0A1C29",
"q  c #051229",
"w  c #121523",
"e  c #131C24",
"r  c #141A2C",
"t  c #060331",
"y  c #0A0634",
"u  c #0C0C3B",
"i  c #0C0937",
"p  c #140D3C",
"a  c #140A37",
"s  c #0C1C33",
"d  c #071D36",
"f  c #131432",
"g  c #131E34",
"h  c #1C1D36",
"j  c #15133C",
"k  c #161B3A",
"l  c #120F2E",
"z  c #042124",
"x  c #0D2225",
"c  c #04232D",
"v  c #0C232D",
"b  c #12242A",
"n  c #1B222C",
"m  c #14282E",
"M  c #192423",
"N  c #1D342E",
"B  c #042334",
"V  c #0B2334",
"C  c #042C34",
"Z  c #0A2339",
"A  c #0C2B3C",
"S  c #092938",
"D  c #132433",
"F  c #142934",
"G  c #14243B",
"H  c #112C3C",
"J  c #192C3B",
"K  c #1D2033",
"L  c #0E333C",
"P  c #1A313F",
"I  c #12313D",
"U  c #292C29",
"Y  c #29312E",
"T  c #39362E",
"R  c #242B35",
"E  c #27293B",
"W  c #292D3C",
"Q  c #252736",
"!  c #293639",
"~  c #343737",
"^  c #423F36",
"/  c #3B423C",
"(  c #0B0A47",
")  c #140D41",
"_  c #150C48",
"`  c #0D144B",
"'  c #131343",
"]  c #1A1C45",
"[  c #1B1152",
"{  c #161050",
"}  c #120F52",
"|  c #271C58",
" . c #0C2945",
".. c #092649",
"X. c #112B42",
"o. c #15204D",
"O. c #193544",
"+. c #1A344B",
"@. c #2A2D47",
"#. c #322A4B",
"$. c #353748",
"%. c #2B2656",
"&. c #32295A",
"*. c #383758",
"=. c #211A62",
"-. c #3C3762",
";. c #272066",
":. c #433B57",
">. c #403D48",
",. c #473D65",
"<. c #3C4748",
"1. c #3C4353",
"2. c #3E4851",
"3. c #36416E",
"4. c #48494A",
"5. c #4C544E",
"6. c #56564E",
"7. c #4A4D5B",
"8. c #474953",
"9. c #475456",
"0. c #545955",
"q. c #565D5E",
"w. c #555756",
"e. c #514C48",
"r. c #5D6059",
"t. c #62625D",
"y. c #484969",
"u. c #415161",
"i. c #5B5B6B",
"p. c #555865",
"a. c #4A4971",
"s. c #575775",
"d. c #4F5470",
"f. c #61586C",
"g. c #655E74",
"h. c #586463",
"j. c #5F6072",
"k. c #696B73",
"l. c #6D6B7B",
"z. c #616572",
"x. c #6B7578",
"c. c #757979",
"v. c #6B6D6F",
"b. c #7B8278",
"n. c #868A7C",
"m. c #5E6985",
"M. c #696A82",
"N. c #747383",
"B. c #7C7A84",
"V. c #6E7089",
"C. c #6862AA",
"Z. c #867B85",
"A. c #7A8687",
"S. c #7E8193",
"D. c #7A85A5",
"F. c #858889",
"G. c #87948D",
"H. c #949688",
"J. c #868993",
"K. c #8C9596",
"L. c #9B9C9C",
"P. c #979997",
"I. c #908D94",
"U. c #A29798",
"Y. c #99A29C",
"T. c #A9A99B",
"R. c #AEB497",
"E. c #B9B19E",
"W. c #979AA2",
"Q. c #9495AA",
"!. c #9AA3A2",
"~. c #9CA1AD",
"^. c #99ABAF",
"/. c #9BADB1",
"(. c #A5ABA9",
"). c #A4B4AB",
"_. c #ACB7A9",
"`. c #B7BAA9",
"'. c #A7AAB7",
"]. c #ACB7B4",
"[. c #B5BBBD",
"{. c #B9BBB7",
"}. c #BBC2BD",
"|. c #B7C3B6",
" X c #ACC1BA",
".X c #C7C59F",
"XX c #C8CAA9",
"oX c #D7D9AD",
"OX c #CACCB3",
"+X c #C7CEB4",
"@X c #CDD1B4",
"#X c #D5D7B9",
"$X c #DCE0BB",
"%X c #E2E5BA",
"&X c #99A6C9",
"*X c #A9B8C6",
"=X c #BABAC1",
"-X c #B2B5C6",
";X c #AAB9DA",
":X c #B5BAE0",
">X c #B8C7C3",
",X c #B5C2E2",
"<X c #C2CBC4",
"1X c #C2CDCA",
"2X c #CDD2C4",
"3X c #C6D6CC",
"4X c #CEDACC",
"5X c #D6D9C4",
"6X c #CED6D4",
"7X c #D6DCD7",
"8X c #CBC9DE",
"9X c #DEE3C9",
"0X c #DDE9DF",
"qX c #E5E9C8",
"wX c #E3E5DA",
"eX c #F0F2CD",
"rX c #DFEDED",
"tX c #D4E6F8",
"yX c #E7ECE7",
"uX c #E9F4E8",
"iX c #F8FBEA",
"pX c #E9F5F4",
"aX c #EDFBF2",
"sX c #ECFCFF",
"dX c #E7F6F3",
"fX c #F5FEFC",
"gX c #F7FFF8",
/* pixels */
"C C C L O.O.J ! 5 o     o o +     + + % o o : N x m S O.+. . ...",
"c L S L I P J D o w e ~ 8.4.0.e.6.e.>.:.:.Q # . m F G G X.X.....",
"C L B I H J F % o 2.8.w.c.c.H.U.T.n.B.c.g.g.7.+ & 7 J G d A o...",
"B A A B F F o b w o Q ~ 4.t.b.n.n.H.P.I.N.l.f.:.* * g G d S ....",
" .Z V P v O ; 7.8 Q J.F.c.P.H.R.R.R.(.L.P.Z.f.,.#.< * s D V B  .",
"V G V 0 & x 2.$.B.'.V.l.P.(.2X`.XXoX@X`.T.U.Z.f.,.p < 2 0 G V Z ",
"g G F & O R x.~.M.M.Q * >.Z.L.wX2X5XXXXXOXE.Z.l.:.| i < q 0 V z ",
"g 0 % ; - ! W.D * * t * 4 i.B.P.yXqXqXoX.XE.U.Z.,.&.u < 1 = 6 b ",
"r o n h.<.{.W.:.8 t p a k l N.k.wXiXqX%XoX.XT.I.a.&.u 2 q * & 7 ",
"& o w.t.F.W.Q 4 < 3 t 2 u 2 $.E _.iXeXeXoXXX`.K.p.y.2 2 2 8 % 5 ",
"- O w.c.<X[.i.p.f 2 2 y 2 < 3 % W.iX#XqX$X@X_.Y.x.7.d.D.V.f * = ",
">     . F.].Q 4 * < < 2 < 3 1 % }.iX#XqXqXOX(.L.^.tXtX,X:Xt l 4 ",
"> X 6.0.F.=XB.= % * * 4 5 % % ~ gXuX@XqX5X`.(.F.^.sXsX&X] u 4 = ",
"@   0.~ c.!.].J.5 o o o o - x.fXgXiX9X5X2XT.(.pX*X*X;Xo.u ( 3 % ",
">   M       l.(.(.P.!.].1XyXdXaX7X2X`.E.{.yXyX~.1.m.3.` ` u * o ",
"$     + 9.q.Y p.!.[.>XrXaXuX>X|.|._.(.7XyX].l.p.@.%.( } ` ) * % ",
"@   . - h.t.b.b.n.Y._.aXaXaX6XpX!.}.uX}.c.f.i.a.*.;.=.C.=._ < * ",
"@   . Y c.(.|. X|.4X|.0XfXdXrXfXfXrXK.k.B.N.V.,.&.| =.=.{ u < * ",
"@   . . 5.}. XR._.).).3XaXfXaX[.<.- n W #.*.&.| [ [ _ ( ) ] < % ",
"+ @ #   b.).A.z G.).G.|.rX<X5.    o o * * < p a _ [ [ _ ) j % % ",
"$   5.5.b. XA.2.). X3X3Xb.  +   O o E f 3 p a a ) p _ a i 4 = % ",
"+ X / / N h./ F <.h.b.#       +   o % = < < * 4 3 < < 2 4 1 * = ",
",     . . x b ! , : # N > ~ T Y U M j.$.g.h s.r :.7.$.* * 1 * 5 ",
"# O # . : >X>X).G.).4X|.L.6X=XyXF.L.~.-X'.8X=X=X=X7X'.% * 1 8 g ",
"x M - & > A.x.G.L.v.P.H.L.L.F.W.p.h.S.B.Q.Q.I.F.L.W.x.o q q g 8 ",
"6 z b v o .                 o %   & * % * * % o   + o o 8 D s 0 ",
"V c v F :   T 4.^ T T U $.W Q K W W k *.-.-.*.E w % o 5 0 v 0 x ",
"B Z ; 6 F O . / 6.6.r.6.4.4.7.8.1.@.-.s.-.a.s.#.* % 1 b b z z ; ",
"B B S c ; m -   Y t.>   O > % % K K k 2 j ] 3 4 < 1 8 q 9 6 6 z ",
"B c 9 c V z x M . ~ / 0.p.v.p.8.i.s.s.a.a.y.3 * q s k d Z V 6 z ",
"B B L L O.c b b b   O   O - o o o % % % = r = r D D d d d S B C "
};
