/* XPM */
static char *E[] = {
/* columns rows colors chars-per-pixel */
"32 31 221 2 ",
"   c #000302",
".  c #020B04",
"X  c #0A0E01",
"o  c #00020C",
"O  c #010A0B",
"+  c #090F0C",
"@  c #02110B",
"#  c #0D1208",
"$  c #12160A",
"%  c #000214",
"&  c #020C14",
"*  c #01021B",
"=  c #030A1E",
"-  c #0A0A1A",
";  c #041414",
":  c #091414",
">  c #02141B",
",  c #0C151C",
"<  c #071D18",
"1  c #12141A",
"2  c #141915",
"3  c #00201D",
"4  c #1D231C",
"5  c #15211B",
"6  c #010323",
"7  c #040A24",
"8  c #0B0924",
"9  c #05042B",
"0  c #08062C",
"q  c #0A0C2B",
"w  c #0A0721",
"e  c #0B1524",
"r  c #031C23",
"t  c #0A1C25",
"y  c #0C1C2D",
"u  c #041627",
"i  c #141C23",
"p  c #12142E",
"a  c #141C2D",
"s  c #181E2E",
"d  c #0D0933",
"f  c #020339",
"g  c #0C0C39",
"h  c #080833",
"j  c #120D34",
"k  c #0B1B33",
"l  c #071835",
"z  c #1B1D32",
"x  c #14143A",
"c  c #161737",
"v  c #032222",
"b  c #0B2224",
"n  c #02222B",
"m  c #0C232C",
"M  c #032D2D",
"N  c #0A2A2B",
"B  c #122324",
"V  c #16282D",
"C  c #192628",
"Z  c #1C362D",
"A  c #042332",
"S  c #0B2333",
"D  c #0B2A34",
"F  c #0E2A3D",
"G  c #062639",
"H  c #132434",
"J  c #1A2C35",
"K  c #182A36",
"L  c #0B3234",
"P  c #1A353D",
"I  c #143238",
"U  c #252A27",
"Y  c #2D322D",
"T  c #21302B",
"R  c #33352E",
"E  c #242A3B",
"W  c #262936",
"Q  c #293538",
"!  c #343937",
"~  c #3B433C",
"^  c #34413A",
"/  c #43453B",
"(  c #0A0E47",
")  c #150E43",
"_  c #120C4A",
"`  c #0B1245",
"'  c #121242",
"]  c #171947",
"[  c #1F1959",
"{  c #231D58",
"}  c #241F47",
"|  c #052242",
" . c #0B2744",
".. c #1A3644",
"X. c #2A274A",
"o. c #373949",
"O. c #292658",
"+. c #373757",
"@. c #322B57",
"#. c #2F3362",
"$. c #403F4D",
"%. c #453859",
"&. c #493F61",
"*. c #3E474A",
"=. c #3D4351",
"-. c #3A445D",
";. c #3D544E",
":. c #4D4E4B",
">. c #45474B",
",. c #4C534D",
"<. c #455147",
"1. c #51554E",
"2. c #55594D",
"3. c #464957",
"4. c #475459",
"5. c #565954",
"6. c #555D5C",
"7. c #595D5C",
"8. c #525552",
"9. c #59635D",
"0. c #61625B",
"q. c #454568",
"w. c #4B5868",
"e. c #595A68",
"r. c #545674",
"t. c #4D4D71",
"y. c #64586D",
"u. c #5C6361",
"i. c #5B666A",
"p. c #5B6375",
"a. c #656866",
"s. c #6C736D",
"d. c #6B6C73",
"f. c #676979",
"g. c #6C7375",
"h. c #6E747B",
"j. c #6B7A76",
"k. c #737873",
"l. c #73737C",
"z. c #7C7E7C",
"x. c #79777A",
"c. c #747176",
"v. c #867C7D",
"b. c #78837A",
"n. c #84887A",
"m. c #787A85",
"M. c #6A718E",
"N. c #6967A8",
"B. c #867A86",
"V. c #7D8889",
"C. c #7B8599",
"Z. c #868B8C",
"A. c #848687",
"S. c #8C938D",
"D. c #83928C",
"F. c #959988",
"G. c #878B95",
"H. c #899595",
"J. c #999C94",
"K. c #9A9E9C",
"L. c #969696",
"P. c #A39C94",
"I. c #98A39A",
"U. c #A3AC9A",
"Y. c #A9A897",
"T. c #ACB49A",
"R. c #B5B79D",
"E. c #979BA4",
"W. c #9BA3A1",
"Q. c #9EABA2",
"!. c #9EA5AB",
"~. c #9EB2B2",
"^. c #A5ACA9",
"/. c #A5B4AC",
"(. c #A8B6A8",
"). c #B4BCAA",
"_. c #B5BBA9",
"`. c #A7A9B7",
"'. c #ACB9B5",
"]. c #BABDBD",
"[. c #B3B9B7",
"{. c #AFC2B9",
"}. c #BBC5BB",
"|. c #B7C2B6",
" X c #C1C39C",
".X c #C4C8A7",
"XX c #D1D7AB",
"oX c #C4CDB4",
"OX c #C4CCBD",
"+X c #C0C5BF",
"@X c #CBD4B8",
"#X c #D3DABB",
"$X c #DAE1B8",
"%X c #98A7C6",
"&X c #A8BAC3",
"*X c #BABEC7",
"=X c #AFBAD8",
"-X c #BECCC6",
";X c #B4C4DD",
":X c #C3CBC3",
">X c #C4D6CB",
",X c #C9D4C7",
"<X c #D4DDC9",
"1X c #CDD6D5",
"2X c #D8DBDA",
"3X c #DBE3C7",
"4X c #D7E4D9",
"5X c #E3EBC7",
"6X c #E2EADB",
"7X c #EBF2CB",
"8X c #DFE4E0",
"9X c #D5E9F4",
"0X c #E5EBE4",
"qX c #E8F5E9",
"wX c #F2FAE9",
"eX c #F8FFEF",
"rX c #EDFAF1",
"tX c #E9F8FB",
"yX c #F3FEF5",
"uX c #F5FEFD",
"iX c #F9FFFB",
/* pixels */
"v M M I ..P P P ,       o o         o % o O < Z 3 V D ....F  .] ",
"v L M L I P J C o 1 1 ! :.1.5.:.2.:.$.$.=.V @ . C N S I  .F  .| ",
"M M n I I P J o o >.3.8.z.k.F.P.Y.n.v.l.e.f.3.- O t K H y F  .G ",
"n D D n V V o B 1 o s ! >.0.n.n.F.F.L.Z.l.d.e.$.% % a H m G G | ",
"F n m P b O , 4.e W G.A.v.F.F.Y.T.T.U.J.L.B.y.%.X.* * y S S A  .",
"k F y t ; t *.Q A.`.l.l.L.^.,XR.oXoX@X).P.J.B.y.%.j * 7 y S D n ",
"S H V O O T h.E.f.f.z % o.z.J.6XoX#X|..X.XY.v.c.%.{ d 6 7 y V r ",
"a a o , : ! H.a % * w * - e.l.S.4X3X$XXX.XR.P.v.%.@.h 6 = & t b ",
"i o i u.~ [.E.o.p 0 x c c W m.c.6XwX5X$XXX.XT.S.3.X.h 6 u % O > ",
":   8.u.A.I.U 8 * 0 0 9 x 7 o.E /.wX7X7XXX.X_.S.w.-.9 9 7 p % e ",
"2 . 1.k.OX[.e.e.p 6 6 h 0 * w o K.wX#X5X$XXX(.I.h.3.w.C.M.c * - ",
"2       A./.W - * * 6 6 * 7 = % ].eX@X5X3X}.Q.I.~.9X9X;X=X0 j - ",
"4 X 2.1.n.].A.- % % % = , o o ! iXqXoX3X@X).^.A.'.tXtX%XX.x 7 - ",
"$   5.! k.E.`.H.,   o     : j.yXyXwX<X#X:XY.'.tX-X&X=X .h g 8 * ",
"2 X 4       g.^.^.I.!.'.>XqXrXrX4X>X).U.).0X0X!...p.#.` ` g % o ",
"$       :.e.Y 6.W.|.,X0XyXwXOX(.{./.U.<X0X'.g.4.} ] f ( ( ' * o ",
"X   . 2 9.0.s.b.b.I.(.yXrXrX1XqXI.,XwX}.b.a.d.r.+.@.{ N.{ _ 6 % ",
":   . Y k.(.|.(.}.<X|.0XuXqXqXiXyX4XS.s.m.l.m.%.@.{ { { [ g 6 % ",
"#   . . 2.}.(./.(.(.I.-XqXrXrX[.^ O B W X.o.X.} x _ _ f ' x * & ",
"X # X   j./.V.< V.Q.V./.4X-X,.      o o % * j 0 h ) ) g g p % O ",
"$   2.<.b.{.V.;.{.{.>X>Xb.  X   .   J 8 * q w 0 d d g 0 q = & o ",
"X # ~ ~ Z 6.P Z ;.i.b.@         .   o = - * * * w * * 6 7 = & > ",
"5   . . . 5 C Q 3 ; @ 4 2 ! Y Y U C i.o.y.c y.1 >.3.o.% * = % e ",
". . @ . < -X-X(.D.Q.<X|.P.2X:XuXS.Q.^.*X&X1X*X].*X2X[.% % 6 y H ",
"5 B ; O B D.s.S.Y.k.L.S.K.K.A.E.9.6.C.G.E.G.E.A.J.K.g.o e e H u ",
"< v N B   O               o o o   o o % 6 % o o   O O o t H y u ",
"n n m V ; O R / / R R U ! ! W W E W z +.+.q.+.E e o o t t m r b ",
"n A > > V &   ~ 2.2.0.8.>.>.3.$.=.E +.r.#.q.r.X.* % = y m r v < ",
"n A D m > V :   Y 9.$   o 1 o o C H c 9 x x 9 6 = 7 l u y r v < ",
"A r r n N r 5 B . ! ! 8.7.d.7.>.e.r.r.q.t.q.0 % 7 k k u k n r v ",
"n n D I P m N N B O @   + 1 o o o & % % w p - K H H l l l G A A "
};
