/* XPM */
static char *E_A[] = {
/* columns rows colors chars-per-pixel */
"32 28 210 2 ",
"   c #030406",
".  c #030807",
"X  c #02030B",
"o  c #0B040D",
"O  c #020A0C",
"+  c #0C0A0C",
"@  c #0A0605",
"#  c #00100F",
"$  c #020612",
"%  c #0A0513",
"&  c #020D14",
"*  c #0B0C14",
"=  c #010D1A",
"-  c #0B0D1A",
";  c #00071B",
":  c #130515",
">  c #120A14",
",  c #011116",
"<  c #02131C",
"1  c #09121D",
"2  c #011A1C",
"3  c #091114",
"4  c #14111D",
"5  c #1B101E",
"6  c #000E24",
"7  c #021322",
"8  c #0A1221",
"9  c #021B25",
"0  c #0B1A23",
"q  c #001629",
"w  c #001A2F",
"e  c #0E1C29",
"r  c #121A24",
"t  c #131D2D",
"y  c #141622",
"u  c #001D31",
"i  c #231526",
"p  c #0D2124",
"a  c #01222D",
"s  c #0B252B",
"d  c #18212C",
"f  c #11252B",
"g  c #032132",
"h  c #012C34",
"j  c #0B2B34",
"k  c #002C3A",
"l  c #00233B",
"z  c #142F31",
"x  c #1A2C31",
"c  c #132533",
"v  c #083337",
"b  c #163339",
"n  c #282734",
"m  c #16403F",
"M  c #002F41",
"N  c #053746",
"B  c #183C45",
"V  c #09424C",
"C  c #084246",
"Z  c #1A4449",
"A  c #174549",
"S  c #0D4F5B",
"D  c #154352",
"F  c #144B56",
"G  c #1D4A54",
"H  c #164A5C",
"J  c #09585E",
"K  c #17535D",
"L  c #28474C",
"P  c #35434A",
"I  c #224A52",
"U  c #234E5F",
"Y  c #275657",
"T  c #3C565A",
"R  c #37575A",
"E  c #394C52",
"W  c #1C5E64",
"Q  c #165862",
"!  c #285E66",
"~  c #375E65",
"^  c #0C6D6F",
"/  c #056065",
"(  c #18666C",
")  c #0C6D73",
"_  c #1A6A73",
"`  c #0C787E",
"'  c #18787E",
"]  c #2A646C",
"[  c #296067",
"{  c #396869",
"}  c #2D6473",
"|  c #286D77",
" . c #386A76",
".. c #28757C",
"X. c #39747B",
"o. c #405F64",
"O. c #565461",
"+. c #447375",
"@. c #457479",
"#. c #497879",
"$. c #456C69",
"%. c #62666F",
"&. c #726F7A",
"*. c #657179",
"=. c #117C82",
"-. c #306A82",
";. c #2C7782",
":. c #357988",
">. c #427B8A",
",. c #1C8689",
"<. c #12909F",
"1. c #168795",
"2. c #2A898D",
"3. c #278286",
"4. c #39848C",
"5. c #348C8E",
"6. c #37888E",
"7. c #38959A",
"8. c #319096",
"9. c #199AB7",
"0. c #258EAC",
"q. c #3A9BA2",
"w. c #369EA9",
"e. c #2D9BB5",
"r. c #2698BC",
"t. c #339BB4",
"y. c #38A0AB",
"u. c #3DAEBF",
"i. c #38A8BA",
"p. c #448A8A",
"a. c #4C8388",
"s. c #598687",
"d. c #458491",
"f. c #4E899D",
"g. c #4B9499",
"h. c #579296",
"j. c #5D9A9E",
"k. c #589597",
"l. c #648D8C",
"z. c #688281",
"x. c #6E908F",
"c. c #699597",
"v. c #789697",
"b. c #429CA3",
"n. c #4E98A3",
"m. c #5197A2",
"M. c #5699A7",
"N. c #519CB3",
"B. c #6A9EA1",
"V. c #6799A2",
"C. c #639FB7",
"Z. c #4FA6AF",
"A. c #47A5A7",
"S. c #51A2AA",
"D. c #5BA2A8",
"F. c #47A6B6",
"G. c #57A8BA",
"H. c #5BB2BB",
"J. c #6BAEB3",
"K. c #76ADB1",
"L. c #63B0B6",
"P. c #70A7A9",
"I. c #1FA6C4",
"U. c #28A4C5",
"Y. c #38ABC7",
"T. c #34B7CC",
"R. c #38ADD0",
"E. c #2CB3D1",
"W. c #3DBBDC",
"Q. c #36B5D6",
"!. c #45B5C8",
"~. c #5BB2CA",
"^. c #57B5C8",
"/. c #47B0D0",
"(. c #49ACC9",
"). c #69B6C5",
"_. c #74BAC5",
"`. c #67B3CB",
"'. c #41BDE1",
"]. c #52CAD9",
"[. c #67C0DE",
"{. c #7AC9D4",
"}. c #75C4DA",
"|. c #5CD2E0",
" X c #41C6E9",
".X c #7BCBE8",
"XX c #76D8ED",
"oX c #74D4F2",
"OX c #69D3E3",
"+X c #859F9E",
"@X c #829EA1",
"#X c #929DA4",
"$X c #8AACAC",
"%X c #85BFC3",
"&X c #8AC5C9",
"*X c #94CCDD",
"=X c #8DCEDB",
"-X c #BFDFDE",
";X c #98D3E1",
":X c #A8D9E7",
">X c #90E4EF",
",X c #94E0FA",
"<X c #8FF7FF",
"1X c #9AF9FF",
"2X c #A2E5EE",
"3X c #A3E0F5",
"4X c #A5F9FD",
"5X c #BBFFFF",
"6X c #C1F1F5",
"7X c #E2FFFF",
/* pixels */
"2 2 2 & & % % o : : > > * . # 2 0 t e $ X X X & + 3 3 , , < = < ",
"2 2 2 , & $ % % X % X X < s 2 O $ $ ; = 1 3 O   O & & , , < < < ",
"2 2 , , = * % % % t t 6 O 9 a 9 u w < < 7 2 , O 3 & 3 & = < = = ",
", # # , $ = = = 6 6 6 w D } d.f.:.} B h < $ < s , , & , * = = = ",
"# # # & = = 6 7 l 6 l -.`.}.`.~.~.G.n.| N < 2 s , & , * = - * * ",
". O O & , = 7 q w H N.*X.X/.e.t.w.~.}.{.n.F 9 2 < < , - * * - : ",
". . O * & 6 q w e :..XoX(.U.E.W.e.Y.OX1X>Xm.V 2 2 & - % - - : : ",
"@ @ O O < 7 q w >.}.oXY.r./. XI.T.i.].<X4X{.X.h 2 < = - : : : : ",
"@ + @ 3 0 < 7 N C.,X`.r.R.W.I.E.T.<.|.XX1X5Xg.v < T . X o : : i ",
"+ + . 3 p 7 7 M 3XN.~.oX/.U.Q.9.i.|.1.y.H.).;XY R v.4 &.&.  i : ",
"@ > * & $ $ j  .*X=X`.F.t.t.T.!.u.T.y.Z.H._.%X#.b >.#X%.O.n % i ",
"@ * . O = = j ~ :X*X).N.G.~.^.F.y.q.b.S.D.P.c.{ X x #Xi - n X n ",
"o X X 3 x p & 9 @.V.C K 2Xg.2 _ 4XS.h &X&Xv x.$Xz < 3 X n X 8 8 ",
"X 3 1 3 < $ s T L >.+.#.&XB.{ J.J.j.X.K.P.+.v.z.x O < . r d 8 8 ",
"X y t 1 X X L $XE . v.$X. $.7Xl.2 B.5Xm z -X+X. p . P 2 X P $ c ",
"1 = X 3 x f z L ~ m Z Y Y { s.#.k.k.k.c.+.{ x.x.T b X E c $ = = ",
"r & X 2 b L I G [ [ Q ( ;.6.2.3.8.A.A.7.5.4.p.p.l.+.L s & $ $ % ",
"3 & , 0 b Z A C W J J / ) =.=.=.` ,.8.,.^ ^ ..5.g.X.A p < - 4 5 ",
"& & , 9 j B A D W ( ( ) ' 2.8.q.7.y.7.2.3.5.g.k.k.+.A 2 & - > > ",
"< , O & 2 j L ! [ [ | | ;.6.b.F.H.Z.7.7.A.H.L.j.a.~ v 2 = = * X ",
"< < & O & 9 b G A F K F S Q | ;.4.4.-...X.:.X. .A h < & < r y 4 ",
"& & < , < < 7 9 9 g k k N V K ] } >.>.} N a a h q 2 = & < 8 3 - ",
"$ & & < < 7 & & = 7 9 u l N B H U } $.G g < = < 9 9 9 < , & $ $ ",
"< & $ , 9 0 9 q q 7 7 7 7 q q 7 7 7 6 6 q a w q = < 7 < < = < 0 ",
", < < 1 < 1 7 7 7 7 7 7 7 q q q q q 7 7 7 7 7 7 7 < < 7 < 7 1 2 ",
"1 1 1 7 7 1 7 < 1 7 7 7 7 7 7 7 6 7 7 7 7 7 7 8 < 7 < 1 < 1 < 2 ",
"1 7 1 < 1 1 < 1 1 7 8 < 7 7 8 7 7 7 7 1 8 8 8 - 1 8 1 7 7 2 < < ",
"1 1 1 1 1 7 1 1 < 1 7 7 7 7 7 - 8 < 6 8 8 8 8 - 8 - 1 < < < 7 < "
};
