/* XPM */
static char *E_A[] = {
/* columns rows colors chars-per-pixel */
"32 32 219 2 ",
"   c #010303",
".  c #000B04",
"X  c #00040B",
"o  c #0E010D",
"O  c #010B0C",
"+  c #0B080F",
"@  c #12040C",
"#  c #001205",
"$  c #02120D",
"%  c #010513",
"&  c #0D0613",
"*  c #020C14",
"=  c #0B0B15",
"-  c #030D1A",
";  c #0B0D1A",
":  c #110514",
">  c #110B19",
",  c #140B14",
"<  c #021215",
"1  c #081316",
"2  c #021817",
"3  c #01131B",
"4  c #0B131B",
"5  c #011B1C",
"6  c #0A1B1B",
"7  c #121519",
"8  c #08211E",
"9  c #000F22",
"0  c #021422",
"q  c #0B1523",
"w  c #001B23",
"e  c #0B1C24",
"r  c #031D2A",
"t  c #0C1C29",
"y  c #161924",
"u  c #012224",
"i  c #0D2125",
"p  c #01222B",
"a  c #012A2C",
"s  c #0F282C",
"d  c #142423",
"f  c #18272B",
"g  c #002435",
"h  c #022C33",
"j  c #0D2B32",
"k  c #012A3A",
"l  c #1B2B32",
"z  c #043236",
"x  c #003A3B",
"c  c #0D3B3C",
"v  c #073437",
"b  c #11343C",
"n  c #123D3B",
"m  c #292C35",
"M  c #22353B",
"N  c #322B3B",
"B  c #18403F",
"V  c #09403B",
"C  c #0A3B43",
"Z  c #153C45",
"A  c #2C3F43",
"S  c #343A44",
"D  c #064B4D",
"F  c #0B4548",
"G  c #134A4B",
"H  c #174448",
"J  c #02514E",
"K  c #0D4C56",
"L  c #184A53",
"P  c #045252",
"I  c #085856",
"U  c #135C5C",
"Y  c #1D5C5C",
"T  c #175256",
"R  c #16514D",
"E  c #3A464D",
"W  c #214D53",
"Q  c #2C5C5D",
"!  c #23575C",
"~  c #35535A",
"^  c #22444D",
"/  c #14615F",
"(  c #26635D",
")  c #1D4E64",
"_  c #1A5A63",
"`  c #275A61",
"'  c #2F5F71",
"]  c #375B69",
"[  c #0A6261",
"{  c #146461",
"}  c #166A6A",
"|  c #1E6B6C",
" . c #1B736F",
".. c #1A7572",
"X. c #1B7A77",
"o. c #2A6565",
"O. c #266A6A",
"+. c #24726E",
"@. c #30736C",
"#. c #386B73",
"$. c #277975",
"%. c #217F7D",
"&. c #2B7C7C",
"*. c #2B7579",
"=. c #3B7376",
"-. c #367A77",
";. c #31686E",
":. c #466469",
">. c #436974",
",. c #457375",
"<. c #587277",
"1. c #35837D",
"2. c #0C7B8C",
"3. c #2C7782",
"4. c #377E85",
"5. c #44788D",
"6. c #2B8583",
"7. c #2C8982",
"8. c #2C8E8A",
"9. c #298388",
"0. c #328789",
"q. c #3B848B",
"w. c #348C8C",
"e. c #368882",
"r. c #35889A",
"t. c #3C9A96",
"y. c #389494",
"u. c #1A9DB7",
"i. c #2898A6",
"p. c #349EA9",
"a. c #238BB0",
"s. c #339AB9",
"d. c #2FA1BB",
"f. c #3CA9BE",
"g. c #458588",
"h. c #56858A",
"j. c #4B8796",
"k. c #548595",
"l. c #449F9C",
"z. c #449598",
"x. c #519C95",
"c. c #61888F",
"v. c #70969A",
"b. c #40A09C",
"n. c #578FA3",
"m. c #4F95A1",
"M. c #5594A7",
"N. c #5999A8",
"B. c #649AAA",
"V. c #7E9EAD",
"C. c #48A7A7",
"Z. c #5AA2AD",
"A. c #56ABA7",
"S. c #45A3B7",
"D. c #59A6B7",
"F. c #49B3BE",
"G. c #52B0BA",
"H. c #5AB1A9",
"J. c #67A4AE",
"K. c #71ADAD",
"L. c #63A6B7",
"P. c #79ABB8",
"I. c #65B9B9",
"U. c #75BAB9",
"Y. c #67B2AE",
"T. c #189DC1",
"R. c #2E9AC1",
"E. c #1AA2C3",
"W. c #2AAAC5",
"Q. c #3CACC4",
"!. c #3BB4CA",
"~. c #36ADD2",
"^. c #35B5DC",
"/. c #26AED4",
"(. c #46ACCD",
"). c #53AAC4",
"_. c #51AECF",
"`. c #42BCCE",
"'. c #49BDCA",
"]. c #5FB0CE",
"[. c #42BCD4",
"{. c #5FBBD4",
"}. c #7AADC2",
"|. c #68BACD",
" X c #72B4C9",
".X c #6ABBD6",
"XX c #3BC4E8",
"oX c #4BC1DA",
"OX c #53C5DC",
"+X c #64C6C8",
"@X c #68C6D6",
"#X c #74C8D9",
"$X c #79D1DB",
"%X c #74C1C7",
"&X c #40C9EB",
"*X c #6ADDEF",
"=X c #75CAE3",
"-X c #7CE9F8",
";X c #8AA7AF",
":X c #96C0BF",
">X c #85B8C4",
",X c #99BED0",
"<X c #99C9D2",
"1X c #8DCFD4",
"2X c #B6CED8",
"3X c #88D8E6",
"4X c #99DDE0",
"5X c #A1DAE1",
"6X c #9EFDFF",
"7X c #91F3FD",
"8X c #90E4EA",
"9X c #B2E7EF",
"0X c #A1F7FF",
"qX c #AFEDF2",
"wX c #C9DEE1",
"eX c #C1F2FF",
"rX c #D4FDFF",
"tX c #DBFFFF",
"yX c #EEFFFF",
/* pixels */
"p 0 * 3 w < < 5 6 $   . # # # # d 6 $ . . . .   $ $ 2 < 2 3 0 0 ",
"3 3 0 r w * * % O 2 8 8 $ . . . $ 6 f d $   . . $ $ $ < 3 3 0 3 ",
"% - t 0 3 - < < - - - & O X < 3 O < 5 6 < X   O + $ = * - 9 3 3 ",
"* q 4 % % q t r - - - g H ! ! W Z p % % * 2 *   $ = = 1 - - - - ",
": > & % % 0 0 9 9 g ' 5.}. XD.M.k.;.Z 0 0 0 3 4 = * & & = > ; ; ",
"o o & > ; - 9 9 ) 5. X3X.X).).].L.L.n.' g % - t - = = ; = > : : ",
"o   & y 9 % g ) ]. X.X_.s.a.R.(.S..X3X X#.C 9 0 3 * = ; ; & ; : ",
"@   % q - - L N.=X.X_.R.~.^.^.~.R.=X0X0X|.#.C 0 3 3 * - - ; ; ; ",
"  = l d u < j.$X@XQ.[.oXE./.XXE.!.oX-X7X8XZ.D u a 2 5 M O   S X ",
"7 O   < z Y %X$Xp.OXW.u.XX^.E.XXu.!.*X-X7X3Xq.x u w . 2 < E X 2 ",
"1 2 2 a 8 -.1X+XF.oXoXW.W.u.u./.oX!.i.(.6X8X*.x o.:Xs 8 l < e q ",
"  2 8 B $ x.8X+X+Xp.p.f.(.[.OXR.f.9.S.@X9.H.4XQ ] ,.s :.wXi l f ",
"X O O j a K.qXU.C.$XG.C.|.S.r.{.F.@XG.r.5.1X<XW . <.yXA i l % X ",
"* < * u 5 ,.1XU.Y.t.y.m.M.M.m.j.|.D.*.M.J.h.c.~ A X m * X E q S ",
"% ; y t 5 a h.N.8 F 4XqXk r ,XrXn.9 j.tX^ ; 2Xv.e m X m & y & X ",
"4 % * t ~ Z ,.=.@.=.P.;X#.] ;X,X>XV.5.>X5.:.;X<.l 2 > X y y X N ",
"l % % r >.h.! 2 1XP.p p eXtX` - 5.rXP.9 k.5X=.3 2 2 5 1 * & : : ",
"% - r b ^ Q Y F F *._ K j.Z.5.j.5.>Xj.K e.J.g.O.! C 5 * 1 7 , @ ",
"% j ^ H Z F ! +.P K *.4.| *.N.Z.L.m.D.N.8.y.H.H.g.o.n 5 2 1 1 + ",
"r C H H F L U / &.P { 0.6.0.w.[ 3.*.z.r.[ } 1.1.-.@.( n 2 X X 7 ",
"p h v c G Y U J I I [ 1.8.6...9.w.C.y.9.7.8.1.1.1.-.( c 5 O O 1 ",
"3 p c G R / o./ P ..[ 1.y.8.8.+XC.y.} 1.b.t.1.A.x.@.V 8 5 e 2 % ",
"* u j c H Q O.O.|  .[ 1.w.t.l.C.G.t.1.b.I.H.H.U.-.R u < 5 d 4 X ",
"* * < w n W T F R V J [ { &.w...1.{  .$...1.1.( x a 5 < 3 4 1 + ",
"* * - 3 3 3 3 5 h z x F D D I U -.g.-.G u 5 p a 2 2 3 - = = & & ",
"* * * 1 - 3 3 0 w r h C L ! o.;.,.#.Q c u w u 5 < 2 3 ; ; : : & ",
"* = * - ; - - 3 % % * 0 w p a h b j u 2 5 i e 2 < 1 ; ; > : : : ",
"= * = = = = q ; q 0 0 - 0 3 3 - 2 . X X 3 i q 1 = = ; > > > & : ",
"< 3 1 * - = ; - - ; 0 0 0 r r p e 6 1 4 4 1 * = ; ; > 4 > ; = > ",
"2 2 2 < - 4 - ; % % % - - 3 3 3 q 6 4 4 4 O % ; 4 4 4 4 4 - = * ",
"5 2 5 2 < < 1 - q q t 0 w w w 3 < O O 1 1 * 1 4 4 1 4 3 2 3 3 3 ",
"8 5 5 2 2 3 3 3 * * - - 0 0 0 w d 1 O 1 4 1 % - 4 3 4 0 3 3 3 3 "
};
