/* XPM */
static char *E_A[] = {
/* columns rows colors chars-per-pixel */
"32 32 220 2 ",
"   c #020304",
".  c #000B04",
"X  c #00040B",
"o  c #0E010D",
"O  c #010A0C",
"+  c #0B080F",
"@  c #12040C",
"#  c #001205",
"$  c #02120D",
"%  c #010513",
"&  c #0D0613",
"*  c #020C14",
"=  c #0B0B15",
"-  c #030D1A",
";  c #0B0D19",
":  c #110514",
">  c #110B19",
",  c #140B14",
"<  c #021215",
"1  c #081315",
"2  c #031817",
"3  c #01131B",
"4  c #0B131B",
"5  c #011B1C",
"6  c #09191A",
"7  c #13161A",
"8  c #08211E",
"9  c #11211E",
"0  c #000F22",
"q  c #021422",
"w  c #0B1422",
"e  c #001B23",
"r  c #0B1C24",
"t  c #031D2A",
"y  c #0C1D29",
"u  c #151924",
"i  c #012224",
"p  c #0D2125",
"a  c #01222B",
"s  c #012A2C",
"d  c #082C2B",
"f  c #162528",
"g  c #002435",
"h  c #022B33",
"j  c #0D2B32",
"k  c #012A3C",
"l  c #1B2B32",
"z  c #023335",
"x  c #003C3C",
"c  c #0D3B3C",
"v  c #063336",
"b  c #11343C",
"n  c #143D3B",
"m  c #292C35",
"M  c #22353B",
"N  c #322B3B",
"B  c #09403B",
"V  c #0A3B43",
"C  c #143B45",
"Z  c #2C3F43",
"A  c #343A44",
"S  c #09474A",
"D  c #134A4B",
"F  c #184549",
"G  c #02514E",
"H  c #0D4C56",
"J  c #154C53",
"K  c #045252",
"L  c #085856",
"P  c #135C5C",
"I  c #1D5C5C",
"U  c #185356",
"Y  c #16514D",
"T  c #3A464D",
"R  c #224C54",
"E  c #314F57",
"W  c #2C5C5D",
"Q  c #23565C",
"!  c #315055",
"~  c #22444D",
"^  c #14615F",
"/  c #26635D",
"(  c #1D4E64",
")  c #1A5A63",
"_  c #275A61",
"`  c #2F5F71",
"'  c #375B69",
"]  c #0A6261",
"[  c #146461",
"{  c #166A6A",
"}  c #1E6B6C",
"|  c #1B736F",
" . c #1A7572",
".. c #1B7A77",
"X. c #2A6565",
"o. c #266A6A",
"O. c #24726E",
"+. c #30736C",
"@. c #2E6A79",
"#. c #3A6B71",
"$. c #277975",
"%. c #217F7D",
"&. c #2B7C7C",
"*. c #2A7479",
"=. c #3C7375",
"-. c #367977",
";. c #356363",
":. c #49666C",
">. c #436974",
",. c #487475",
"<. c #5B777A",
"1. c #35837D",
"2. c #0A798A",
"3. c #347B85",
"4. c #2A7A81",
"5. c #44788D",
"6. c #2B8583",
"7. c #2C8982",
"8. c #2C8E8A",
"9. c #278585",
"0. c #3A8383",
"q. c #328789",
"w. c #348C8C",
"e. c #378789",
"r. c #358998",
"t. c #369392",
"y. c #3C9A96",
"u. c #3B9697",
"i. c #189AB3",
"p. c #1A9DBB",
"a. c #349EA9",
"s. c #238BB0",
"d. c #2C97AC",
"f. c #2FA1BB",
"g. c #39A7BE",
"h. c #458588",
"j. c #59868B",
"k. c #498896",
"l. c #528996",
"z. c #538699",
"x. c #449F9C",
"c. c #449598",
"v. c #519C95",
"b. c #639D9E",
"n. c #6D8A93",
"m. c #40A09C",
"M. c #528FA2",
"N. c #4F95A1",
"B. c #5594A7",
"V. c #5997A7",
"C. c #629BAA",
"Z. c #7E9EAD",
"A. c #48A7A7",
"S. c #5AA2AD",
"D. c #56ABA7",
"F. c #48A5B9",
"G. c #58A8B6",
"H. c #52B0BA",
"J. c #52B3B3",
"K. c #70ACAC",
"L. c #63A3BA",
"P. c #65A6B8",
"I. c #77A9B8",
"U. c #63B0B3",
"Y. c #64BAB8",
"T. c #76BABA",
"R. c #64ACAE",
"E. c #189DC1",
"W. c #2E9AC1",
"Q. c #1AA2C3",
"!. c #2AAAC5",
"~. c #39ACC6",
"^. c #3BB5C8",
"/. c #36ADD2",
"(. c #37B6D9",
"). c #26AED4",
"_. c #46ACCD",
"`. c #54A8C7",
"'. c #51AECF",
"]. c #48BBC9",
"[. c #5FB0CE",
"{. c #51BAD3",
"}. c #67BBC5",
"|. c #71B4C9",
" X c #6ABBD6",
".X c #75AFC3",
"XX c #3BC4E8",
"oX c #4AC0D9",
"OX c #53C5DC",
"+X c #64C7C9",
"@X c #69C7D7",
"#X c #75C8DA",
"$X c #7BD2DC",
"%X c #74C1C7",
"&X c #40C9EB",
"*X c #7FC6E2",
"=X c #6CDFF1",
"-X c #6DD0E7",
";X c #7BE9FA",
":X c #88A5AD",
">X c #96C0BF",
",X c #87BAC5",
"<X c #99BED0",
"1X c #9FC3D3",
"2X c #98D4D7",
"3X c #86CED3",
"4X c #8ADAE8",
"5X c #A1DAE1",
"6X c #84F0FD",
"7X c #95F8FF",
"8X c #92E7ED",
"9X c #B2E7EF",
"0X c #A2FCFF",
"qX c #AFEDF2",
"wX c #B4CCD6",
"eX c #C9DEE1",
"rX c #C1F2FF",
"tX c #D4FDFF",
"yX c #DBFFFF",
"uX c #EEFFFF",
/* pixels */
"a q * 3 e < < 5 6 < . . . # # # 9 6 $ . . . . . $ $ $ < 3 5 q q ",
"3 3 q t e * * * O 3 8 8 $ # . . $ 6 f r <   . $ + $ < < 3 3 q 3 ",
"% q w q 3 - * < - < % % O X < 3 O < 6 6 < .   O $ + < < < - 3 q ",
"- 4 4 % % w y t - % 0 t F Q Q R C a % X * 3 <   + 1 + < - - - - ",
": > & % % q 0 q 0 k ` M..X|.G.B.z.` C 0 0 q 3 4 = = & ; ; ; ; ; ",
"& o & > w % 0 0 ( 5.|.*X X`.`.[.`.P.V.` g % - p < = ; & > > : : ",
"@   & u 0 % g ( [. X X'.f.5.W._.F. X4X.X@.k q e < - - ; > > ; : ",
"@   X w - - H C.*X X_./.).(.(.).F.-X0X0X|.@.z q 3 < % - - % ; ; ",
"  1 f r i < k.$X@X~.].oXE.).XXE.^.OX;X7X8XG.S e s 5 5 M O X A O ",
"7 + . < z Q %X$Xa.OX!.p.XX(.Q.XXi.^.=X;X7X4X0.z i e . 2 * T X 4 ",
"1 6 < s 8 -.3X+XJ.].oX!.!.p.E.).(.^.d.H.0X8X$.x X.:Xj 2 l < r 6 ",
"  2 8 n 2 h.8X+X+Xa.a.^.^.{.OXf.f.9.F.@Xw.G.2XQ ;.,.n :.eXp l f ",
"O O O j i K.0XT.J.@XH.A. XF.r. Xg.@XH.r.e.3X1X~ O <.uXZ p l % X ",
"- < * i 2 =.2XT.Y.y.u.N.B.B.M.k.}.S.3.C.I.j.j.! M   m * X T w A ",
"- w y r 5 s j.b.i x 5XqXh t <XtXz.0 z.yXR q wXn.p m X m & u = % ",
"> X % r E C ,.=.#.=.I.:X#.' Z.1XI.C.z.,Xn.:.:X:.l 3 > X u u X N ",
"l % % t >.j._ < 3XI.a t rXyX_ - 5.yXI.q l.9X=.< < < 5 < = = + , ",
"% 0 t b R _ U S D *.) P l.V.5.l.5.,XM.H -.R.0.o.Q V 5 = 4 > , o ",
"% j ~ F V F I +.K H *.3.} *.B.G.S.N.S.V.8.y.U.D.h./ n 5 3 4 1 + ",
"t b F C S D I ^ &.G ] q.6.q.8.] 4.4.c.r.] { 1.1.1.+./ n 2   X 7 ",
"a h v V D I P G L L ] 1.t.1. .9.t.N.t.9.7.8.1.1.1.-./ c 5 O O 4 ",
"3 s c D Y ^ / [ K  . ...t.8.8.+XA.y. .$.A.y.1.D.v.+.B 8 5 5 6 O ",
"* i j c D W X.o.O.| ]  .w.y.x.A.J.y.7.x.Y.D.D.T.-.Y i < 5 p 4 X ",
"* * < 5 b R U S Y B G ] ] &.w.| 1.] | &.O.1.1./ x d 5 < 2 1 ; = ",
"* * - < 3 3 e 5 h z x S S K P P -.h.-.D s 5 i s 2 2 < - ; = & & ",
"% * * * - < 3 q e t h V J Q X.o.>.=.W c i e i e < < 4 ; ; & & & ",
"* = * - - ; - - % % - 3 e a h s n j i 3 2 p r < < 4 * ; > : : : ",
"4 * ; = ; ; w ; w q q q 3 3 - - < O X X < r u 4 ; ; ; > > : : : ",
"< < < < - ; ; ; ; - q q q t t a p 6 4 4 4 * * O ; ; 4 > ; ; ; = ",
"2 2 3 2 < - - ; % % % % - 3 3 3 r 1 4 6 1 * * ; 4 ; 4 4 4 4 - - ",
"5 2 2 2 3 < < 4 r w w q q t e 3 < . O = < = < 4 4 4 6 q q 3 * < ",
"8 8 5 2 3 < < - % - - 3 q q e e f 1 O < 7 * * * 4 4 3 6 3 3 3 < "
};
