/* XPM */
static char *E_D[] = {
/* columns rows colors chars-per-pixel */
"32 32 226 2 ",
"   c #010405",
".  c #000A06",
"X  c #02040B",
"o  c #0D030B",
"O  c #020B0D",
"+  c #09090F",
"@  c #10020F",
"#  c #03110E",
"$  c #0E100F",
"%  c #010514",
"&  c #0C0414",
"*  c #040B15",
"=  c #0A0A15",
"-  c #020619",
";  c #0B051B",
":  c #020C1A",
">  c #0B0C1A",
",  c #120214",
"<  c #100F14",
"1  c #13001A",
"2  c #110F1A",
"3  c #021315",
"4  c #001A17",
"5  c #01131B",
"6  c #0A131E",
"7  c #011C1A",
"8  c #0B1B1C",
"9  c #0C1715",
"0  c #11181B",
"q  c #00221B",
"w  c #002A1D",
"e  c #15211F",
"r  c #030D23",
"t  c #080F21",
"y  c #070924",
"u  c #021423",
"i  c #0C1324",
"p  c #011C24",
"a  c #0C1A25",
"s  c #00132B",
"d  c #0C1629",
"f  c #021D2B",
"g  c #0B1C2A",
"h  c #121323",
"j  c #101C29",
"k  c #191B2A",
"l  c #001B30",
"z  c #231A28",
"x  c #002322",
"c  c #002C26",
"v  c #03242B",
"b  c #0A242E",
"n  c #0F2321",
"m  c #1B2427",
"M  c #012333",
"N  c #002B33",
"B  c #0C2B36",
"V  c #002339",
"C  c #012A3C",
"Z  c #162934",
"A  c #023439",
"S  c #0A3239",
"D  c #083338",
"F  c #193138",
"G  c #29353A",
"H  c #313038",
"J  c #003343",
"K  c #013D42",
"L  c #0D3848",
"P  c #123C43",
"I  c #133947",
"U  c #202C42",
"Y  c #223E46",
"T  c #024244",
"R  c #05444C",
"E  c #0B474A",
"W  c #064D4F",
"Q  c #164349",
"!  c #184A55",
"~  c #0C5C5C",
"^  c #0A5558",
"/  c #1A5B5B",
"(  c #175759",
")  c #21454E",
"_  c #234D53",
"`  c #274B52",
"'  c #304E58",
"]  c #24565C",
"[  c #245A5C",
"{  c #27525B",
"}  c #30575C",
"|  c #0A605F",
" . c #18566A",
".. c #1D5564",
"X. c #335866",
"o. c #29576D",
"O. c #0D6865",
"+. c #1B6364",
"@. c #186A6A",
"#. c #1C7673",
"$. c #1C7876",
"%. c #17706C",
"&. c #29646B",
"*. c #236A6B",
"=. c #36696D",
"-. c #2A726F",
";. c #2B6B76",
":. c #346D79",
">. c #396776",
",. c #277879",
"<. c #34787B",
"1. c #404145",
"2. c #4F636E",
"3. c #476972",
"4. c #47787D",
"5. c #457179",
"6. c #507C7F",
"7. c #23807F",
"8. c #2F7B86",
"9. c #327383",
"0. c #477A84",
"q. c #5B7684",
"w. c #03919D",
"e. c #2A8684",
"r. c #3A8587",
"t. c #39938E",
"y. c #3A8C97",
"u. c #3D9394",
"i. c #3C9996",
"p. c #278F98",
"a. c #129DB0",
"s. c #348FA2",
"d. c #259AAB",
"f. c #309EB7",
"g. c #369CAA",
"h. c #0DA3B5",
"j. c #19A7B7",
"k. c #27A5B4",
"l. c #37A7B3",
"z. c #2BB0BF",
"x. c #34B4BF",
"c. c #4A868A",
"v. c #558388",
"b. c #478996",
"n. c #568894",
"m. c #4B949A",
"M. c #469999",
"N. c #579498",
"B. c #608C8F",
"V. c #678B94",
"C. c #759098",
"Z. c #4B9DA1",
"A. c #4A97A9",
"S. c #559BAC",
"D. c #569CA3",
"F. c #6D93A3",
"G. c #629CA6",
"H. c #679CAB",
"J. c #629FB1",
"K. c #759BAE",
"L. c #4AA3A3",
"P. c #4CA0AA",
"I. c #5FA6A4",
"U. c #57ABAB",
"Y. c #44A8B9",
"T. c #59A7B7",
"R. c #54B2B1",
"E. c #68A3AD",
"W. c #68B0AD",
"Q. c #66AAB4",
"!. c #64B7B9",
"~. c #75ABB9",
"^. c #22B3C4",
"/. c #2CB9C6",
"(. c #2AB9CA",
"). c #31B7C9",
"_. c #3DBBCA",
"`. c #3ABCD3",
"'. c #3EACC3",
"]. c #4FAEC2",
"[. c #42BCCB",
"{. c #45B5C6",
"}. c #5BB1C3",
"|. c #5CBFC4",
" X c #59ABC0",
".X c #6AAEC1",
"XX c #68B8C7",
"oX c #74B3C1",
"OX c #75B7CD",
"+X c #3AC7D7",
"@X c #2DC3D2",
"#X c #3DD0E4",
"$X c #40C0CD",
"%X c #53C4D7",
"&X c #52CAD2",
"*X c #69C8D7",
"=X c #7BD3DB",
"-X c #6ED0D9",
";X c #49DFED",
":X c #5ADCEA",
">X c #6DD1E1",
",X c #73D7EB",
"<X c #74EAFA",
"1X c #7FF5FF",
"2X c #75E0EA",
"3X c #819393",
"4X c #8BAEBB",
"5X c #85BAC5",
"6X c #91B6C8",
"7X c #95C9D7",
"8X c #83CFD8",
"9X c #84D9E9",
"0X c #B0DEF6",
"qX c #A5CAE4",
"wX c #94FCFF",
"eX c #99F0FF",
"rX c #90E6F3",
"tX c #A8FFFF",
"yX c #AEF1F8",
"uX c #D0DEDE",
"iX c #C9E0EE",
"pX c #CAF3FF",
"aX c #C1F0FF",
"sX c #D9FFFF",
"dX c #D2FFFF",
"fX c #F2FFFF",
/* pixels */
"c c x x 7 5 * * 2 = + X * 3 * # 3 .   # e 9 O   o o o + 4 q w w ",
"x x x 7 5 3 = % o % * * 5 3 5 5 . 9 e 4   . O $ o o o + # 4 q w ",
"q q 7 5 : * = * > > - - * * 5 7 O 5 3 O 5 a > X o , @ & $ 3 q q ",
"5 3 3 : * = * ; d 5 - r v L Q ! ] I N x p f u - & , , , = 3 3 4 ",
"O O * = * > > r - y s L o.b.S.S.oXJ.A.9.J y y U y 1 1 , , > > 3 ",
"+ X + = > > i u - l o.b.Q.!.}.].}.}.XXOXA. .V s y ; 1 1 , = = > ",
"X X + = : i u f J >..X=X>X{.l.k.d.f.{.[.>XOX9.y s y ; 1 & & + = ",
"  o O = 5 u f M ..S.eXtX<X[./.(.j.`.`.d.{.,X]. .s y y & & & + * ",
"$ . 9 . e v * R XXrXwX1X:X(.j.@X+Xh.(.+X).&X-XP.l r u - > 6 X 6 ",
"m   G F . } 3 :.8X=XwX<Xd.(.;Xh.h.#X^.h./.x.Y.rX! l u : > u . 3 ",
". O 9 . 4X6.v n.XXtX2Xd._.z.w.`.(.^.z.z.+X&X-X-X8.u % * * 8 3 3 ",
"e uX3Xq V.v =.G.8XP.y.l.{.[.[.{.k.a.+X&Xl.x.-X=XQ.f O 5 O 3 4 # ",
". m 0 fXC.+ ! 5X~.Q.Q..XA.s.f.Y.].*Xg.p.&X!.XXyX5XB 3 6 O 3 #   ",
"1.2 o Y X F ' B.n.5XS.9.S.OXA.9.b.y.A.T.Z.Z.!.7Xv.7 X %   O . . ",
"    H   G j 2.iX* X.pX7Xs o.aX0Xl J 7XyXK x v.B.Y * +     $   9 ",
"z z & k * 5 q.C.q.V.6XK.>.F.qX6X0.>.K.5Xc.=.4.3.Y Z m < < $   9 ",
"& ; ; - * O x c dXE.i 9.sXK.r L sXaX! u 5X5XA 5 F.3.Z % X k h X ",
"; - - u B ` <.c.m.b.*.r.oXD.:.D.n.J.:.R &.&.! ( ! _ I f - - i h ",
"- - 5 F } v.N.I.<.7.M.Z.b.D.Q.D.<.9.8.;.W ^ -.+.K Q _ Y b - - d ",
": 5 b ` 5.c.4.7.M.%.,.M.M.u.y.@.u.,.,.,.~ @.-.W ( E Q _ ) f - - ",
"* 5 v { 4.c.7.-.7.#.#.t.i.e.%.e.#.8.7.O.| | | O./ T A Q P b 5 u ",
"- : p Q =.N.W.W.M.U.t.7.i.U.L.R.e.i.7.O.#.%.^ *./ ( ! S x 5 5 f ",
": : 5 v Y =.N.W.U.W.t.#.t.!.!.L.g.M.#.%.#.*.~ / / [ _ S 5 * 5 5 ",
"6 6 3 3 q c [ 5.7.-.7.-.~ @.t.<.7.@.*.+.T T [ [ D S v 5 3 a a % ",
"* * : : 5 5 p p 5 x K &.c.<.&.R ! E K A N N x u 7 7 5 5 : * * * ",
"= = = : 5 5 u 7 5 7 B { 3.5.=.] [ ! L S M f 5 * 5 6 : > = = = % ",
"= & = * : * : 5 % % : u f v f p B v f p u u : - t ; > > = = = = ",
"= = = = > * : : j i u : % % % % - % % - > 6 h h ; 2 > > > > > * ",
"* 3 3 * 3 * * : t i i 6 r : i d d d i i : ; > ; 2 < > > > 3 3 3 ",
"3 3 5 3 3 : 3 > X % % % - - : r d d i r ; - & ; > > > 3 3 5 3 4 ",
"q 4 7 4 7 3 5 5 j a i i i i r 6 - - : : - & > 2 > = > 5 7 4 7 q ",
"q q 7 7 7 3 5 5 5 : : : i i i > r i d t t > 2 h > : 3 3 4 4 q 4 "
};
