/* XPM */
static char *E_D[] = {
/* columns rows colors chars-per-pixel */
"32 28 215 2 ",
"   c #000405",
".  c #01040C",
"X  c #0B030E",
"o  c #010A0D",
"O  c #040A0B",
"+  c #00140A",
"@  c #010512",
"#  c #0C0614",
"$  c #010D14",
"%  c #090A15",
"&  c #000419",
"*  c #0C071B",
"=  c #010D1B",
"-  c #0C0C1C",
";  c #150116",
":  c #190014",
">  c #110A16",
",  c #11031A",
"<  c #011115",
"1  c #091414",
"2  c #02131C",
"3  c #09121D",
"4  c #02181D",
"5  c #0F1A1A",
"6  c #061A15",
"7  c #13101C",
"8  c #07201C",
"9  c #040C23",
"0  c #021422",
"q  c #091220",
"w  c #021B24",
"e  c #0D1C25",
"r  c #00142A",
"t  c #001E2C",
"y  c #0B1F28",
"u  c #131424",
"i  c #101A23",
"p  c #1D1927",
"a  c #151A29",
"s  c #1C1828",
"d  c #001B33",
"f  c #211626",
"g  c #03232C",
"h  c #0D242C",
"j  c #0E2A2E",
"k  c #002021",
"l  c #13252A",
"z  c #032333",
"x  c #012C35",
"c  c #0D2C33",
"v  c #002B3C",
"b  c #0A2636",
"n  c #172A32",
"m  c #192D32",
"M  c #1B2632",
"N  c #01313C",
"B  c #083637",
"V  c #12333A",
"C  c #193136",
"Z  c #242935",
"A  c #203A3B",
"S  c #053B46",
"D  c #063544",
"F  c #163841",
"G  c #2C3F46",
"H  c #0C424C",
"J  c #15434A",
"K  c #1D434A",
"L  c #1C494F",
"P  c #154A48",
"I  c #195249",
"U  c #0B4856",
"Y  c #174451",
"T  c #1B4552",
"R  c #144B56",
"E  c #1A4B59",
"W  c #09575B",
"Q  c #14585D",
"!  c #27464A",
"~  c #264D56",
"^  c #2E5356",
"/  c #3C565B",
"(  c #384A4C",
")  c #34625F",
"_  c #185864",
"`  c #285D65",
"'  c #345E67",
"]  c #0C6D6F",
"[  c #056065",
"{  c #186465",
"}  c #0C6D73",
"|  c #0D787E",
" . c #18787E",
".. c #176A72",
"X. c #29646C",
"o. c #296067",
"O. c #376767",
"+. c #33716C",
"@. c #296A75",
"#. c #3A6475",
"$. c #336A76",
"%. c #28757B",
"&. c #3B7379",
"*. c #51535F",
"=. c #486E6F",
"-. c #5E676E",
";. c #456D77",
":. c #497377",
">. c #587873",
",. c #686C76",
"<. c #60787C",
"1. c #007081",
"2. c #117D80",
"3. c #2C7783",
"4. c #377B86",
"5. c #317C93",
"6. c #447B8A",
"7. c #447D86",
"8. c #198184",
"9. c #298489",
"0. c #39848B",
"q. c #348C8E",
"w. c #37888E",
"e. c #218A90",
"r. c #378D99",
"t. c #26919B",
"y. c #37959B",
"u. c #178EA2",
"i. c #1E98B4",
"p. c #3B9DA6",
"a. c #239BB4",
"s. c #2F9FB5",
"d. c #399BB3",
"f. c #3CA1AD",
"g. c #3BABBD",
"h. c #3AA5B9",
"j. c #2CA3B9",
"k. c #448A89",
"l. c #4C8387",
"z. c #568A8D",
"x. c #5B8E92",
"c. c #489497",
"v. c #589A9D",
"b. c #47839B",
"n. c #608B91",
"m. c #659597",
"M. c #7A9696",
"N. c #7B9298",
"B. c #638C88",
"V. c #72A79D",
"C. c #419CA4",
"Z. c #4B9CA5",
"A. c #469BAA",
"S. c #5194A2",
"D. c #5E9DA2",
"F. c #659FA3",
"G. c #719DA0",
"H. c #56A3AA",
"J. c #4BA4B1",
"K. c #42ABBE",
"L. c #43A2B8",
"P. c #5DA5B3",
"I. c #58ACBA",
"U. c #52ABB1",
"Y. c #75A2A6",
"T. c #73A6AA",
"R. c #66AAB6",
"E. c #73ACB4",
"W. c #63B0B6",
"Q. c #78B5B5",
"!. c #6AA6AE",
"~. c #23A0C0",
"^. c #36A9C1",
"/. c #33A9C6",
"(. c #39B4CF",
"). c #3DB8D5",
"_. c #43ABC0",
"`. c #48AEC5",
"'. c #4CB4C3",
"]. c #45BCDB",
"[. c #59BFD6",
"{. c #5AB2C6",
"}. c #6AB7C5",
"|. c #5FC1CE",
" X c #57C6D8",
".X c #6BC9DD",
"XX c #7CC7D4",
"oX c #77CCDA",
"OX c #73C5D9",
"+X c #7BD2DF",
"@X c #79C3CC",
"#X c #4FCCE2",
"$X c #65CFE5",
"%X c #72CEE5",
"&X c #6BD7E9",
"*X c #70D6EC",
"=X c #78E0ED",
"-X c #899DA2",
";X c #8BADAC",
":X c #8ABEB2",
">X c #9FBEC0",
",X c #88BDC5",
"<X c #89C2CA",
"1X c #80C9D2",
"2X c #A8C0C0",
"3X c #91DBEE",
"4X c #A5DAE0",
"5X c #93E2EF",
"6X c #95F6FF",
"7X c #A3EBF2",
"8X c #ABFFFF",
"9X c #B1F9FF",
"0X c #D3FCFF",
"qX c #C8E4E5",
"wX c #EBFFFF",
/* pixels */
"0 4 < < < + o O O O . . @ u s a .   + 6 5 1 X X : : : , * 2 0 w ",
"4 4 2 2 < $ o $   . % 3 - & & @ o 6 5 +   o o X : : ; ; * - 0 w ",
"2 2 2 < $ + $ $ o < 4 0 2 0 r d w k 6 o < h M f # ; ; , * = < w ",
"= 2 = < < $ $ < h < @ = z Y $.6.l.7.@.R x r & 9 * , , ; % $ 2 4 ",
"= $ = $ $ $ < < g < 4 S $.S.R.W.{.}.OX}.4.D r d 9 * , * # % < < ",
"# % % % $ < 2 4 < w R S.XX%X{.L.d.d._.$X[.A.E D r 9 * ; * % 1 < ",
"# # % % $ = 2 4 < H S.5X6X%X^.j.]./.a./.%X%X5.d r 9 9 , % % 1 o ",
", # % % % $ 2 4 x $.XX8X6X Xg.).a.].).a.^.*X[.b.r r = % % % o < ",
"f # > X . . / $ N !.9X+X=X X1.#X(.j.).).a. X3XP.D & & u * % 5 5 ",
"X p . ,.,.i N.^ J E.}.oXf.t.&Xu./.(.i.j. Xg.L.9Xv 9 = a % $ 1 1 ",
"p % Z *.-.-X>.c n.<XW.Z.C.f.'.K.[.^.h.g.'.|.+X4X#.b & @ @ < 1 o ",
"Z . Z - i -XC o =.T.m.v.P.A.r.A.y.A.I.J.C.I.@X<X' b & * @ $ < $ ",
"- q . Z $ < 6 m >X=.x 4X!.g XX7X6.g H.7XQ W Q.x.2 @ e M = . $ 4 ",
"e 0 l e o 4 + C M.M.>.Y.x.+.E.,XG.O.n.:X+.+.l.B ' e @ = 3 w w < ",
"b @ ! . 4 ( o h   2XqXj :.0X:.= >.wX>.+ :XV.+ K -XG . @ 2 h g $ ",
"= $ . m ( O A *.;Xm.^ ) z.m.E.T.>.B.O.I I I P ) ^ n n n = . 2 4 ",
"% $ . $ l ~ =.z.k.k.0.q.c.Z.C.r.9.q.q.9...[ { X.L ~ ! n 4 $ 2 e ",
"f 7 * $ k K &.c.q.%.] ] 8.t.e.| 2.2.| ] [ W Q Q H P K V w < $ < ",
", % % $ k ! :.v.v.c.q.9.e.p.p.p.y.r.9. ...{ _ ` P J F c w $ $ < ",
"X X = $ 4 V ' 7.D.W.W.H.q.y.H.I.J.C.w.3.%.@.X.` ^ L c w $ $ 4 3 ",
"7 i i 3 $ 2 z J +.&.0.%.%.3.4.5.3.@._ W R E R Y T V w $ $ $ 2 4 ",
"$ 3 7 4 $ $ 4 g g g g S X.l.6.@.` _ S D D v g t 0 4 2 = < 2 $ $ ",
". $ < 2 2 2 0 t 0 = = g E #.#.~ E F S v d 0 0 = $ = 2 0 4 2 = o ",
"3 4 3 3 2 2 2 2 w z z 0 9 9 r 0 r r r r 0 0 0 w 0 w w 4 $ $ $ = ",
"2 2 4 2 0 2 0 0 0 0 0 0 0 0 r 0 r 0 0 0 0 0 0 0 2 0 0 2 3 0 3 < ",
"2 4 3 2 3 2 3 0 0 q 0 9 0 0 0 0 0 0 0 0 0 0 0 0 0 2 2 3 3 2 3 3 ",
"4 2 0 0 0 3 - 0 q q q 0 0 0 q 0 9 0 0 0 0 0 0 3 3 3 2 3 3 3 0 3 ",
"2 4 2 2 3 3 3 - - - q q q 0 0 0 3 0 3 0 3 0 3 3 3 3 0 3 q 3 3 3 "
};
