/* XPM */
static char *E_S[] = {
/* columns rows colors chars-per-pixel */
"28 32 217 2 ",
"   c #000405",
".  c #00040C",
"X  c #010A0D",
"o  c #080D0B",
"O  c #010513",
"+  c #090713",
"@  c #010C14",
"#  c #0A0A15",
"$  c #0A061B",
"%  c #010D1B",
"&  c #0B0C1A",
"*  c #00061B",
"=  c #100F1A",
"-  c #021115",
";  c #0A1515",
":  c #02131C",
">  c #0B131D",
",  c #01191E",
"<  c #0C1A1D",
"1  c #12141D",
"2  c #050E21",
"3  c #080D20",
"4  c #021422",
"5  c #0A1320",
"6  c #021B22",
"7  c #0A1D24",
"8  c #021729",
"9  c #0C1628",
"0  c #011A2C",
"q  c #091F2B",
"w  c #121C22",
"e  c #1B1E26",
"r  c #151320",
"t  c #022126",
"y  c #0B2127",
"u  c #02242B",
"i  c #0C2529",
"p  c #002826",
"a  c #14292D",
"s  c #162828",
"d  c #1F342F",
"f  c #012233",
"g  c #0B2334",
"h  c #0C2A33",
"j  c #032639",
"k  c #022A3C",
"l  c #082B37",
"z  c #132C38",
"x  c #0D313A",
"c  c #06393C",
"v  c #023438",
"b  c #12353C",
"n  c #17373D",
"m  c #242C2F",
"M  c #202B3D",
"N  c #283637",
"B  c #002D41",
"V  c #083548",
"C  c #163E43",
"Z  c #1D3245",
"A  c #193C50",
"S  c #253D41",
"D  c #313F48",
"F  c #06484E",
"G  c #1B444B",
"H  c #1F484E",
"J  c #074857",
"K  c #144353",
"L  c #1B4957",
"P  c #065255",
"I  c #08555A",
"U  c #1B5459",
"Y  c #2B4549",
"T  c #394A4A",
"R  c #244E54",
"E  c #364E52",
"W  c #235D5F",
"Q  c #275357",
"!  c #395359",
"~  c #1F5266",
"^  c #175769",
"/  c #195B71",
"(  c #254E62",
")  c #2A5C65",
"_  c #265869",
"`  c #335F69",
"'  c #2C5F71",
"]  c #0F6E72",
"[  c #166A75",
"{  c #177277",
"}  c #0F646A",
"|  c #2A6667",
" . c #32646E",
".. c #3B646B",
"X. c #3D686F",
"o. c #256B7C",
"O. c #276E72",
"+. c #3E6B7E",
"@. c #277476",
"#. c #357375",
"$. c #37757D",
"%. c #43585D",
"&. c #52636B",
"*. c #466770",
"=. c #44757A",
"-. c #487479",
";. c #637A7F",
":. c #6A7F7C",
">. c #1E7B80",
",. c #2C7F8C",
"<. c #247384",
"1. c #37788A",
"2. c #466C81",
"3. c #467785",
"4. c #4E7D91",
"5. c #517B91",
"6. c #637B85",
"7. c #1E858C",
"8. c #2F8283",
"9. c #22868D",
"0. c #2B848B",
"q. c #248387",
"w. c #2C8393",
"e. c #298995",
"r. c #338393",
"t. c #36899B",
"y. c #2D929A",
"u. c #33949D",
"i. c #3B8588",
"p. c #1E9DAE",
"a. c #3D94A3",
"s. c #339BAD",
"d. c #3B9AAA",
"f. c #2699AB",
"g. c #1DA8BB",
"h. c #28ACBC",
"j. c #2EA8B7",
"k. c #3BA3B3",
"l. c #3FA6BC",
"z. c #3AACBA",
"x. c #448486",
"c. c #478C95",
"v. c #588A95",
"b. c #5E9B9D",
"n. c #579496",
"m. c #578384",
"M. c #68838A",
"N. c #788C8D",
"B. c #7E918F",
"V. c #618E93",
"C. c #798F93",
"Z. c #7A989A",
"A. c #538EA0",
"S. c #489AA7",
"D. c #5993A3",
"F. c #4F9CB1",
"G. c #579FB5",
"H. c #659BA9",
"J. c #739EA4",
"K. c #4CA3AA",
"L. c #55A9AA",
"P. c #43A4B4",
"I. c #48A8B9",
"U. c #5DA6B9",
"Y. c #57A7B7",
"T. c #49B1BA",
"R. c #6DA1A6",
"E. c #64A4B4",
"W. c #6DA3B3",
"Q. c #68A5B9",
"!. c #76AAB6",
"~. c #69B5BC",
"^. c #79B2BB",
"/. c #3AAFC2",
"(. c #2AB4C5",
"). c #3DB3C6",
"_. c #33B7C9",
"`. c #3CB7CB",
"'. c #43ADC3",
"]. c #46B3C4",
"[. c #4AB3C1",
"{. c #5DB7C5",
"}. c #6EACC1",
"|. c #78AFC3",
" X c #77B4C3",
".X c #76BECE",
"XX c #7CBACF",
"oX c #6DB7C4",
"OX c #52C1CC",
"+X c #73C1CD",
"@X c #66C5D7",
"#X c #829C9D",
"$X c #88AAB2",
"%X c #94BCBE",
"&X c #8AA4A5",
"*X c #83B8CB",
"=X c #86C3CB",
"-X c #89C6D6",
";X c #93CDD9",
":X c #97C2C8",
">X c #A6CACF",
",X c #A9C3C4",
"<X c #A7CDD0",
"1X c #BFD7DB",
"2X c #A5D6DB",
"3X c #95CCE0",
"4X c #94D7E4",
"5X c #83D5EA",
"6X c #BEDFE4",
"7X c #A2D6E3",
"8X c #99EBF9",
"9X c #A9F5FE",
"0X c #B8FEFF",
"qX c #C3D4DC",
"wX c #D1E9EB",
"eX c #D5FFFF",
"rX c LightCyan",
/* pixels */
", , 6 > & + + # X X - @ @ @ * # T   s < N e . . $ $ $ $ ",
", 6 , : & & & > : - - - : : * O   s T     1 e 1 $ $ $ $ ",
"t 6 : % & = 1 > < : - - : : * . d d   < m 1 . 1 $ $ $ $ ",
"6 , - % > > & @ X - - : : : % @ o :.N <   1 1 # + $ $ $ ",
", , , : 5 & * O X , p t - O * - s B.N ;   < r # # + # # ",
": , 6 5 % % % % z G R G 6 . . : N.:.s < s ;   # # + @ # ",
"- , 8 4 % % 6 l *.=.-.| b , @ @ S ;.N.p   @ w @ @ @ # @ ",
", 6 7 : * 2 g G v.n.n.=.R z < , , X ! h a : @ @ @ @ @ # ",
"- y X * 2 j 8 5.W.c.#.b.J.X qXC.*.=.Q u @ : 6 - @ @ @ X ",
", 7 @ 8 8 8 2 A.E.c.O.x.-.6X! N.R.^.^.H...x , : , : - @ ",
"< : @ i 8 8 8 G.~.S.} #.R.>X%.n  X+X4X9X;X3.l % 6 : : - ",
": : @ 8 8 B B A.i.0.<.i.W , qX>XU.P.{.8X0X3X1.j 0 4 % : ",
"X : % : 4 _ _ ,.a.} 0.~.O.Z.Z.$XK.s.k.@X9X9X X' k 4 % : ",
"- < 4 % 8 3.1.,.I.y.{ L.=XeXY p P.).).].@X5X.XA.V 0 % 4 ",
"- - 4 6 8 2.1.,.w.T.q.@.n.Q &X$Xk._.`.)./.F.Y.Q.L j % 4 ",
";   : q 8 ' <.,.I.7.9.L.#.p ,X2Xz.g.h.).'.d.F.}.~ k 2 4 ",
"; ; : * j ~ / t.T.9.] K.b.-.#X=.z.(._.).l.F.G.G.5.B 4 x ",
"- - : * j ~ ^ ,.e.y.] 8.n.rXi v OX(.p.f.s.F.G.|.1.f 4 z ",
"# - 4 % f A J <.0.e.{ 8.#.m.Z.V.T.h.j.z.I.F.Q.*X( 8 2 g ",
"- @ 4 3 f V V [ { 0.] O.| X wX:Xd.z.].[.U.U.Q.W.Z 8 8 0 ",
"- @ 6 % 0 B k ^ P ,.I P ) %XE ..L.].k.d.U.XXW.2.0 0 8 4 ",
"- @ 6 % 8 f f ^ [ I I O.c <Xy *.oX{.Y.Y.-X;X5.8 2 g 8 * ",
", @ , % 4 0 u ^ 1.F I x.v u ;.$X=X.X.X-X*XA.A 3 2 Z 9 O ",
", @ : % 4 4 0 ) K $.F U ..N &.6.4X;X-X!.' 2 * S 3 z 9 O ",
"- : : 7 % % f G  .U v | ..M.Y 7 -. .K f 2 % 4 4 2 3 3 2 ",
", : : 4 2 * 8 b R H c Q n Y > * 4 , 6 : 4 4 4 4 2 2 2 3 ",
"6 , : , % % % 8 n H G H 6 , . % . X - 6 6 4 % % 3 2 2 3 ",
"t , : : & & % % t x n x , @ @ 5 s 7 < : : @ : % * 2 2 3 ",
", , : % : & & @ : - , - : * % # > ; @ X X @ - < : % 2 3 ",
", , : % & 1 & @ , X - X , @ % .     X X ; @ @ @ & : 2 : ",
", t 6 % + = = # < @ 7 X 7 @ 3 O o o ; ; ; - . . : : 4 2 ",
"6 u y @ O # = # X @ i X 8 . 5 # o o o o X X X # % : % 2 "
};
