/* XPM */
static char *E_S[] = {
/* columns rows colors chars-per-pixel */
"32 32 225 2 ",
"   c #000204",
".  c #000A06",
"X  c #01020B",
"o  c #09050C",
"O  c #010A0D",
"+  c #0B080F",
"@  c #01110D",
"#  c #020413",
"$  c #0C0413",
"%  c #020C14",
"&  c #0A0B15",
"*  c #030D1B",
"=  c #0A0B1A",
"-  c #080519",
";  c #130316",
":  c #14051A",
">  c #100B1B",
",  c #19031A",
"<  c #041314",
"1  c #0A1213",
"2  c #031914",
"3  c #03131C",
"4  c #0A121B",
"5  c #001B1C",
"6  c #0C1A1C",
"7  c #12111D",
"8  c #18171F",
"9  c #00231C",
"0  c #0D201E",
"q  c #030E21",
"w  c #0A0D21",
"e  c #021422",
"r  c #0B1422",
"t  c #011B23",
"y  c #0B1A25",
"u  c #021629",
"i  c #011C2B",
"p  c #0A1B2A",
"a  c #0E162B",
"s  c #131A21",
"d  c #19192A",
"f  c #121529",
"g  c #001E33",
"h  c #012422",
"j  c #01232B",
"k  c #0A222E",
"l  c #00292E",
"z  c #082725",
"x  c #19292B",
"c  c #032B35",
"v  c #062C3A",
"b  c #072935",
"n  c #172936",
"m  c #003336",
"M  c #02333A",
"N  c #0D333C",
"B  c #13343B",
"V  c #232B2B",
"C  c #253535",
"Z  c #003541",
"A  c #0C3142",
"S  c #013C42",
"D  c #023E48",
"F  c #0B394D",
"G  c #143C48",
"H  c #173C44",
"J  c #0F3B52",
"K  c #032741",
"L  c #3A3B40",
"P  c #07464A",
"I  c #15464B",
"U  c #0C4B52",
"Y  c #064953",
"T  c #184957",
"R  c #075959",
"E  c #145354",
"W  c #1C505B",
"Q  c #145B5D",
"!  c #1A5E5F",
"~  c #29444B",
"^  c #234B54",
"/  c #324C57",
"(  c #26575B",
")  c #3A5E5E",
"_  c #314347",
"`  c #1A605E",
"'  c #095E61",
"]  c #125562",
"[  c #1B5561",
"{  c #255A69",
"}  c #345E6C",
"|  c #0F6866",
" . c #196664",
".. c #156A6D",
"X. c #166766",
"o. c #15716E",
"O. c #1C6D70",
"+. c #1D7976",
"@. c #1A7473",
"#. c #23656C",
"$. c #276166",
"%. c #286C74",
"&. c #366B76",
"*. c #247976",
"=. c #297879",
"-. c #34767E",
";. c #387678",
":. c #3F646C",
">. c #406E6E",
",. c #496C79",
"<. c #457678",
"1. c #4B717E",
"2. c #657777",
"3. c #26817E",
"4. c #34807E",
"5. c #3C7485",
"6. c #367A84",
"7. c #457A83",
"8. c #527E89",
"9. c #18879A",
"0. c #2B8084",
"q. c #2A8987",
"w. c #2C8A89",
"e. c #238181",
"r. c #37888A",
"t. c #3B908D",
"y. c #3D8F94",
"u. c #389597",
"i. c #27939F",
"p. c #1F9DAB",
"a. c #2E91A4",
"s. c #3699AA",
"d. c #1AA2AF",
"f. c #1BA9B6",
"g. c #09A3AF",
"h. c #2BA8B9",
"j. c #33A7B7",
"k. c #23B4BF",
"l. c #2CB3BE",
"z. c #26B1B6",
"x. c #35B5BE",
"c. c #48878B",
"v. c #50808C",
"b. c #438B93",
"n. c #498A9C",
"m. c #5A8893",
"M. c #4B9698",
"N. c #56979A",
"B. c #69908F",
"V. c #67959E",
"C. c #6D8F96",
"Z. c #47A19F",
"A. c #499AA4",
"S. c #4A96A8",
"D. c #5194A7",
"F. c #549CA4",
"G. c #5998A6",
"H. c #5A9FB2",
"J. c #4F8EA3",
"K. c #649CAA",
"L. c #799AA6",
"P. c #678DA2",
"I. c #4AA4A5",
"U. c #4BA6AA",
"Y. c #47A8B7",
"T. c #58AAB6",
"R. c #59B2B9",
"E. c #53AAAD",
"W. c #65AAAC",
"Q. c #69A6AA",
"!. c #7AA0AD",
"~. c #79A9B4",
"^. c #68B8BD",
"/. c #7DB6BF",
"(. c #1EB4C2",
"). c #25B9C4",
"_. c #28B9C5",
"`. c #36B4C2",
"'. c #3BB7C6",
"]. c #38BDC6",
"[. c #58AFC0",
"{. c #43B8C4",
"}. c #54B8C7",
"|. c #67BBC8",
" X c #76B3C4",
".X c #6DBED1",
"XX c #62A8C1",
"oX c #2AC2CF",
"OX c #32C1CF",
"+X c #33C7D5",
"@X c #4AC5CD",
"#X c #50C9D1",
"$X c #52C8D2",
"%X c #6CC1CA",
"&X c #67CBD3",
"*X c #63C6D6",
"=X c #78CBD2",
"-X c #67D3D9",
";X c #7DD0D8",
":X c #4FD3E0",
">X c #70D8E3",
",X c #6EE1F3",
"<X c #74F0FC",
"1X c #76E5EE",
"2X c #839997",
"3X c #80B1B8",
"4X c #93B1BB",
"5X c #AABDBB",
"6X c #8DBFD8",
"7X c #83C7CE",
"8X c #8EC0D9",
"9X c #99CBDB",
"0X c #8FD5DD",
"qX c #A2C0CB",
"wX c #BBD3D5",
"eX c #87DCE5",
"rX c #A5D3E3",
"tX c #92FEFF",
"yX c #99FBFF",
"uX c #8EE5F1",
"iX c #AAFFFF",
"pX c #C2E8FF",
"aX c #C9F7FF",
"sX c #D6FFFF",
"dX c LightCyan",
/* pixels */
"2 < 1 1 & > - * u u % # e 3 # > X o V C   @ V 1 . o + + 2 5 h h ",
"2 < @ + & > = q e i 3 3 3 % X 4 8 C + V 5Xx   V o o + O < 5 9 h ",
"2 @ 1 1 & = q q 3 i h l k < X 4 X +   2.2X. z C + + + & % 5 t 9 ",
"1 1 1 + = = q e % c I ^ ^ b % y 1 X _ wXh 2 C X 1 & & & % 3 5 t ",
"@ 1 1 & = * e u j W &.;.<.( j < * 4 ~ C.) B.k < * = - > = 3 5 3 ",
"1 < % & & * e u ( c.N.c.c.<.B < n O z < >.<.2 B e r = = = & * 1 ",
"< O & & * 3 u i <.W.I.4.c.N.$.9 L./ :.l E m 5 3 u e w = = $ & = ",
"@ & % % * e u h N.^.Z.` 4.Q.7.m 4XqX~.V.Q.F.%.D j u e w - > & $ ",
"O s X % p # u j b.I.Z.+.4.M.Q.sXv G L.6X=X|.=Xy.W e - a f # o $ ",
"O s X % e * c m F.R.I.o.*.r.;.B.1.} c.^.|.yXiXeXS.T u u q # $ X ",
"# s # * * e J Y t.Z.w.| t.M.P i aX9XH.^.u.,XtXtXyXD.T g # # ;   ",
"O r * e * i { #...3.w.+.M.W.<.7.L.K.T.[.a.}.<XtXyX.X5.K # % > X ",
"% 4 * p * v 7.6...u.U.w.t.N.3XdXg J J.{.'._.:X:X,X|.D.{ e % r # ",
"% % 3 p * A 7.%.u.I.I.e.M.N.8.~.P.8.H.a.}.d.(.d.`.{.T.5.v % 3 1 ",
"4 % 3 p # A 5.] A.Y.u...N.~.^ # pX6XD.a.'._._.].d.j.[.n.G % % < ",
"y % * p # v &.D 6.R.E.' 6. X<.v 9X6XJ.{.(._.(.(.d.j.R.F.T % % < ",
"3 e q * e N E Q u.w.u.+.%.c.~.sXK J XX[.x.f.k.k.k.9.|. XA # x O ",
"e u e * 3 b P U t.+.q.w.w.6.K.sXJ F 8.s.].k.).k.'.j.|.H.v e x X ",
"e e e % 3 j M P =.3.w.@.6.b.[ T 9XJ.XXh.x.k.).).l.$X.X5.j 3 p O ",
"e e e * 3 i m P X.*.e.R ..6.S 3 pX X.Xj.x.z.).oXa.$X|.#.u 5 3 < ",
"e 3 w e e i c M  .R | o.| Y #.0X} ] U.Y.OXz.l.].{.*Xb.Z t t 5 O ",
"= w * r e u l M E R | | ` ] &.9XZ J E.R.@X{.@X@X>XY.Y * t n 4   ",
"r * * r r * t l E ` O.P ] -.U M 8.m.eX%X&X-X-X&XS.[ u q p y * X ",
"r * = r * # % 9 ! ` ` R  .$.v c m.P.rX7X0XeX=XZ.Z q q n f X X 7 ",
"4 4 = 3 = 3 e t ( ` ` ` ! E &.!.k / C.~.K.6.Y l i u w w : $ $ $ ",
"5 3 3 = = 4 e t ^ ( E P I I / ,.* e k j t 3 * 3 e w = : , : ; $ ",
"5 5 1 * 4 = 4 5 c I I m I ^ B k w w % # O % * 3 w = , , , ; ; $ ",
"5 5 3 3 = 3 3 3 5 N H I ^ ~ e # # $ % 3 6 e 3 # - ; ; , ; > & = ",
"9 2 5 % 3 4 3 3 % t c H ^ p # # 7 # X X @ 2 4 1 o $ $ ; = 4 3 5 ",
"9 5 5 5 * % & 3 3 5 5 t k # # d 7 & O < 6 0 6 1   o o & % 4 5 t ",
"9 9 2 2 1 % % 3 < t * # q * # d X   O < 2 2 .       X O 2 9 h h ",
"9 9 5 5 < % 4 % X p t # e a w $ 1 1 O . . @ 1 6     X O 5 9 9 l "
};
