/* XPM */
static char *E_S[] = {
/* columns rows colors chars-per-pixel */
"32 32 225 2 ",
"   c #000205",
".  c #000B06",
"X  c #01020B",
"o  c #09050C",
"O  c #020A0D",
"+  c #0B080F",
"@  c #01120D",
"#  c #020413",
"$  c #0C0413",
"%  c #020C14",
"&  c #0A0B15",
"*  c #030D1B",
"=  c #0A0B1A",
"-  c #080519",
";  c #130316",
":  c #14051A",
">  c #110C1B",
",  c #19031A",
"<  c #041314",
"1  c #0B1214",
"2  c #041913",
"3  c #02131B",
"4  c #0A121B",
"5  c #001B1C",
"6  c #0D1B1B",
"7  c #13121D",
"8  c #00231C",
"9  c #0D201E",
"0  c #030E22",
"q  c #0A0D21",
"w  c #021422",
"e  c #0B1422",
"r  c #001B23",
"t  c #0B1A25",
"y  c #021629",
"u  c #011C2B",
"i  c #0A1C2A",
"p  c #0E162B",
"a  c #131A21",
"s  c #19192A",
"d  c #131629",
"f  c #001E33",
"g  c #012422",
"h  c #01232B",
"j  c #0A222E",
"k  c #00292E",
"l  c #052A28",
"z  c #172729",
"x  c #002632",
"c  c #032B35",
"v  c #0A2C33",
"b  c #062C3B",
"n  c #0A2A38",
"m  c #172936",
"M  c #003336",
"N  c #02333A",
"B  c #0D333C",
"V  c #15363D",
"C  c #242C2C",
"Z  c #263636",
"A  c #393A3F",
"S  c #003541",
"D  c #0C3242",
"F  c #013C42",
"G  c #033F49",
"H  c #0B394D",
"J  c #143C48",
"K  c #173C44",
"L  c #0F3B52",
"P  c #032741",
"I  c #07464A",
"U  c #15464B",
"Y  c #0C4B52",
"T  c #064954",
"R  c #184957",
"E  c #075959",
"W  c #145354",
"Q  c #1C505B",
"!  c #145B5D",
"~  c #1A5E5F",
"^  c #29444B",
"/  c #304246",
"(  c #234B54",
")  c #2F4A53",
"_  c #26575B",
"`  c #3B5F5F",
"'  c #334D5A",
"]  c #1A605E",
"[  c #095E61",
"{  c #125461",
"}  c #1B5561",
"|  c #285767",
" . c #345E6C",
".. c #0F6866",
"X. c #196664",
"o. c #156A6D",
"O. c #166766",
"+. c #15716E",
"@. c #1C6D70",
"#. c #1D7976",
"$. c #1A7473",
"%. c #23646C",
"&. c #276166",
"*. c #296D75",
"=. c #366B76",
"-. c #247976",
";. c #297879",
":. c #34767E",
">. c #387678",
",. c #3E636B",
"<. c #416F6F",
"1. c #496C79",
"2. c #457679",
"3. c #4B717E",
"4. c #647676",
"5. c #26817E",
"6. c #34807E",
"7. c #3C7485",
"8. c #377A84",
"9. c #457A83",
"0. c #527E89",
"q. c #178699",
"w. c #2B8084",
"e. c #2A8987",
"r. c #2C8A89",
"t. c #238181",
"y. c #37888A",
"u. c #3B908D",
"i. c #3D8F94",
"p. c #389597",
"a. c #27939F",
"s. c #1D9BA9",
"d. c #2E91A4",
"f. c #3699AA",
"g. c #1AA2AF",
"h. c #1BA9B6",
"j. c #09A3AF",
"k. c #2AACBB",
"l. c #2EA1B3",
"z. c #32A7B7",
"x. c #23B4BF",
"c. c #28B4BA",
"v. c #35B5BE",
"b. c #48878B",
"n. c #50808C",
"m. c #438B93",
"M. c #498A9C",
"N. c #5A8893",
"B. c #4B9698",
"V. c #56979A",
"C. c #689499",
"Z. c #6D8F96",
"A. c #47A19F",
"S. c #4997A6",
"D. c #5194A7",
"F. c #579BA6",
"G. c #5A9FB2",
"H. c #4F8EA3",
"J. c #649BA9",
"K. c #7899A5",
"L. c #678DA2",
"P. c #4AA4A5",
"I. c #4BA6AA",
"U. c #47A8B6",
"Y. c #58AAB6",
"T. c #4FB2B8",
"R. c #59B2B9",
"E. c #56A2A2",
"W. c #66A8AA",
"Q. c #7AA3AE",
"!. c #78A9B4",
"~. c #68B8BD",
"^. c #7DB6BF",
"/. c #67AAB0",
"(. c #1EB4C2",
"). c #25B9C4",
"_. c #28B9C5",
"`. c #36B4C2",
"'. c #3BB7C6",
"]. c #37BDC6",
"[. c #58AFC0",
"{. c #45B3C2",
"}. c #42BCC5",
"|. c #54B7C7",
" X c #67BBC8",
".X c #76B4C4",
"XX c #6DBED1",
"oX c #62A8C1",
"OX c #2AC2CF",
"+X c #32C1CF",
"@X c #33C7D5",
"#X c #4AC5CD",
"$X c #50C9D1",
"%X c #52C8D2",
"&X c #6CC1CA",
"*X c #64C8D4",
"=X c #78CBD2",
"-X c #67D3D9",
";X c #7DD0D8",
":X c #4FD3E0",
">X c #6FD7E2",
",X c #6EE1F3",
"<X c #74F0FC",
"1X c #76E5EE",
"2X c #839997",
"3X c #91AFB9",
"4X c #80B1B8",
"5X c #ABBEBC",
"6X c #8DBFD8",
"7X c #A0BEC9",
"8X c #83C7CE",
"9X c #8EC0D9",
"0X c #99CBDB",
"qX c #8FD5DD",
"wX c #BAD2D4",
"eX c #87DCE5",
"rX c #A5D3E3",
"tX c #92FEFF",
"yX c #99FBFF",
"uX c #8EE5F1",
"iX c #AAFFFF",
"pX c #C2E8FF",
"aX c #C9F7FF",
"sX c #D6FFFF",
"dX c LightCyan",
/* pixels */
"2 2 1 & & $ = 0 w y % % w 3 # >     C Z . @ C 1 o o o O < 5 g g ",
"2 2 < + & = = 0 w u 3 3 w # X = 7 A X C 5Xz   C o o + + < 5 g g ",
"1 @ 1 & = = = 0 * u h l j < X 4 X O   4.2X. z Z @ + + & 3 5 5 g ",
"@ 1 1 & & = w w % c U ( ( v % t & X / wX8 5 Z   + 1 & = * 3 5 5 ",
"1 1 & & = 0 w w h Q >.2.2.( h < % 3 / Z.` Z.l 3 3 = - > & * 3 5 ",
"@ @ < & & * w y _ b.B.b.b.2.K < m O h < <.2.3 V w e = = = & * 3 ",
"& @ & & * w y u 2.W.E.6.b.V.&.8 K.) <.h U M 8 r y w q = = & & = ",
"< & % % * 3 r h B.~.A.X.6.W.2.M 3X7XQ.C./.E.*.G u y w = - ; & $ ",
"X a X % t # y h m.P.A.#.:.B.W.sXn J Q.6X=X X;Xi.} 0 - p p # X $ ",
"O a X % w * x N E.R.P.+.-.y.>.C.3. .b.~. XyXiXeXD.R y y - # $ o ",
"% a # * 0 w H T B.p.r...u.B.I u aX0XJ. Xd.1XtXtXyXD.R f # - -   ",
"O e % w * u | %.o.t.e.#.B.W.2.9.K.J.G.R.a.}.<XtXyXXX7.P # % > X ",
"% = * i * b 9.8.o.p.I.r.u.V.4XdXf L H.{.}.k.:X:X,XXXD.| w % 4 # ",
"% 3 3 i * D 9.*.p.P.P.5.B.V.0.!.L.0.G.d.#Xg.h.h.`.{.Y.7.b % 3 1 ",
"3 % 3 i # P 7.! S.I.p.o.V.!.( # pX9XD.d.`._._.@Xg.l.[.M.J % % < ",
"4 * 3 i # b =.I 8.R.T.[ 8..X2.b rX9XH.{.`.@Xj.(.h.l.R.D.R % % < ",
"3 w w # w B W ! p.r.p.#.*.b.!.sXP L oXU.v.c.x.(.k.q.XX.XD # z % ",
"w y w * 3 v I Y i.#.e.r.r.8.J.sXH H H.f.+Xx.).h.].l. XG.N 3 z X ",
"w w w * * h N I -.5.e.+.8.i.} R rXH.oXf.v.c.OXc.`.|.*X7.x 3 t O ",
"w w w * w u M I O.-.5.E @.8.F w pX.XXXz.v.h.c.+Xs.%XXX| r 3 3 < ",
"w 0 = w w u c N X.E ..+.X.T &.0X .{ I.U.#Xc.c.].}.*XM.S r h 3 O ",
"4 * = e y w k N W E O.....{ =.0XS G Y.T.#Xv.$X$X>XU.T * r m 6   ",
"e * = e e * r k Y X.+.I { :.Y N 0.N.eX&X*X-X-X%XS.{ u 0 i p % O ",
"t * * e * # < 8 _ ] ] E X.%.c c N.L.rX8XqXeX=XA.S * 0 m d X X > ",
"4 4 * = = 4 w r _ ] ] ] ~ W =.K.i ' Z.!.W.:.T x y y 0 q : : $ $ ",
"3 3 4 * 4 4 w r U _ W I U ( ' 1.* w i h r 3 * 3 w q : : : ; ; $ ",
"5 5 3 3 = = 4 5 M ( U M U ( V m e = # % # % * 3 q : : , ; ; ; $ ",
"5 5 3 1 3 * 3 w 5 v U K ( K w X - - % 3 r 6 3 # - ; ; ; : > = = ",
"8 5 5 < = * 3 3 < h k K ( i # # = + X X @ < < 1 o o $ ; = 4 < 3 ",
"8 8 5 3 1 3 * 1 3 3 3 h j # # s 7 & O < 6 9 6 7 o o o & & 3 r g ",
"8 8 5 2 1 * * * * w * % 0 # # s X   O 2 2 2 .       X O 3 8 g g ",
"8 8 5 < < % 1 % O g w # y p q $ & < O . . O 2 6     O O < 8 8 l "
};
