/* XPM */
static char *E_W[] = {
/* columns rows colors chars-per-pixel */
"28 32 220 2 ",
"   c #000405",
".  c #000905",
"X  c #01030B",
"o  c #000C0B",
"O  c #01120D",
"+  c #020411",
"@  c #0B0413",
"#  c #020D14",
"$  c #0B0C14",
"%  c #040E1B",
"&  c #0A0D1B",
"*  c #130A1A",
"=  c #120516",
"-  c #021314",
";  c #091315",
":  c #021A14",
">  c #03131C",
",  c #0A131D",
"<  c #021A1F",
"1  c #0A1E14",
"2  c #131B1F",
"3  c #14111A",
"4  c #06211A",
"5  c #050F21",
"6  c #080D20",
"7  c #120F20",
"8  c #021222",
"9  c #091421",
"0  c #021B24",
"q  c #0A1B22",
"w  c #001729",
"e  c #011C2B",
"r  c #131B23",
"t  c #191825",
"y  c #231F30",
"u  c #032422",
"i  c #03222C",
"p  c #0D222A",
"a  c #092726",
"s  c #162529",
"d  c #1B312E",
"f  c #022432",
"g  c #002B35",
"h  c #0B2A35",
"j  c #002C3A",
"k  c #122B30",
"l  c #01323C",
"z  c #063337",
"x  c #143A3C",
"c  c #193838",
"v  c #23212D",
"b  c #213332",
"n  c #28303C",
"m  c #30393E",
"M  c #2A2937",
"N  c #043744",
"B  c #083A49",
"V  c #133F4C",
"C  c #123A45",
"Z  c #183F50",
"A  c #253C42",
"S  c #09434C",
"D  c #124145",
"F  c #1D454C",
"G  c #17464A",
"H  c #1B544E",
"J  c #1A4C55",
"K  c #164F59",
"L  c #164952",
"P  c #18585B",
"I  c #0A4E56",
"U  c #36474C",
"Y  c #20524F",
"T  c #31544E",
"R  c #274A57",
"E  c #2A5459",
"W  c #395456",
"Q  c #264246",
"!  c #3B645E",
"~  c #1C5C64",
"^  c #145F64",
"/  c #2D4D62",
"(  c #275B69",
")  c #335D69",
"_  c #2E5F70",
"`  c #305D70",
"'  c #0D6366",
"]  c #186368",
"[  c #146D73",
"{  c #167079",
"}  c #1B737A",
"|  c #147176",
" . c #0F7579",
".. c #2D6464",
"X. c #2B6569",
"o. c #396262",
"O. c #376066",
"+. c #2A6C75",
"@. c #3E6F72",
"#. c #346875",
"$. c #277377",
"%. c #237279",
"&. c #2B7C7F",
"*. c #39777D",
"=. c #445159",
"-. c #405F65",
";. c #5D5C64",
":. c #426568",
">. c #556A6F",
",. c #486C77",
"<. c #437373",
"1. c #457678",
"2. c #606368",
"3. c #676D73",
"4. c #0F7C81",
"5. c #147B81",
"6. c #1A7B82",
"7. c #2D7E8A",
"8. c #3B7584",
"9. c #357A86",
"0. c #3A7A88",
"q. c #477C87",
"w. c #557580",
"e. c #617D81",
"r. c #7A7D84",
"t. c #118183",
"y. c #2F848B",
"u. c #38858B",
"i. c #2E8898",
"p. c #398B96",
"a. c #29929A",
"s. c #369299",
"d. c #0B90AF",
"f. c #189AA4",
"g. c #2C96AE",
"h. c #3A99A1",
"j. c #2A98B2",
"k. c #319FB8",
"l. c #1CA3B8",
"z. c #26A0AF",
"x. c #3DA1A8",
"c. c #36A7AF",
"v. c #25A7BB",
"b. c #3AA8B7",
"n. c #458B95",
"m. c #558C99",
"M. c #49939E",
"N. c #44959D",
"B. c #529399",
"V. c #578C84",
"C. c #618B86",
"Z. c #648588",
"A. c #62939C",
"S. c #679697",
"D. c #7EA19B",
"F. c #439DA4",
"G. c #4C98A8",
"H. c #5599A5",
"J. c #669CA1",
"K. c #7D9CA1",
"L. c #4CA5AD",
"P. c #4EA0B8",
"I. c #58AAB7",
"U. c #53B5BD",
"Y. c #56A0A9",
"T. c #6CA4A9",
"R. c #72A7AA",
"E. c #64AEBB",
"W. c #67ACB6",
"Q. c #74AAB2",
"!. c #6EB1BA",
"~. c #71B4BD",
"^. c #1CA3C2",
"/. c #26A9C9",
"(. c #3FA9C1",
"). c #3DBACD",
"_. c #34B6C8",
"`. c #37BAD8",
"'. c #2CB5D5",
"]. c #58ADC2",
"[. c #4CBCC8",
"{. c #41B0C4",
"}. c #5ABAC7",
"|. c #41A9C6",
" X c #79BBC4",
".X c #61BAC8",
"XX c #42C5CF",
"oX c #48C6DE",
"OX c #57C8D7",
"+X c #69C5D7",
"@X c #77CCD7",
"#X c #6EC6CA",
"$X c #5AD5F7",
"%X c #74CFE2",
"&X c #65D7E4",
"*X c #72D4E1",
"=X c #79EBF6",
"-X c #858D90",
";X c #86878C",
":X c #9294A0",
">X c #92A1A6",
",X c #83B0B5",
"<X c #95BAB3",
"1X c #92C5BE",
"2X c #9ABCC6",
"3X c #85C3C3",
"4X c #98C9CD",
"5X c #90CED9",
"6X c #A8CAC9",
"7X c #81D7E4",
"8X c #8AE0ED",
"9X c #9AEDF5",
"0X c #93F7FF",
"qX c #B0EFF8",
"wX c #A3FFFF",
"eX c #B4FCFF",
"rX c #A8E5E8",
"tX c #C8F8FD",
"yX c #D1F8F5",
"uX c #EDFFFF",
/* pixels */
"- - - : : : : O 1 1 o o 4 ; + o # # & # > > > - > : < > ",
"> < - - O o . O O : o o : > - > # # # # # > > > > > > 0 ",
"> > > - .   O : . o o o o # - > q > > - - > > < 0 > 0 > ",
"$ ; ; & ; ; ; : # - ; > # # # X A c k p 0 - - < > > > > ",
"* = @ $ , , - X q - > - X > s - R F x c i > > 0 8 > > , ",
"* = @ & & % + # % + > > X s =.U Q D D G z < > 0 > , 9 9 ",
"@ = 6 & + % e j V L ,.o.h Q >.! G S H Y D 0 > 0 8 9 9 % ",
"X & r 8 5 w N ~ W. XqX5X<.E ! x P P ~ ..J i > 8 8 > , , ",
"* X p e 5 I G.%X}.9X%XW.3X@.u H P [ ~ ~ J j 5 w 8 % & & ",
"$ o 0 i B p.[.}.&Xa.].#Xz H 1XH P ' ^ ~ K j w e 5 9 5 & ",
"O < > g 7.+XOX_.).z.[.U.$.1.V.H ' ' ] ^ K N e e 8 5 % & ",
"- u - I I.OX`.l.l.oXOXa.9X3XO ..%.[ %.+.K N f w 8 5 5 5 ",
"O u > &.+X{./.^.`.v.b.g.n.J.C.:.y.} 7.u.~ Z N w 8 8 5 5 ",
"o - > H.%Xj./.'.`.'.k.].l ) uX,.u.[ u.G.8.( R w 5 5 8 % ",
"o o 0 H.+Xg.[./.^.$X|.P.m.1.>Xw.n.{ p.I.0.` / e 8 5 8 , ",
"$ # > m.].g.oXd.^.).(.i.tX2XX >Xn.6.h.W.0._ / 5 8 8 5 8 ",
"t + w #.G.c.v._.v.f.XXs.H.Q.:.S.p.4.x.I.9.q.,.5 8 8 6 6 ",
"7 + + L Y.*X&XXX_.f.c.L.z ..yXR.h.t.a.L.7.8.` w 8 6 6 6 ",
"+ + # f 9.7X0X=XOXc.x.N.~.R.! B.F.t.} s.9.( Z e 8 5 6 6 ",
"X 9 0 % N G.8X0X0X#XY.n.rX4X4 @.u. .} p.0.S e w 8 6 6 6 ",
"X $ q > > S n.5XwXW.~.R.a <.yX<.&.| y.Y.0.l % w 5 5 6 6 ",
"o   o > 0 w C ` m.A.4X,X! V.1XS.u.} N.!.*.f 5 e 5 5 5 & ",
"o . o > > % 5 e p ) Z.:.6X>X. C.B.$.B.Q.( e i e 8 5 6 & ",
". ; - o X X # 5 9 n o X a a c ! J.X.B.S.V 9 h 8 8 % 6 6 ",
"O O ; o $ $ $ $ M :X3.U   b 4 T <.q.1.L i 0 w 8 5 % & 9 ",
"O O O $ $ $ & $   v r.-Xv : s . F E R h 8 > 8 % > 8 % , ",
"o O o o $ $ @ @ 3 ;.;X$ ;   b - > i i % # > 8 # % % % % ",
"; # ; $ o $ $ ; $ 2.3.  2 O 2 o + # % # % 0 9 % % , , % ",
"; # O $ $ # O o s . t m r X t X # # % # , q 9 # > % , % ",
"# $ % # O ; - - b : . r X 3 $ v $ & % & , ; & # % , % , ",
"$ & % # - - - - . U p # t m X @ $ * % $ $ % % & , % % % ",
"= # % - - - - : a O q s X + y t & $ $ $ % $ & q & > , % "
};
