/* XPM */
static char *E_W[] = {
/* columns rows colors chars-per-pixel */
"32 32 218 2 ",
"   c #010203",
".  c #010A03",
"X  c #02050A",
"o  c #0B0509",
"O  c #030B0D",
"+  c #0A0A0D",
"@  c #0B0606",
"#  c #001106",
"$  c #03130C",
"%  c #00180A",
"&  c #010515",
"*  c #0C0513",
"=  c #020C14",
"-  c #0A0A13",
";  c #030D1A",
":  c #0B0D1B",
">  c #05061A",
",  c #130714",
"<  c #120912",
"1  c #120A1B",
"2  c #140719",
"3  c #011314",
"4  c #0A1413",
"5  c #021B13",
"6  c #0D1A14",
"7  c #01131B",
"8  c #0B141C",
"9  c #011B1A",
"0  c #091A1A",
"q  c #121214",
"w  c #151D1B",
"e  c #14121A",
"r  c #002315",
"t  c #00231C",
"y  c #082619",
"u  c #1C241E",
"i  c #020D21",
"p  c #0B0F22",
"a  c #100E23",
"s  c #021522",
"d  c #0B1324",
"f  c #001B22",
"g  c #091B25",
"h  c #021D2A",
"j  c #131B2C",
"k  c #121824",
"l  c #031C33",
"z  c #241F25",
"x  c #012124",
"c  c #002924",
"v  c #01242A",
"b  c #04292B",
"n  c #0C2A2D",
"m  c #1A2724",
"M  c #012531",
"N  c #0C2A34",
"B  c #042D33",
"V  c #122A3B",
"C  c #013235",
"Z  c #03343D",
"A  c #003A3D",
"S  c #0C3339",
"D  c #16363A",
"F  c #19372D",
"G  c #30322F",
"H  c #222D32",
"J  c #2A3733",
"K  c #00403F",
"L  c #043243",
"P  c #003A45",
"I  c #173C46",
"U  c #2A3F42",
"Y  c #024042",
"T  c #0A4D4F",
"R  c #084348",
"E  c #144243",
"W  c #1A454B",
"Q  c #1C4A4D",
"!  c #16434A",
"~  c #004B52",
"^  c #084552",
"/  c #174C56",
"(  c #035454",
")  c #085858",
"_  c #175757",
"`  c #244748",
"'  c #274B56",
"]  c #245A5C",
"[  c #265358",
"{  c #3F5C5A",
"}  c #295C68",
"|  c #395867",
" . c #0B6A69",
".. c #156363",
"X. c #1A6A6B",
"o. c #1B6869",
"O. c #196C72",
"+. c #1C7473",
"@. c #1A7877",
"#. c #14736D",
"$. c #226C6C",
"%. c #2A6769",
"&. c #346367",
"*. c #37676D",
"=. c #256774",
"-. c #3E6D73",
";. c #24727F",
":. c #2B7B7D",
">. c #247875",
",. c #377778",
"<. c #425654",
"1. c #4D5E66",
"2. c #467B7C",
"3. c #5F7D7B",
"4. c #486B7F",
"5. c #29827E",
"6. c #2A7783",
"7. c #3B7E83",
"8. c #337B87",
"9. c #3C7D91",
"0. c #457B8C",
"q. c #59798B",
"w. c #4F7C93",
"e. c #687C95",
"r. c #09919D",
"t. c #298282",
"y. c #288888",
"u. c #338C8B",
"i. c #378583",
"p. c #33918C",
"a. c #288A95",
"s. c #3D8A92",
"d. c #369294",
"f. c #1499AE",
"g. c #3499AD",
"h. c #389EB3",
"j. c #2B9CAC",
"k. c #1EB1BB",
"l. c #29A8B7",
"z. c #34A5B2",
"x. c #37A8B7",
"c. c #34A4AF",
"v. c #48858A",
"b. c #498996",
"n. c #5B8F9E",
"m. c #5E8990",
"M. c #469D9E",
"N. c #559394",
"B. c #6A8A94",
"V. c #689092",
"C. c #44A09F",
"Z. c #4C94A2",
"A. c #4B9AAB",
"S. c #599DAB",
"D. c #5A97A6",
"F. c #539BB1",
"G. c #749EA9",
"H. c #629EB0",
"J. c #6391A9",
"K. c #5EA2AC",
"L. c #58A8A9",
"P. c #5AB1AB",
"I. c #4AACBC",
"U. c #5AACBA",
"Y. c #5BB6B7",
"T. c #5BB3BF",
"R. c #53B5B9",
"E. c #49B2B3",
"W. c #66A6AA",
"Q. c #75A3A5",
"!. c #68B0AD",
"~. c #68ADB7",
"^. c #78ACB9",
"/. c #67B6B8",
"(. c #73B5BB",
"). c #6BC1BE",
"_. c #2AB9C6",
"`. c #38B9C8",
"'. c #30AEC4",
"]. c #47B9C6",
"[. c #5CB5C3",
"{. c #71BCC2",
"}. c #74BFD3",
"|. c #67BBC6",
" X c #3DC3CE",
".X c #3EC0D6",
"XX c #47C3CB",
"oX c #41C6D6",
"OX c #50C6D2",
"+X c #4ED1D9",
"@X c #69CDDB",
"#X c #78CBD9",
"$X c #68D2D6",
"%X c #7EDCDE",
"&X c #64CACC",
"*X c #54D5E2",
"=X c #6FD7E2",
"-X c #75E9F3",
";X c #92A19E",
":X c #849CA8",
">X c #8BA9B1",
",X c #89B9C1",
"<X c #98B9CE",
"1X c #9FBDD5",
"2X c #91CDD5",
"3X c #BFD3DE",
"4X c #A8D1E4",
"5X c #96EDF7",
"6X c #8CFEFF",
"7X c #94FCFF",
"8X c #8AE7EE",
"9X c #A8F0EF",
"0X c #A4FDFF",
"qX c #AEE4E9",
"wX c #C2D3D4",
"eX c #C3EAFC",
"rX c #CDFEFF",
"tX c #D4FAFF",
/* pixels */
"r r 5 5 O - + O X 0 $ . . 5 6 w   k 8 . 7 x 3 O = > : ; 7 9 f f ",
"r r 5 3 O + * + . 3 5 5 % $ . . . = O = 9 5 3 g = = > : s s f x ",
"r 5 3 - * - * - 8 7 0 5 # 6 u q 4 = 7 n n 3 X 9 ; = > ; 7 s f f ",
"5 $ 3 + < < < 1 8 O 3 O . X w q O O n ` K b 3 O ; ; ; : i 7 f 7 ",
"$ $ * - , 2 1 a g 7 9 t 3 O +   & 7 D Q E Q E 9 7 ; : : : s 7 7 ",
"+ + < < 2 1 a d 7 f ; = 9 0 4 H ' I ` K C _ ] t 7 ; : : : ; 7 7 ",
"+ + + - p a d h = Z c c [ D 3 ` m.[ / _ K _ ] C s 7 : : : : ; 7 ",
". + * > ; i h M P b.K.(.qXQ.n ` m.E R $._ $.,.Q s s ; : : : ; : ",
". $ 3 g M > M 6.|.8X%X/.9X,XQ.2.f T 7.( ( ..:.A f 7 ; > 8 a 8 8 ",
"6 . 3 x s L 8.[.=XI.$X&XP.!.2.-.} P ....>.( o._ v f i ; : 1 e 8 ",
"y . r v f =.@X@X`. XXXE.Y.!.; 4.2X=.~ ( +.) ..T C v s 8 : 8 : ; ",
"% 5 t b / F.@X].x. X Xx.[.~.' J.n.=.o.~  . .#.K A B h ; ; ; : ; ",
". F 9 x b.#X].j.*Xr.`.].u.D.eX,Xi P s.O.@.#.y.( P Z h 7 ; : 8 8 ",
"% J O x ^.#Xg.'. Xf.`.].F.0.<Xq.w.=.8.6.a.@.y...R Z v 7 3 7 0 0 ",
"% y = W (.}.h.].f.`.'.g.}.w.L 1.tXF.6.O.d.y.p.X._ R M 9 3 7 7 0 ",
"6 . 9 *.~.U.h.'. X_.'.h.F.J.l e.4XF.s.6.y.y.C.d._ ! B s ; = = ; ",
"0 . = [ K.U.z.l._._.oXj.[.w.eX<Xi w.S.;.u.y.Y.5.T [ h > 7 d j ; ",
"0 O = Q D.[.x.l._.k.r.OX[.9.tX<Xi 0.{.X.5.P.Y.i.%.&.h ; i ; j p ",
"4 $ = S v.U.].].`._.'.l.[.Z.L q.4XD.K.O.C.P.p.5.v.-.h i d & p d ",
"O 8 ; v } F.#X-X*X+X].a.[.J.& 0.rXW.n.t.C.p.5.$.v.| s ; j & i d ",
"  8 7 ; I 9.#X0X7X-Xc.R.Z.b.tX,XZ 8.P.u.@.#.L._ } W = > j > > s ",
"  < - & l ' D.5X0X7X$X[.S.n.4X>Xv $.s.u.5.#.).>.B C & ; j > > ; ",
"o * * = s l / n.2X5X7X~.{.^.i e.2X8.:.5.p.u.P.5.9 B ; ; d ; 8 = ",
"o o - 8 d & s ^ s.&X/.2XQ.G.N B.qXv.L...+.P.L.%.3 N 7 ; ; ; 8 > ",
"- - - - : s s h 7 %.,.N.Q.B.wX:X9 v.!.5.>.P.!.2.f f 7 ; ; = 4 7 ",
"* = - * : : s f &.= v Q S n 1.D 7 *.V.i.v.L.N.] f 7 ; ; ; ; 3 7 ",
"3 4 ; - < 8 8 7 O b >X` 7 X H 7 = Q 2.,.v.N.*.C 7 7 ; ; ; 7 7 3 ",
"3 3 3 - - * - : 9 r 3.{ wX0 O k ; N ` &.-.&.E 7 7 7 ; : ; 3 7 9 ",
"9 9 3 4 + + - $ m O . <.wXk   - > s V I ! S x 7 7 ; - > = 7 9 9 ",
"r 9 9 $ + + < +   m m ;XJ   z o > ; g v f 7 7 7 ; > - - 4 3 9 9 ",
"t t 9 3 + o @ @ G   $ ;XJ o < , > : ; i ; ; ; 8 - - - ; 4 3 9 9 ",
"c t 9 3 O o @ @     u   @ < < o * > > > 7 s 7 = > - - - 3 3 9 r "
};
