/* XPM */
static char *P_D[] = {
/* columns rows colors chars-per-pixel */
"20 32 93 2 ",
"   c #020201",
".  c #050905",
"X  c #0A0B05",
"o  c #060A09",
"O  c #0B0C0A",
"+  c #0B100C",
"@  c #0D1110",
"#  c #131313",
"$  c #161914",
"%  c #1C1D15",
"&  c #1C1D1B",
"*  c #1E211A",
"=  c #21231D",
"-  c #242523",
";  c #252A24",
":  c #2A2B25",
">  c #262A29",
",  c #2B2B2B",
"<  c #2E332F",
"1  c #32332E",
"2  c #343433",
"3  c #363932",
"4  c #3A3B36",
"5  c #3C3C3B",
"6  c #3E403C",
"7  c #42433D",
"8  c #444443",
"9  c #474942",
"0  c #494B45",
"q  c #4D4D4B",
"w  c #4E504A",
"e  c #53544E",
"r  c #545553",
"t  c #575853",
"y  c #5A5B54",
"u  c #5C5D5B",
"i  c #5F615B",
"p  c #61625C",
"a  c #646563",
"s  c #666865",
"d  c #6A6B66",
"f  c #6B6C6A",
"g  c #6E706B",
"h  c #72746E",
"j  c #737472",
"k  c #737872",
"l  c #7A7B75",
"z  c #7C7C7B",
"x  c #7F807A",
"c  c #83837E",
"v  c #838381",
"b  c #878883",
"n  c #8A8B86",
"m  c #8D8E8B",
"M  c #8F908B",
"N  c #91928C",
"B  c #949593",
"V  c #969994",
"C  c #9A9B95",
"Z  c #9C9D99",
"A  c #9FA09A",
"S  c #A2A39D",
"D  c #A5A6A3",
"F  c #A6A9A3",
"G  c #AAABA6",
"H  c gray67",
"J  c #AFB2AB",
"K  c #B2B4AE",
"L  c #AFB1B0",
"P  c #B4B4B1",
"I  c #BABCB5",
"U  c #BCBDBA",
"Y  c #BFC0BB",
"T  c #C3C3BD",
"R  c #C4C4C2",
"E  c #CACCC6",
"W  c #CCCCCC",
"Q  c #CFD0CB",
"!  c #D1D1CF",
"~  c #D7D7D7",
"^  c #D7DAD3",
"/  c #DCDCDC",
"(  c #DEE1DA",
")  c #E2E3DD",
"_  c #E1E1E1",
"`  c #E7E8E2",
"'  c #E9EBE6",
"]  c #ECECEB",
"[  c #F2F3EE",
"{  c #F4F4F2",
"}  c #F5F8F1",
"|  c #F9FAF5",
" . c #FEFEFB",
/* pixels */
"# . .         < u a a u f 5 o     O o   ",
"@ #     o - r B B v B Z B B q #   @   . ",
"@ .     u H /  . .{ {  .{ W P z &   . $ ",
"#   O j L {  . .~ / ] /  . . .H f -     ",
"  # z R {  .W j @ # & O u U  ./ V g *   ",
"& j H ~  .Z # # & - & #   o v  .Q V k ; ",
"u Z W ] B o # 2 8 2 2 , @     z ' I V 3 ",
"s B { W   o 2 5 < u q     8 -   F } F d ",
"f D / j   - 2 > q z 2   r z 2   e ( J x ",
"z D ~ 2 o 2 2 r z >   r z 2 5 5 $ E J x ",
"f H ~ 8 # 2 u z 2   r j < 2 v q * ( Y x ",
"j D / q @ u z ,   u z 2 5 z q O * ( J i ",
"f H / 5 & f >   f z 2 5 f q     $ Y J 0 ",
"j D _ 8 # #   u z 5 2 z 8   o   * F A w ",
"5 v U H o o o 5 2 - , , @   o   g M e + ",
"o 5 v D 8 o o           o o   4 b d +   ",
"  = w N K F T I R T T I T T I S g < o + ",
". X 7 t C ! )  . . .}  .| ) I l 4 > @ o ",
"X % d y 9 i u c S S A C B g y 7 s 6 o o ",
"= e h m g p p 0 q q y 0 7 e p p k a > . ",
"4 n T I Z N l c h p p l g c S S B V r   ",
"7 G | ) T c K K C c c C K J M I ] W u   ",
"7 S | | K l [  .| [ } )  . .x S ] ~ s $ ",
"g I ) ) C c  . . .|  . .|  .n C _ _ z q ",
"p A N A l d C S S S A C C A d N W U m 8 ",
"7 e i p e w 0 7 0 7 6 4 4 7 1 w q a a 2 ",
"1 p g l y h A A G S A C A l y d j f q # ",
"  O $ % % e V I c p i l G l 3 = @ @     ",
"    X     X l I c     d C 1             ",
"  X     X   c K b     h Z 3   . o o     ",
"        X y S T M X   l P h &     o o o ",
"X X X X : c I K x     g G F r   o o     "
};
