/* XPM */
static char *P_D[] = {
/* columns rows colors chars-per-pixel */
"32 32 162 2 ",
"   c #393734",
".  c #393B39",
"X  c #4C372E",
"o  c #4F392E",
"O  c #573626",
"+  c #5A372D",
"@  c #553430",
"#  c #5B3331",
"$  c #523D33",
"%  c #613B29",
"&  c #723F28",
"*  c #6A3D35",
"=  c #45423E",
"-  c #5E4333",
";  c #554A3E",
":  c #5C4A3B",
">  c #65402E",
",  c #6A422F",
"<  c #734027",
"1  c #744129",
"2  c #7B4329",
"3  c #664937",
"4  c #6A4A37",
"5  c #64493A",
"6  c #734E37",
"7  c #714E39",
"8  c #7D483D",
"9  c #6A533F",
"0  c #71503E",
"q  c #243847",
"w  c #243A4A",
"e  c #2D3E49",
"r  c #313E44",
"t  c #553A47",
"y  c #2E424F",
"u  c #374854",
"i  c #374A5C",
"p  c #395569",
"a  c #355871",
"s  c #36617F",
"d  c #484A4C",
"f  c #4D5047",
"g  c #54514D",
"h  c #5A554E",
"j  c #434C53",
"k  c #47545E",
"l  c #585452",
"z  c #6A5441",
"x  c #685B49",
"c  c #725542",
"v  c #745944",
"b  c #7C584F",
"n  c #715B50",
"m  c #7A634C",
"M  c #646351",
"N  c #6F6054",
"B  c #736453",
"V  c #7D6856",
"C  c #4B5660",
"Z  c #576C7C",
"A  c #686762",
"S  c #7B6A61",
"D  c #767A6D",
"F  c #83432E",
"G  c #8E4632",
"H  c #934735",
"J  c #984538",
"K  c #A1473C",
"L  c #A34B3D",
"P  c #B54A46",
"I  c #B94A47",
"U  c #AC5241",
"Y  c #82755F",
"T  c #817761",
"R  c #8C7462",
"E  c #847A63",
"W  c #8A7D68",
"Q  c #937563",
"!  c #967D6D",
"~  c #9B7D6B",
"^  c #A67F6C",
"/  c #89846E",
"(  c #9A806E",
")  c #838470",
"_  c #868A72",
"`  c #888C77",
"'  c #9B8272",
"]  c #948F77",
"[  c #93847A",
"{  c #969279",
"}  c #9B957C",
"|  c #9E9A7F",
" . c #AB836F",
".. c #B99279",
"X. c #366383",
"o. c #3B6383",
"O. c #3D6D8F",
"+. c #4E718A",
"@. c #527085",
"#. c #537790",
"$. c #477DA3",
"%. c #4A7DA2",
"&. c #5589AE",
"*. c #6493B5",
"=. c #7AA3C2",
"-. c #9C9E83",
";. c #BE9C85",
":. c #99A38E",
">. c #9EA891",
",. c #A3A184",
"<. c #A2A388",
"1. c #A4A98D",
"2. c #A3AC91",
"3. c #A9AE91",
"4. c #ACB396",
"5. c #B1B597",
"6. c #B4BC9C",
"7. c #C49C85",
"8. c #C99B84",
"9. c #C5A48D",
"0. c #CBA78E",
"q. c #C7A88F",
"w. c #CDA890",
"e. c #D5AF96",
"r. c #DCAD93",
"t. c #DAB299",
"y. c #EDB398",
"u. c #EEBB9F",
"i. c #E9BFA3",
"p. c #B9C3A1",
"a. c #BEC8A5",
"s. c #C2CDA9",
"d. c #C6D2AB",
"f. c #CEDAB3",
"g. c #D1DDB5",
"h. c #ECC1A4",
"j. c #F9CBAD",
"k. c #D7E1B5",
"l. c #D6E3BA",
"z. c #D9E6BC",
"x. c #DCE9BE",
"c. c #8AAEC9",
"v. c #96B6CE",
"b. c #9DBBD0",
"n. c #A3BDCF",
"m. c #A6BED0",
"M. c #B1C2CF",
"N. c #AAC3D6",
"B. c #B4C8D7",
"V. c #B4CAD9",
"C. c #BBCFDE",
"Z. c #DEECC0",
"A. c #E1EFC2",
"S. c #E2F0C3",
"D. c #C7D8E5",
"F. c #CBDBE7",
"G. c #D1DFE9",
"H. c #D4E0EA",
"J. c #DCE6EE",
"K. c #EAF0F5",
"L. c #F2F6F9",
"P. c #F9FBFC",
/* pixels */
"A.A.A.A.A.A.A.A.A.A.A.A.S.S.k.S x d.S.S.A.A.A.A.A.A.A.A.A.A.A.A.",
"A.A.A.A.A.A.A.A.A.A.A.S.z.s.2.: : 1.a.z.S.A.A.A.A.A.A.A.A.A.A.A.",
"A.A.A.A.A.A.A.A.A.A.S.l.| 9 - % > - z } l.S.S.S.A.A.A.A.A.A.A.A.",
"A.A.A.A.A.A.A.A.S.S.l.-.6 2 2 2 1 2 2 6 } l.S.x.A.A.A.A.A.A.A.A.",
"A.A.A.A.A.A.A.A.S.A.3.7 2 H K K K L H F 6 <.S.S.A.A.A.A.A.A.A.A.",
"A.A.A.A.A.A.A.A.S.f.T 1 H P I I I P I J 1 Y f.S.A.A.A.A.A.A.A.A.",
"A.A.A.A.A.A.A.A.S.p.3 G I H F 2 < 2 G I G 4 5.S.A.A.A.A.A.A.A.A.",
"A.A.A.A.A.A.A.A.S.6.3 K P 2 2 & 4 , 2 L L 4 4.S.A.A.A.A.A.A.A.A.",
"A.A.A.A.A.A.A.A.S.p.9 J F 1 % c ;.~ , 2 H 7 6.S.A.A.A.A.A.A.A.A.",
"A.A.A.A.A.A.A.A.A.l./ - % 5 R w.j.t.Q o $ ) g.S.A.A.A.A.A.A.A.A.",
"A.A.A.A.A.A.A.S.Z.S.-.n ~ 9.! i.h.( t.( N } A.A.A.A.A.A.A.A.A.A.",
"A.A.A.A.A.A.A.S.S.g.T 5 ^ r.;.u.u.7.t. .5 S f.S.A.A.A.A.A.A.A.A.",
"A.A.A.A.A.A.S.z.g.4.4 1 > b ;.r.r.9.b % < 4 1.g.z.S.A.A.A.A.A.A.",
"A.A.A.A.A.S.z.,.B z 1 < # t j d d j t # < 1 c B | x.A.A.A.A.A.A.",
"A.A.A.A.A.S.s.5 1 1 2 $ i o.O.a a O.o.i ; < 1 < m k.S.A.A.A.A.A.",
"A.A.A.A.A.S.d.z O 1 + p $.*.n.M.M.N.*.%.p + 1 O m g.S.A.A.A.A.A.",
"A.A.A.A.A.A.Z.3.; & X s =.J.K.N.m.K.J.=.X.X , : 1.A.A.A.A.A.A.A.",
"A.A.A.A.A.S.Z.Z.3.v X s c.L.B.&.&.N.L.v.o.X 0 1.x.S.A.A.A.A.A.A.",
"A.A.A.A.A.A.A.S.x.}   +.D.P.H.n.b.G.P.F.#.  ] z.S.A.A.A.A.A.A.A.",
"A.A.A.A.A.A.A.S.l.E o Z B.D.D.C.C.D.F.V.Z $ Y g.S.S.A.A.A.A.A.A.",
"A.A.A.A.A.A.A.S.x.{ 7 V @.$.$.$.$.%.$.@.S 7 ] x.S.A.A.A.A.A.A.A.",
"A.A.A.A.A.A.A.A.S.a.V ..[ C u k C u C [ ..V p.A.A.A.A.A.A.A.A.A.",
"A.A.A.A.A.A.A.A.Z.Z.5.} 9.0.( 7.8.! 0.q.} 4.x.A.A.A.A.A.A.A.A.A.",
"A.A.A.A.A.A.A.A.S.Z.Z.>.A ' e.y.y.e.' A :.x.A.A.A.A.A.A.A.A.A.A.",
"A.A.A.A.A.A.A.A.A.A.x.` y e g n n l e y ` z.A.A.A.A.A.A.A.A.A.A.",
"A.A.A.A.A.A.A.A.A.A.A.6.h w w @ # q q h 5.A.A.A.A.A.A.A.A.A.A.A.",
"A.A.A.A.A.A.A.A.A.A.x.<.W r w * * w e R <.z.A.A.A.A.A.A.A.A.A.A.",
"A.A.A.A.A.A.A.A.A.A.z.<.} r t U L t r ] :.l.S.A.A.A.A.A.A.A.A.A.",
"A.A.A.A.A.A.A.A.A.A.x.6._ = 8 L L 8 = / 6.x.A.A.A.A.A.A.A.A.A.A.",
"A.A.A.A.A.A.A.A.A.A.S.z.4.D g . = h D 4.l.A.A.A.A.A.A.A.A.A.A.A.",
"A.A.A.A.A.A.A.A.A.A.A.A.x._ .     . ) z.A.A.A.A.A.A.A.A.A.A.A.A.",
"A.A.A.A.A.A.A.A.A.A.A.S.k.` f M M f _ k.A.A.A.A.A.A.A.A.A.A.A.A."
};
