/* XPM */
static char *P_D[] = {
/* columns rows colors chars-per-pixel */
"20 32 92 1 ",
"  c #010101",
". c #080607",
"X c #050608",
"o c #090708",
"O c #0C0B0B",
"+ c #0F0D10",
"@ c #141414",
"# c #1A1617",
"$ c #1C1C1C",
"% c #201D1E",
"& c #21201E",
"* c #1F1F21",
"= c #1F2120",
"- c #232323",
"; c #2A2727",
": c #262827",
"> c #2A2927",
", c #262628",
"< c #292729",
"1 c #2D2C2C",
"2 c #312E2C",
"3 c #312F30",
"4 c #343333",
"5 c #393636",
"6 c #3C3936",
"7 c #363638",
"8 c #3A3739",
"9 c #3C3B3A",
"0 c #413E3E",
"q c #41413F",
"w c #413F42",
"e c #454343",
"r c #4A4646",
"t c #4A4946",
"y c #464749",
"u c #4B4748",
"i c #4D4B4A",
"p c #514E4E",
"a c #51504E",
"s c #4F4F51",
"d c #524F50",
"f c #545453",
"g c #585455",
"h c #595956",
"j c #575659",
"k c #5D5B5B",
"l c #615E5E",
"z c #656364",
"x c #6D6B6C",
"c c #736F6E",
"v c #72716F",
"b c #6D6E70",
"n c #757474",
"m c #787676",
"M c #797876",
"N c #777578",
"B c #797778",
"V c #7D7C7B",
"C c #817E7F",
"Z c #81807E",
"A c #817F80",
"S c #858383",
"D c #888786",
"F c #898788",
"G c #8C8B8B",
"H c #918E8E",
"J c #94908F",
"K c #918F90",
"L c #959495",
"P c #9A9695",
"I c #969799",
"U c #989699",
"Y c #9C9B9C",
"T c #A29E9D",
"R c #A2A09F",
"E c #A4A3A2",
"W c #ABABAC",
"Q c #AEAEB1",
"! c #B2B2B3",
"~ c #BBBABC",
"^ c #BDBCC1",
"/ c #C1BFC0",
"( c #C4C4C5",
") c #C7C7C9",
"_ c #CACACC",
"` c #CECED0",
"' c #D3D3D4",
"] c #D6D6D8",
"[ c #DADADC",
"{ c #DEDFE1",
"} c #E2E2E3",
"| c #EAE9EC",
/* pixels */
"       1tttyt:X     ",
"    o$5nnMMMMz4+    ",
"   .ySW(__)_(EDj@   ",
"  odF(|_QQ!Q(}(Sp@  ",
" OkY)]IyXO+O7G_!Bf# ",
"+sG!]bXo@@@+X j]Qxg#",
"eVW)x.O====@X  j)Ec2",
"sM_WXX*=#53  1$ G[S0",
"iV~iX#=$4f$ 4f= 8~Hp",
"iS!-X=#4f$ 5f$:-OWHp",
"iA!1X$5j# 5s--h:@WHp",
"sA!1.9f@ 7s=-f3 @WHr",
"iA!,Oy@ 9f$,j1  +RG3",
"tAQ4Xo 9f==f1   @Cn>",
",lLA. .,$@$$    tM5o",
"X:zV1        X =ztO ",
" +2xDSIILLLPPLSvi#X ",
" o15nE~`]''''!Lt>%  ",
" @ue3q0kZVVVct61r1. ",
"+1kcat94966626yilr$ ",
"-zEIZvkjfiiffzZAVn4 ",
"$F})RkZKMzznGFzI_Q8 ",
">S}}Fs('_())'`kb|^w+",
"iJ/(bf`}{}}[{[kx|^g<",
"pcxxu0nnnnnMnnehELz<",
"56602111111111-2eew%",
">pip5eMBMnMMVk39ii4o",
" OOOo4mEl60hDa=@OOX ",
"     olTh  aV-      ",
"     .lTl  fC&      ",
"     4HTl XaDtO     ",
"    #zHPa  tHV4     "
};
