/* XPM */
static char *P_DEAD[] = {
/* columns rows colors chars-per-pixel */
"19 32 211 2 ",
"   c #010205",
".  c #0B0201",
"X  c #00050C",
"o  c #00080B",
"O  c #08050C",
"+  c #140201",
"@  c #1C0000",
"#  c #170C0A",
"$  c #000911",
"%  c #0E0C14",
"&  c #070B1A",
"*  c #0A0617",
"=  c #100813",
"-  c #0B161C",
";  c #091818",
":  c #081418",
">  c #151217",
",  c #191A1D",
"<  c #191916",
"1  c #0E110A",
"2  c #260402",
"3  c #280906",
"4  c #300A07",
"5  c #25130F",
"6  c #291917",
"7  c #3A1C1A",
"8  c #1D2019",
"9  c #2B231B",
"0  c #22231C",
"q  c #37221C",
"w  c #0E0F24",
"e  c #191A23",
"r  c #081923",
"t  c #271D29",
"y  c #1B2527",
"u  c #2B2B24",
"i  c #262B2A",
"p  c #2C2B2A",
"a  c #252725",
"s  c #382521",
"d  c #372B29",
"f  c #2A2D33",
"g  c #2D3537",
"h  c #333433",
"j  c #3A3B35",
"k  c #36353A",
"l  c #3B3D3B",
"z  c #383738",
"x  c #32322F",
"c  c #54091D",
"v  c #421F1B",
"b  c #42231E",
"n  c #4F1A27",
"m  c #6E162D",
"M  c #7A1A35",
"N  c #492B28",
"B  c #54262B",
"V  c #422730",
"C  c #453938",
"Z  c #573B36",
"A  c #46312E",
"S  c #6B2939",
"D  c #7A2C3B",
"F  c #68333D",
"G  c #3E403B",
"H  c #41423E",
"J  c #57443F",
"K  c #353F42",
"L  c #443D43",
"P  c #5D3943",
"I  c #763A46",
"U  c #683B40",
"Y  c #3D464A",
"T  c #444544",
"R  c #454843",
"E  c #454A4C",
"W  c #4D4B4B",
"Q  c #4A4747",
"!  c #534A48",
"~  c #4A504E",
"^  c #52544F",
"/  c #5C524A",
"(  c #454D50",
")  c #534F54",
"_  c #5A4F53",
"`  c #495355",
"'  c #545452",
"]  c #5C5252",
"[  c #595957",
"{  c #5C5459",
"}  c #585B5B",
"|  c #75464E",
" . c #6B4A51",
".. c #635C5C",
"X. c #695757",
"o. c #6F5554",
"O. c #65615D",
"+. c #77615B",
"@. c #5C5D61",
"#. c #6E5F61",
"$. c #645F65",
"%. c #686769",
"&. c #766969",
"*. c #696D71",
"=. c #796B75",
"-. c #727472",
";. c #747B7B",
":. c #7A7D7D",
">. c #7E717B",
",. c #697375",
"<. c #8B0B2B",
"1. c #9A162B",
"2. c #871D38",
"3. c #961B3C",
"4. c #A61C3C",
"5. c #852438",
"6. c #81313A",
"7. c #97373B",
"8. c #902A35",
"9. c #A92B36",
"0. c #A9353B",
"q. c #B6373B",
"w. c #872D45",
"e. c #9B2A4A",
"r. c #803E40",
"t. c #94344F",
"y. c #B73A41",
"u. c #A5354D",
"i. c #8D4952",
"p. c #945263",
"a. c #AA5A63",
"s. c #867B7A",
"d. c #95767A",
"f. c #936B72",
"g. c #A06871",
"h. c #94867E",
"j. c #717F80",
"k. c #887D81",
"l. c #927E80",
"z. c #B17A88",
"x. c #7D8485",
"c. c #848885",
"v. c #88878A",
"b. c #998689",
"n. c #94938B",
"m. c #9C8E94",
"M. c #8F9490",
"N. c #929396",
"B. c #9A979B",
"V. c #A8898F",
"C. c #B1818D",
"Z. c #B6969C",
"A. c #9FA19E",
"S. c #9A9EA1",
"D. c #A197A0",
"F. c #9EA2A5",
"G. c #ACADA5",
"H. c #ABADAC",
"J. c #A5ACAD",
"K. c #BAABAB",
"L. c #ACB0AF",
"P. c #A8AEB1",
"I. c #B3AEB2",
"U. c #B4B4B4",
"Y. c #BCB5B5",
"T. c #B7B9B9",
"R. c #A8B0B2",
"E. c #DD9DAD",
"W. c #CAAAAF",
"Q. c #C7B5AE",
"!. c #C3ADB0",
"~. c #D0A6B0",
"^. c #CCB7BB",
"/. c #D6B9BE",
"(. c #BFC0B8",
"). c #C4C3BE",
"_. c #B9BDC0",
"`. c #BDC4C5",
"'. c #C5CBCC",
"]. c #CBCDCD",
"[. c #C6C6C4",
"{. c #D3CECC",
"}. c #D3C0C4",
"|. c #D8D6CC",
" X c #DFCCD0",
".X c #C6D6D1",
"XX c #CAD3D1",
"oX c #CEDBD8",
"OX c #D3D3D2",
"+X c #D9D6D3",
"@X c #D5DDDB",
"#X c #DADDDA",
"$X c #D7D8D7",
"%X c #C9CDD0",
"&X c #E7C7CE",
"*X c #F1C1CD",
"=X c #E2CED3",
"-X c #E3D9DA",
";X c #F8D1D9",
":X c #E1D7CE",
">X c #D5E3DF",
",X c #DCE1DC",
"<X c #E8E8DF",
"1X c #FFDBE3",
"2X c #DBE2E1",
"3X c #D6E5E1",
"4X c #E3E6E3",
"5X c #F9ECEA",
"6X c #F0F0E8",
"7X c #FFECF0",
"8X c #FFF3F7",
/* pixels */
"# . # 5 + 5 A N q 3 4 B b 4 2 4 % $ r ",
"< . . # + # 3 # 3 # @ 3 4 4 4 + % X X ",
". # # # 6 s 6 s q q b q 2 v B @ e : $ ",
"u ! C u z d 6 s A s J A 3 b Z 5 h Y g ",
"j ^ j u [ &.O.X.H 5 q J o.+.+.J > ( k ",
"l Q j x -.Y.).Q.J 5 5 +.Q.Q.h.+.a *.E ",
":.N.M.%.^ c.).{.h.O./ h.:XG./ H v.[.j.",
";.U.@Xc.8 G G.<X|.6X:X:X6Xh.8 8 I.<X-.",
"R @X2Xc.i T `.<X,X,X<X|.<XG.0 8 T.].T ",
"} .XXXx.i h N.L.B.G.U.G.(.h.u G A.L.k ",
"f v.F.:.K i Q L j G G u G G 0 H -.;., ",
"  k @.@.L i a > u x 8 1 8 0 G ^ ~ Y X ",
"- , f k k k K W R } ^ ^ ^ H G x K y o ",
"> % f k L ) Q @.~ [ W [ [ H H a g $ $ ",
"O = Q ) @.$.L W ^ } R W W R -.R K X r ",
"= , { ) _ $.) ..W O./ } ! H O.G ` & f ",
"y ` ` E ) { ) _ Q ] ] / { Q ! $.{ L t ",
"` j.v.j.j.v.k.k.&.b.d.=.h.V.d.&.o.o. .",
",.F.P.P._._.I.Y.!.}.^.W./.~.f.I | p.g.",
"*.S._._.OX$X$X$X-X X&X1X;Xz.I S D i.a.",
"$.N.P.`.@X>X$X2X$X=X&X*XE.p.M I 8.8.y.",
",.S._.%X>X@XXX@X$X7X&Xz.t.w.2.3.9.q.q.",
"j.S._.'.>XoX.X2X-X7X~.I m 2.3.1.9.q.q.",
"j.z.I.'.>XoX.X3XOX}.g.S M 3.4.4.1.9.q.",
"p.m._._._.3X3X%X$Xl.n c t.e.<.4.0.0.0.",
"j.k.S.F._.3X3XoX$X=XC.S m t.3.<.8.7.7.",
"k *.m._._.%X3X@X{.8X1Xp.c 2.u.2.D I i.",
"* L k.F.J._.%X@X X-X=Xz.n c w.I I U P ",
"  e E *.v.J.`.%X{.^./.Z.I B U U J N 6 ",
"; o   y @.N.H.I.K.K.!.Z.l.f.p. .C t = ",
"; o   X a W =.k.s.m.b.d.b.l.X.! t e w ",
"  ; y -     x ..&.&.X.#.=.L . . * * w "
};
