/* XPM */
static char *P_DEAD[] = {
/* columns rows colors chars-per-pixel */
"21 32 120 2 ",
"   c #010101",
".  c #0B0303",
"X  c #0A0807",
"o  c #0B0B0A",
"O  c #140000",
"+  c #1F0000",
"@  c #1E0904",
"#  c #110D0E",
"$  c #11100E",
"%  c #141312",
"&  c #191313",
"*  c #1A1917",
"=  c #1B1919",
"-  c #260000",
";  c #230A04",
":  c #2A0C04",
">  c #330501",
",  c #350A04",
"<  c #35100A",
"1  c #3D140E",
"2  c #2F1C15",
"3  c #201F1D",
"4  c #341912",
"5  c #211F20",
"6  c #262524",
"7  c #292626",
"8  c #2C2B2A",
"9  c #352624",
"0  c #3A2520",
"q  c #342927",
"w  c #322E2D",
"e  c #3A302E",
"r  c #333232",
"t  c #3A3635",
"y  c #3C3937",
"u  c #3C3B3A",
"i  c #42130C",
"p  c #451610",
"a  c #461B14",
"s  c #4C1E14",
"d  c #47221A",
"f  c #512115",
"g  c #5A251A",
"h  c #452822",
"j  c #432E29",
"k  c #4C312B",
"l  c #4C3A36",
"z  c #443E3C",
"x  c #523D39",
"c  c #42403E",
"v  c #51423F",
"b  c #6C473F",
"n  c #454443",
"m  c #4A4444",
"M  c #4B4A47",
"N  c #4D4B4A",
"B  c #534F4E",
"V  c #54504F",
"C  c #565251",
"Z  c #595554",
"A  c #5B5957",
"S  c #595758",
"D  c #5E5B5A",
"F  c #6E4B45",
"G  c #764E45",
"H  c #7C4E45",
"J  c #7E534A",
"K  c #645552",
"L  c #605C5B",
"P  c #5E605F",
"I  c #5E5F61",
"U  c #666462",
"Y  c #6B6867",
"T  c #696768",
"R  c #6E6D6C",
"E  c #736F6C",
"W  c #73706E",
"Q  c #757271",
"!  c #797271",
"~  c #797778",
"^  c #7F7F7D",
"/  c #858483",
"(  c #8A8182",
")  c #8C8887",
"_  c #898788",
"`  c #8A898A",
"'  c #908D8C",
"]  c #8E8E90",
"[  c #949292",
"{  c #9B9796",
"}  c #9B9897",
"|  c #9C9A99",
" . c #A99793",
".. c #A19D9B",
"X. c #A2A09E",
"o. c #B6A19D",
"O. c #A4A3A3",
"+. c #ACA5A6",
"@. c #AAA8A7",
"#. c #A7A7A9",
"$. c #ADACAD",
"%. c #B7A8A5",
"&. c #B2B0AE",
"*. c #AFAFB1",
"=. c #B1AFB0",
"-. c #B4B2B1",
";. c #CEBAB7",
":. c #CFBCB8",
">. c #BEBEC0",
",. c #C4C3C3",
"<. c #C8C4C3",
"1. c #C9C7C8",
"2. c #CCCBCB",
"3. c #D4D4D5",
"4. c #DCD8D7",
"5. c #D6D7D9",
"6. c #D7DADB",
"7. c #DADCDE",
"8. c #E1DBDB",
"9. c #DADDE0",
/* pixels */
"      . O - > , : ; @ ; > , > + .         ",
"      . : i i i 4 2 2 2 1 p p < O         ",
"  6 n l d f g f h x v k a g g p k l z t o ",
"% y M 9 k J H G x q q 0 F G H F 0 z m n w ",
"& N T w K o.o.;.! & o z %.:.;. .e y n n w ",
"5 T 2.+.m v +.4.[ Q ~ ! <.4.( c Y ' [ _ n ",
"% n 2.2.u # O.7.9.6.5.6.7.2.C o ` 3.2.~ 8 ",
"  r 2.,.u = #.9.8.9.9.8.9.3.S % ` 4.9.P o ",
"  8 #.*.n * ` *.#.#.*.$.$.#.N & / ,.3.P o ",
"  5 U Q D 8 r 8 8 6 8 6 7 w 8 c Q [ / u X ",
"    8 A M u w 7 r r r r w 6 u z n P u o   ",
"    % n 8 t c M Z Z S S C c z u 8 c 6     ",
"    X 6 y C Z Z V V C C C Z Z C M u $     ",
"      t A V V Z Z Z Z Z C C C C S M $     ",
"    6 C V B C V C C C C C C C C V Z u o   ",
"  5 Z L D L L L D D D D D D D D D L L c 6 ",
"* P ] | | | | | | | | | | | { ..} } [ Y c ",
"6 ^ X.*.2.2.2.2.2.1.2.2.2.1.2.2.1.&...! c ",
"c / X.>.9.6.6.9.7.7.9.9.9.7.5.9.4.&...! n ",
"C / $.6.6.9.9.9.7.9.9.9.9.6.9.7.5.-.} ! B ",
"C / &.6.9.9.6.9.9.9.9.7.9.9.9.7.5.=.| W B ",
"C / &.6.9.9.9.9.9.9.9.9.6.9.9.9.5.-...! M ",
"V / *.6.6.9.6.9.9.9.9.9.9.9.9.6.3.&...W M ",
"n / #.3.6.6.9.6.9.9.9.9.9.9.9.3.&.X...E c ",
"y R / >.9.9.7.9.9.9.9.9.9.9.7.,.X...) V 3 ",
"o n R [ 2.9.7.7.9.9.9.9.9.3.,.$.X...U %   ",
"  o n R [ 2.5.3.4.3.3.5.5.2.$...[ E *     ",
"    o n ^ @.&.$.$.$.$.$.=.$.+.( M $       ",
"      o n R / | | ..{ { ..` T M $         ",
"        X * C Q W ! W ! Q M $ X           ",
"            * u c y t u u * X             ",
"            * N n = # y B N 8             "
};
