/* XPM */
static char *P_DEAD[] = {
/* columns rows colors chars-per-pixel */
"19 32 211 2 ",
"   c #020301",
".  c #000A04",
"X  c #040C0A",
"o  c #0C0706",
"O  c #1A0500",
"+  c #130D00",
"@  c #1A0E02",
"#  c #140307",
"$  c #03100E",
"%  c #191407",
"&  c #0D1614",
"*  c #141713",
"=  c #171A16",
"-  c #19061C",
";  c #220A00",
":  c #2D140A",
">  c #211A0C",
",  c #281307",
"<  c #351A0F",
"1  c #2A1E14",
"2  c #311618",
"3  c #1C231D",
"4  c #16211B",
"5  c #2B2116",
"6  c #37281B",
"7  c #210E24",
"8  c #321B2F",
"9  c #281125",
"0  c #192624",
"q  c #262922",
"w  c #282D2A",
"e  c #3D2D23",
"r  c #3D3125",
"t  c #30342D",
"y  c #3C3B2D",
"u  c #2D3937",
"i  c #2A3433",
"p  c #343630",
"a  c #353B34",
"s  c #3A3C34",
"d  c #383C38",
"f  c #352D2D",
"g  c #490B18",
"h  c #5C1825",
"j  c #461C28",
"k  c #50232A",
"l  c #4C352A",
"z  c #4A362B",
"x  c #493932",
"c  c #543F35",
"v  c #5A3838",
"b  c #452636",
"n  c #692633",
"m  c #752536",
"M  c #69363D",
"N  c #3B433C",
"B  c #41433D",
"V  c #464B3D",
"C  c #58453A",
"Z  c #773641",
"A  c #3E4742",
"S  c #4B4E43",
"D  c #454A45",
"F  c #5A4D44",
"G  c #4C534B",
"H  c #485045",
"J  c #51554A",
"K  c #57564B",
"L  c #4F5952",
"P  c #515451",
"I  c #5C5B56",
"U  c #5C5D59",
"Y  c #565856",
"T  c #614D47",
"R  c #7A4149",
"E  c #62544C",
"W  c #644250",
"Q  c #675A57",
"!  c #794B55",
"~  c #596156",
"^  c #64685A",
"/  c #68645C",
"(  c #77695E",
")  c #5C6462",
"_  c #5E6D6A",
"`  c #646462",
"'  c #6C6461",
"]  c #6A6B65",
"[  c #6B6D6A",
"{  c #646B66",
"}  c #736B69",
"|  c #7A6B67",
" . c #6D726D",
".. c #667169",
"X. c #75736C",
"o. c #7F746D",
"O. c #7A7267",
"+. c #6F7C72",
"@. c #747573",
"#. c #737977",
"$. c #7A7877",
"%. c #891C33",
"&. c #9A202B",
"*. c #922D3D",
"=. c #AB3035",
"-. c #992E46",
";. c #893946",
":. c #933644",
">. c #953648",
",. c #9E3C53",
"<. c #A83349",
"1. c #AD3845",
"2. c #B63D45",
"3. c #B83C44",
"4. c #A13950",
"5. c #86444E",
"6. c #854A53",
"7. c #994356",
"8. c #98565B",
"9. c #8E5155",
"0. c #A7444A",
"q. c #A04044",
"w. c #B54148",
"e. c #AA4E56",
"r. c #875D62",
"t. c #985461",
"y. c #AB5062",
"u. c #8C696A",
"i. c #9F6A74",
"p. c #887C77",
"a. c #8A756E",
"s. c #AA6D73",
"d. c #7A827B",
"f. c #89877D",
"g. c #928177",
"h. c #817F82",
"j. c #A77A81",
"k. c #7E8283",
"l. c #838482",
"z. c #838C8B",
"x. c #898986",
"c. c #998986",
"v. c #8A968A",
"b. c #969489",
"n. c #8B9393",
"m. c #869290",
"M. c #9C9C9B",
"N. c #959895",
"B. c #AB8989",
"V. c #A89A98",
"C. c #B29798",
"Z. c #B98992",
"A. c #95A19C",
"S. c #9AA298",
"D. c #A5A699",
"F. c #A9A69A",
"G. c #9DA4A3",
"H. c #A7A8AA",
"J. c #B8A3A2",
"K. c #AAB1A6",
"L. c #ADB6B3",
"P. c #B2B5B5",
"I. c #B5BDBA",
"U. c #B1B4AB",
"Y. c #C59299",
"T. c #C89BA2",
"R. c #CAADAF",
"E. c #D5B6B9",
"W. c #CEB3B6",
"Q. c #E1A8B1",
"!. c #E0BCBE",
"~. c #BEC1B7",
"^. c #BFC4BF",
"/. c #C7C5BA",
"(. c #BDC4C3",
"). c #BFCBC9",
"_. c #C7CAC7",
"`. c #D6CBC6",
"'. c #CAD3C7",
"]. c #C9D1CF",
"[. c #D4D6CB",
"{. c #CDD3D1",
"}. c #DCDCD2",
"|. c #D3DBDA",
" X c #D6D7D5",
".X c #E5CBCB",
"XX c #F8CED3",
"oX c #E5DBD8",
"OX c #F8D8DC",
"+X c #DEE7DE",
"@X c #E6E5DD",
"#X c #EBE9DD",
"$X c #FDDFE1",
"%X c #DCE3E1",
"&X c #DEEAE0",
"*X c #EFE4E2",
"=X c #E3EBE4",
"-X c #E6EFEB",
";X c #E8EBE7",
":X c #F1E6E4",
">X c #FBE1E4",
",X c #F8ECE7",
"<X c #EBF4EC",
"1X c #F3F2EC",
"2X c #F8F7EE",
"3X c #EDF6F2",
"4X c #F3F6F2",
"5X c #FBF4F3",
"6X c #FDFEF5",
"7X c #FFFDF9",
"8X c #F3FCF4",
/* pixels */
"%   % 6 % 6 C C C : < c l : : z * . 0 ",
"> + @ % @ , , @ < @ ; : ; : < O = . $ ",
"  @ > > e e r z l l C 6 ; l v ; q 4 * ",
"V / K z C B 6 r C l T B : l T 5 N L A ",
"V ^ V N X.f.d.( C 1 e E u.g.g./ * G N ",
"K ^ V V b.[.#X/.^ > > a././.F.g.t d.L ",
"f.K.K.d.O.D.}.}.b.g.( F.,X/.} K S.&XN.",
"f.'.<XK.q V /.2X#X6X#X#X2XF.y t /.7Xv.",
"d.&X&XS.A ~ -X6X6X6X6X@X6X/.x s [.+X{ ",
"d.&X&Xf.N H ~.'.U.~.'./.[.U.N S L.^.H ",
"N k.~.d.H a U P D H S a J P d ] d.x.4 ",
"$ N d.d.L a t q p a 5 * q p D } L G   ",
"4 4 N N N H J U ~ X.{ ] ] U G B D w   ",
"4 4 N N L ..` #.` @.` } [ I I p N X X ",
"$ & ^ _ #.k.U ` $.l.Q ] ` ` x.[ P   t ",
"4 t d.d.@.l.` @.$.x.[ $.' I f.K o.* Y ",
"u ) _ Y ` [ [ } Y ' ' | u.Q E | | W x ",
"_ n.G.m.N.M.N.V.h.V.V.c.C.J.B.a.u.r.r.",
"k.(.).(.{.|.{. X.XOX.XE..X!.B.r.t.y.j.",
"k.I.].|.-X4X3X5X7X,X$X$XOXY.6.Z 5.e.s.",
"k.L.).|.3X4X4X7X5X>X$XXXQ.i.Z ;.:.0.e.",
"A.I.).%X3X3X-X5X:X>XXXZ.t.>.-.-.1.w.w.",
"n.P.].%X3X-X=X4X:X$XQ.! n -.-.-.1.3.3.",
"h.H.(.|.-X=X%X4XoXW.j.Z m -.-.<.&.=.3.",
"h.H.).|.%X3X-X%X*XC.j g ,.,.%.<.0.w.w.",
"h.M.L.(.|.3X5X%X*X$XZ.Z Z 7.4.%.*.q.0.",
"P k.H.(.].;X3X;XoX5X$Xi.h Z y.;.q.9.e.",
"- Y G.I.(.].;X5X*X$X$XT.n h ;.;.5.5.5.",
"  w ) z.G.(.%X5X*X.XoXE.u.Z R Z ! v j ",
"4 X X i #.H._.`.W.`.`.R.C.C.i.r.W b 2 ",
"0 $   $ d ` x.M.c.H.J.C.J.C.u.Q 8 8 7 ",
"$ 0 u 0     d } o.p.| p.c.F O # # - 7 "
};
