/* XPM */
static char *P_L[] = {
/* columns rows colors chars-per-pixel */
"19 32 237 2 ",
"   c black",
".  c #010000",
"X  c #000100",
"o  c #010101",
"O  c #000200",
"+  c #020202",
"@  c gray1",
"#  c #060000",
"$  c #040404",
"%  c gray2",
"&  c #060606",
"*  c #070707",
"=  c #080000",
"-  c #0E0905",
";  c gray3",
":  c #090909",
">  c gray4",
",  c #0B0B0B",
"<  c #0C0C0C",
"1  c gray5",
"2  c #0E0E0E",
"3  c gray6",
"4  c #170103",
"5  c #150706",
"6  c #1D0709",
"7  c #130B08",
"8  c #120D0A",
"9  c #1A0A0A",
"0  c #11100E",
"q  c #11140D",
"w  c #101010",
"e  c #111111",
"r  c #111310",
"t  c #131210",
"y  c gray7",
"u  c #131313",
"i  c gray8",
"p  c #151515",
"a  c #161616",
"s  c gray9",
"d  c #191313",
"f  c #1B1C16",
"g  c #181818",
"h  c #191919",
"j  c gray10",
"k  c #1B1B1B",
"l  c #1B1D1A",
"z  c gray11",
"x  c #1D1D1D",
"c  c #1E1E1E",
"v  c gray12",
"b  c #201010",
"n  c #201011",
"m  c #271314",
"M  c #221616",
"N  c #29191A",
"B  c #172319",
"V  c #1A2A1F",
"C  c #21221D",
"Z  c #20251E",
"A  c #2A221F",
"S  c #202020",
"D  c gray13",
"F  c #222222",
"G  c #232323",
"H  c #242321",
"J  c #252525",
"K  c gray15",
"L  c #272727",
"P  c #2F2323",
"I  c #272A23",
"U  c #272924",
"Y  c #282828",
"T  c gray16",
"R  c #2A2A2A",
"E  c gray17",
"W  c #2C2C2C",
"Q  c #2D2D2D",
"!  c gray18",
"~  c #2F2F2F",
"^  c #302B28",
"/  c #243429",
"(  c #37322E",
")  c gray19",
"_  c #313131",
"`  c #323232",
"'  c gray20",
"]  c #343434",
"[  c #353535",
"{  c gray21",
"}  c #373737",
"|  c #393333",
" . c #323C33",
".. c #333834",
"X. c gray22",
"o. c #393939",
"O. c #3A3A3A",
"+. c gray23",
"@. c #3C3C3C",
"#. c gray24",
"$. c #3F3F3D",
"%. c #3E3E3E",
"&. c #3F3F3F",
"*. c #412B2D",
"=. c #40403E",
"-. c gray25",
";. c #414141",
":. c #424240",
">. c gray26",
",. c #434343",
"<. c #464241",
"1. c #444444",
"2. c gray27",
"3. c #464646",
"4. c gray28",
"5. c #454A46",
"6. c #4E4A47",
"7. c #484848",
"8. c #494949",
"9. c gray29",
"0. c #4B4B4B",
"q. c #4C4E4B",
"w. c #4C4C4C",
"e. c gray30",
"r. c #4E4E4E",
"t. c gray31",
"y. c #524242",
"u. c #504845",
"i. c #4C574F",
"p. c #4D574F",
"a. c #505050",
"s. c gray32",
"d. c #535353",
"f. c #565553",
"g. c gray33",
"h. c #555555",
"j. c #565656",
"k. c gray34",
"l. c #5A5C57",
"z. c #585858",
"x. c gray35",
"c. c #5A5A5A",
"v. c #5B5B5B",
"b. c gray36",
"n. c gray37",
"m. c #5F5F5F",
"M. c #625D5A",
"N. c #606060",
"B. c gray38",
"V. c #636260",
"C. c #626262",
"Z. c gray39",
"A. c #646464",
"S. c #656565",
"D. c gray40",
"F. c #676767",
"G. c DimGray",
"H. c #6A6A6A",
"J. c gray42",
"K. c #6D6968",
"L. c #6C6C6C",
"P. c #6D6D6D",
"I. c #6F6F6F",
"U. c gray44",
"Y. c #717171",
"T. c #727272",
"R. c gray45",
"E. c gray46",
"W. c #777777",
"Q. c #717C74",
"!. c #7B7E77",
"~. c gray48",
"^. c #7B7B7B",
"/. c #7C7C7C",
"(. c gray49",
"). c #7E7E7E",
"_. c #808080",
"`. c gray51",
"'. c #838383",
"]. c #848484",
"[. c #868686",
"{. c gray53",
"}. c #8B8380",
"|. c #898989",
" X c gray54",
".X c #8B8B8B",
"XX c gray55",
"oX c gray56",
"OX c #909090",
"+X c gray57",
"@X c #929292",
"#X c #939393",
"$X c #959792",
"%X c gray58",
"&X c #959595",
"*X c #979797",
"=X c #989898",
"-X c gray60",
";X c #9A9A9A",
":X c #9B9B9B",
">X c gray61",
",X c #9D9D9D",
"<X c gray62",
"1X c #9F9F9F",
"2X c #99A99E",
"3X c #9FA9A0",
"4X c #A0A0A0",
"5X c gray63",
"6X c #A2A2A2",
"7X c gray64",
"8X c #A4A4A4",
"9X c #A5A5A5",
"0X c gray65",
"qX c #A7A7A7",
"wX c #A2A9A2",
"eX c gray66",
"rX c #AAAAAA",
"tX c #ACACAC",
"yX c #ADB9AF",
"uX c gray69",
"iX c gray70",
"pX c gray71",
"aX c #BCBFB8",
"sX c gray",
"dX c gray75",
"fX c #C0C0C0",
"gX c #C1C1C1",
"hX c gray76",
"jX c #C3C3C3",
"kX c gray77",
"lX c #C6C6C6",
"zX c #CACACA",
"xX c gray81",
"cX c LightGray",
"vX c gray86",
"bX c #DFDFDF",
"nX c gray88",
/* pixels */
"  K *   a < $ ,.+.9.4.Q k g 2   3 %   ",
"%   3 a 2 _ s.>.S.8.&.s.z.@.g * +     ",
"s     s %.[.rX.X^.7X<XH.h.N.%.  +     ",
": S ; ) 7XpX{.#X<X].&XlXjX'.h.h.3 +   ",
"  ) k.@XkXR.i J ] 1 v (.zXhX XC.Y u + ",
": ] -XhXL.w       > +   [ %X4XH.a.{ v ",
"@.b.XXR.h   D [ a.x u ) J e z.zXH.a.O.",
"e.+XC.w g c x 9.~ o y e.O.  W 1XF.a.#.",
"h.sX-.S K a D.E $ k x.! v J g .XY.2.[ ",
"~.=X;.  _ c.~   z >.O.y h.]   8XL.2.+.",
"E.5XC.k #.-.u h #.G +.@.&.k 2 -XT.0.-.",
"e.fXC.-.#.  W 8.E s e.0.3   S %XW.1.Q ",
") 0Xa.w x x 2.' 2 0.O.$ 2   s 7XI.) > ",
"1 L.`.    k.X.z Q +.a   % ' j.(.N.F   ",
"  %.<Xw.w [ s h { ; + u x C..X1.#.e + ",
"  F D.0Xj.    @   p   j L._.m.@.t . . ",
"    p 9.I.g.{ -.+.} ;.v.G.z.) 0 8 = # ",
"a * % T 0.4.1.b.F.m.v.j.8.%.0.V.6.( - ",
"%   u @.s.7.>.r.0.@.[ ,.k.v.t.:.$X!.I ",
"    ' C.N.r.r.h.w.a.8.a.^.=XG.l wX3X .",
"+ w 2.C.w.d.[.qXOXtX|.,.r.oX'...Q.2X/ ",
"$ w 0.A.2.B.pXnXxXvX%XQ O.-X:X5.i.2XV ",
"    ;.n.%.B.pXcXbXvX*X2.z.9X>Xq.p.yXB ",
";   R %.c w.0XdXiXgX-X4.R 0.z.=.l.aXq ",
"3 < 0.t.W ] ] ] o.o.1.&.W ` } H M.}.u.",
"    L _ [ t.s.n.k.s.a.%.) 7.k.<.P y.b ",
"@   * ; W t.8.Z.=XoX~.t._ -.%.d N *.6 ",
"> * o   L 3.X.n.,X6X,X).J./.P.| n m 4 ",
"+ ; , + Q 8.&.H.1XeXuX7X;XtX<XK.M 5 9 ",
"  o e : x ] Q 0.U.L.Y.J.C.T.R.f.^ 7 A ",
"1   2 & o p w a , o 3 x c ~ ,.$.C X f ",
"u   * &   u y ; h ; u S e ; e r U O Z "
};
