/* XPM */
static char *P_L[] = {
/* columns rows colors chars-per-pixel */
"32 32 177 2 ",
"   c #2E2E2C",
".  c #302F31",
"X  c #2C353B",
"o  c #502B2D",
"O  c #4C3428",
"+  c #533729",
"@  c #5B3B2A",
"#  c #593D30",
"$  c #6B3C26",
"%  c #643929",
"&  c #653E2A",
"*  c #703E27",
"=  c #782F34",
"-  c #6A3430",
";  c #48423B",
":  c #5F4533",
">  c #6D412A",
",  c #764127",
"<  c #754229",
"1  c #7C4429",
"2  c #79482E",
"3  c #614533",
"4  c #654A37",
"5  c #734C35",
"6  c #714F39",
"7  c #69513E",
"8  c #73543D",
"9  c #2B3A44",
"0  c #283B49",
"q  c #6D3F43",
"w  c #7A3F40",
"e  c #3E4A4C",
"r  c #29465A",
"t  c #364B58",
"y  c #394C5B",
"u  c #3B505F",
"i  c #284960",
"p  c #464745",
"a  c #504F4D",
"s  c #5C5245",
"d  c #435458",
"f  c #565853",
"g  c #624E49",
"h  c #71424A",
"j  c #645242",
"k  c #6B5645",
"l  c #66574B",
"z  c #7A5A45",
"x  c #745B49",
"c  c #6F4852",
"v  c #665857",
"b  c #76624C",
"n  c #656759",
"m  c #6A6A5E",
"M  c #776757",
"N  c #4D5C66",
"B  c #4A636D",
"V  c #5D6760",
"C  c #5D6B67",
"Z  c #546B74",
"A  c #516D78",
"S  c #676C67",
"D  c #606E6A",
"F  c #756D61",
"G  c #6E7669",
"H  c #7C7564",
"J  c #777C6B",
"K  c #667877",
"L  c #A32A32",
"P  c #84442D",
"I  c #8A4630",
"U  c #934634",
"Y  c #9C4639",
"T  c #885C3F",
"R  c #873E47",
"E  c #963C46",
"W  c #A13A47",
"Q  c #834D4F",
"!  c #BD4A4A",
"~  c #A74B54",
"^  c #B2505A",
"/  c #9A6547",
"(  c #8B6F5E",
")  c #99645F",
"_  c #82765F",
"`  c #887767",
"'  c #837A65",
"]  c #9D7964",
"[  c #927B6B",
"{  c #9B7C6C",
"}  c #997F73",
"|  c #AB7267",
" . c #C64C4E",
".. c #DF485D",
"X. c #CD5764",
"o. c #7D8371",
"O. c #87846D",
"+. c #8F8C75",
"@. c #958570",
"#. c #96947A",
"$. c #A58776",
"%. c #376484",
"&. c #36688D",
"*. c #3D759D",
"=. c #3F7AA4",
"-. c #426E8B",
";. c #49728A",
":. c #4C7D9F",
">. c #417CA5",
",. c #798985",
"<. c #598CB0",
"1. c #6D8DA2",
"2. c #739CB6",
"3. c #889483",
"4. c #8E9C8F",
"5. c #949A85",
"6. c #9C9B82",
"7. c #899992",
"8. c #9B9F94",
"9. c #A89E87",
"0. c #BF9D86",
"q. c #9AA28A",
"w. c #A7AA87",
"e. c #AEB18D",
"r. c #A4AD96",
"t. c #A9AF93",
"y. c #ACB597",
"u. c #B2BB9B",
"i. c #B7BB9A",
"p. c #859DA8",
"a. c #9DAEAF",
"s. c #ABB6A0",
"d. c #B6BFA3",
"f. c #C69C85",
"g. c #D3A88D",
"h. c #D2AA91",
"j. c #DCB197",
"k. c #E0B89E",
"l. c #F3B89C",
"z. c #B6C09F",
"x. c #BBC4A5",
"c. c #BCC6A9",
"v. c #BFCAAA",
"b. c #C5CBA5",
"n. c #C2CCAB",
"m. c #CDD2A5",
"M. c #C5D0AD",
"N. c #CCD2AB",
"B. c #D0D6AA",
"V. c #D2D8AC",
"C. c #C7D2B1",
"Z. c #CAD5B2",
"A. c #CED9B3",
"S. c #D2DEB6",
"D. c #D1DEB8",
"F. c #EEC3A6",
"G. c #F2C3A5",
"H. c #F9C9AB",
"J. c #FDCEB0",
"K. c #FFD2B3",
"L. c #D9E3B7",
"P. c #D5E2BA",
"I. c #D9E6BC",
"U. c #DDEABE",
"Y. c #83AAC3",
"T. c #92B3CB",
"R. c #A3BCC5",
"E. c #B4CAD6",
"W. c #DEEBC1",
"Q. c #E1EFC2",
"!. c #E2ECCD",
"~. c #E2F0C4",
"^. c #E6F2CC",
"/. c #C9D9E4",
"(. c #D8E1E5",
"). c #E9EFF0",
"_. c #EDF3F2",
/* pixels */
"Q.Q.Q.Q.Q.~.Q.Q.Q.Q.Q.Q.Q.Q.Q.Q.Q.Q.Q.Q.Q.Q.Q.Q.Q.Q.Q.Q.Q.Q.Q.Q.",
"Q.Q.Q.Q.Q.Q.Q.Q.Q.Q.Q.Q.Q.Q.Q.Q.Q.Q.Q.Q.Q.Q.Q.Q.Q.Q.Q.Q.Q.Q.Q.Q.",
"Q.Q.Q.Q.Q.Q.Q.Q.Q.Q.Q.Q.Q.Q.Q.Q.Q.Q.Q.Q.Q.Q.Q.~.Q.Q.Q.Q.Q.Q.Q.Q.",
"Q.Q.Q.Q.Q.Q.Q.Q.Q.Q.Q.Q.Q.Q.Q.Q.Q.Q.Q.Q.Q.Q.~.~.Q.Q.Q.Q.Q.Q.Q.Q.",
"Q.Q.Q.~.Q.Q.~.~.Q.~.Q.Q.Q.Q.Q.Q.Q.Q.Q.Q.Q.Q.I.I.U.~.Q.~.Q.Q.Q.Q.",
"~.~.~.~.~.Q.I.P.D.D.P.W.Q.^.Q.^.~.~.Q.Q.W.n.' _ x.I.Q.~.Q.Q.Q.Q.",
"~.~.~.W.P.c.o.D V V C 3.n.P.^.Q.!.~.W.n.+.g @ + s O.x.L.Q.Q.Q.Q.",
"~.~.~.P.4.,.1.%.i i %.-.Z 4.D.~.~.I.5.k Q * , , > > 7 +.S.~.Q.Q.",
"~.~.D.7.p.(./.>.&.&.*.>.*.;.4.D.P.6.6 P  .U 1 1 1 1 1 2 +.A.Q.Q.",
"~.~.x.A E._.T.>.>.>.=.=.=.*.Z x.n.k < I  .U 1 1 1 1 1 1 4 u.~.~.",
"Q.Q.r.Z /.).<.=.=.=.=.=.=.*.B x.v.j , P ! Y 1 1 1 1 1 1 : y.~.~.",
"Q.c.K 7._./.<.=.=.>.=.=.=.*.B x.v.j , 1 Y ! I 1 1 1 1 1 : y.Q.~.",
"c.,.:.R._.Y.=.=.=.=.=.=.=.*.B x.n.k , 1 U  .I 1 1 1 1 , : y.~.~.",
"i.;.A a.).2.*.=.*.*.*.*.&.i a 6.M.H > , P Y 1 < 1 1 1 1 : y.~.~.",
"Q.d.s.8.} N u d y y y t p # & M Z.t.; O + # & $ > , 1 1 : y.~.Q.",
"^.^.!.3.M l @.f.] ] z - * < 2 H Z.5.M l [ 0.{ ( k $ 1 , : y.~.Q.",
"^.^.v.l $.@.k.K.l.g./ 1 2 b O.b.M.m $.$.h.H.G.f.x % 1 1 3 6.W.^.",
"^.^.C.{ g.F.H.J.H.@.> : b u.I.Q.A.#.f.F.G.l.j.( % * 1 1 1 z q.u.",
"~.~.Q.C.9.} ` ` ] a 9 X o.L.~.Q.Q.A.9.{ { { ) E - * 1 1 1 < 5 b ",
"~.~.Q.~.b.f X 0   e i t 3.U.Q.Q.Q.Q.t.Q W W W ..= & 1 1 1 1 < T ",
"Q.Q.~.Q.I.G r 0 s g 0 C M.U.Q.Q.Q.Q.S.} L L L = % , 1 1 1 < O 8 ",
"Q.Q.Q.Q.I.J r 0 ' F 9 G I.Q.Q.Q.Q.Q.S.} ~ R E o @ , 1 1 P , ; H ",
"Q.Q.Q.Q.U.r.d X ` H e 8.U.Q.Q.Q.Q.Q.y.| ^ ~ ~ R w $ 1 1 1 5 #.S.",
"Q.Q.Q.Q.Q.I.q.a S m n Z.Q.Q.Q.Q.Q.Q.N.{ q X.^ q } M 4 4 7 #.P.Q.",
"Q.Q.Q.Q.Q.Q.n.G D S o.Z.U.Q.Q.Q.Q.Q.U.q.v h c n u.n.u.u.z.P.Q.Q.",
"Q.Q.Q.Q.Q.L.m.O.p ; +.m.U.U.Q.Q.Q.U.U.i.S   . H b.L.W.Q.~.Q.Q.Q.",
"Q.Q.Q.Q.U.B.m.w.n m e.m.V.U.Q.Q.Q.U.L.m.e.F n #.m.B.I.Q.Q.Q.Q.Q.",
"Q.Q.Q.Q.Q.U.Q.W.L.U.U.U.U.Q.Q.Q.Q.~.Q.Q.U.I.L.U.U.Q.Q.Q.Q.Q.Q.Q.",
"Q.Q.Q.Q.Q.Q.Q.Q.Q.~.Q.Q.Q.Q.Q.Q.Q.Q.Q.Q.Q.Q.Q.Q.Q.Q.Q.Q.Q.Q.Q.Q.",
"Q.Q.Q.Q.Q.Q.Q.Q.Q.Q.Q.Q.Q.Q.Q.Q.Q.Q.Q.Q.Q.Q.Q.Q.Q.Q.Q.Q.Q.Q.Q.Q.",
"Q.Q.Q.Q.Q.Q.Q.Q.Q.Q.Q.Q.Q.Q.Q.Q.Q.Q.Q.Q.Q.Q.Q.Q.Q.Q.Q.Q.Q.Q.Q.Q.",
"Q.Q.Q.Q.Q.Q.Q.Q.Q.Q.Q.Q.Q.Q.Q.Q.Q.Q.Q.Q.Q.Q.Q.Q.Q.Q.Q.Q.Q.Q.Q.Q."
};
