/* XPM */
static char *P_L[] = {
/* columns rows colors chars-per-pixel */
"19 32 141 2 ",
"   c #000300",
".  c #090000",
"X  c #040903",
"o  c #090C06",
"O  c #070B09",
"+  c #0C0E09",
"@  c #0D120C",
"#  c #11140E",
"$  c #15180F",
"%  c #121611",
"&  c #1D1312",
"*  c #161913",
"=  c #1A1C15",
"-  c #171B1A",
";  c #191E19",
":  c #241009",
">  c #301D16",
",  c #1C2117",
"<  c #1E221C",
"1  c #22241E",
"2  c #2B221B",
"3  c #1F2420",
"4  c #262722",
"5  c #252923",
"6  c #2A2C26",
"7  c #2A2F29",
"8  c #3F2D23",
"9  c #362C2B",
"0  c #2C322C",
"q  c #32322E",
"w  c #313630",
"e  c #353B34",
"r  c #393D36",
"t  c #373C38",
"y  c #3A3E3A",
"u  c #423026",
"i  c #413029",
"p  c #3D433D",
"a  c #4E4037",
"s  c #41433D",
"d  c #4B433D",
"f  c #3B4345",
"g  c #424642",
"h  c #474B44",
"j  c #494C45",
"k  c #4B4F49",
"l  c #504D48",
"z  c #4C514C",
"x  c #54534D",
"c  c #58534D",
"v  c #4E5351",
"b  c #555751",
"n  c #555954",
"m  c #5C5B54",
"M  c #575B5C",
"N  c #5A5E58",
"B  c #605D58",
"V  c #5E615B",
"C  c #63625B",
"Z  c #6C635C",
"A  c #656761",
"S  c #6A6661",
"D  c #666A63",
"F  c #6B6A63",
"G  c #666A69",
"H  c #696E69",
"J  c #736F69",
"K  c #6D716B",
"L  c #72746D",
"P  c #78716B",
"I  c #72786E",
"U  c #737771",
"Y  c #7A7770",
"T  c #757A73",
"R  c #7B7C75",
"E  c #7C7E79",
"W  c #817E77",
"Q  c #837E78",
"!  c #7D827B",
"~  c #83847D",
"^  c #8A857F",
"/  c #848681",
"(  c #8B8680",
")  c #858A84",
"_  c #8A8D86",
"`  c #878C88",
"'  c #8C8E8A",
"]  c #928F88",
"[  c #8D918A",
"{  c #93938D",
"}  c #939691",
"|  c #959992",
" . c #9B9B95",
".. c #9A9F99",
"X. c #9EA29C",
"o. c #A0A39B",
"O. c #A6A7A1",
"+. c #A8A7A2",
"@. c #A6ABA4",
"#. c #AAACA5",
"$. c #ACAFA8",
"%. c #AAB0A6",
"&. c #ADB2AB",
"*. c #B2B3AB",
"=. c #B0B4B3",
"-. c #B6BBB3",
";. c #BABBB4",
":. c #BEC3BB",
">. c #C5C5BE",
",. c #C0C8BD",
"<. c #C3C5C0",
"1. c #C8C5C0",
"2. c #C5C8C1",
"3. c #CDCCC6",
"4. c #CCCEC9",
"5. c #CAD2C7",
"6. c #CDD2CC",
"7. c #D5D5CD",
"8. c #D1D6D1",
"9. c #D7DCD6",
"0. c #DEDBD6",
"q. c #D0D8DA",
"w. c #DBDDD9",
"e. c #E0DFDA",
"r. c #DBE2DB",
"t. c #E3E3DC",
"y. c #E8E5DE",
"u. c #DFE3E2",
"i. c #E3E6E1",
"p. c #E5E9E4",
"a. c #EBEBE5",
"s. c #EAEDE9",
"d. c #F0ECE6",
"f. c #EFF1EB",
"g. c #F3F2EC",
"h. c #F4F7F1",
"j. c #F8F7F3",
"k. c #F6FBF5",
"l. c #FAFBF5",
"z. c #F7FDFB",
"x. c #FDFFFA",
/* pixels */
"X X + +   o + j D D T N r $ X o     o ",
"X + +   4 H R ~ R ) [ _ ~ ~ =   X @   ",
"# .   w E ;.e.s.w.f.4.#.o.{ T #   X + ",
"o   4 U 4.x.k.j.s.s.k.l.x.>. .! ;   @ ",
"O t ! 6.h.X.5 5 7 ; t O.z.z.6.@.H 1   ",
"5 K 8.z.$.X @ # 7 -     V ..z.:.{ A * ",
"z ! h.@.  < 7 M U 7   f E O :.p. .| P ",
"T 6./   w e f ) G X p ` v   f p...~ { ",
"X.z.D % p p [ K   e ) z p v - p.#.~ ~ ",
"X.h.T 5 p [ D   p ) f p ` G - u.+.~ ~ ",
"} z.K t X.v X p ! k t ' ) % @ r.%.) L ",
"| k.) ! V X p ) f 0 ! ! % X @ 8.&.Y h ",
"H z.| p X k ` z w ! K X X X 5 r.X.h X ",
"X @.|   5 ! V 5 H K X   X < :.%.| e   ",
"  ! z.) @ 0 p p p o X   , :.:.` L 3 O ",
"  < -.z.} O           < :.5.! V y     ",
"    , ~ ,.` Z F D D D %.-.I D 1       ",
"    , Z V ~ X.%.%.*.*.] I I R _ ! v   ",
"o   0 _ ! ! I F m m V C #.>.C E z.q.f ",
"    k | X.^ X. .{ { X.^ ;.f.| P i.z.M ",
"X # K *._ { y.a.y.y.7.! ] d.>.B +.j.l ",
"o + K -.~ ] l.x.l.l.0.Z Q d.e.^ ] g.x ",
"  # K _ I _ j.h.j.g.y.! Q e.d.{ ' g.N ",
"# o j C d ^ h.l.g.l.>.m J ] ( J ' f.N ",
"X @ K [ V V V A l B B l c S F B { g.b ",
"  X w z b I _ ) Q W R c J ( ^ F d Z 2 ",
"      % s ' O.-.e.g.e.~ S B F i i i u ",
"    X , y / C { g.g.e.3.1.1.*.P u 8 : ",
"X     ; g { L >.x.x.x.x.l.x.a. .9 & . ",
"      % s H N _ O.O. .+.+.+.e. .9 . + ",
"        ; 5 4 4 = = # s s = J C 4   * ",
"  X       * < 1 & * < 6 4 & 1 % X   X "
};
