/* XPM */
static char *P_L[] = {
/* columns rows colors chars-per-pixel */
"19 32 96 2 ",
"   c #010101",
".  c #090000",
"X  c #070709",
"o  c #0D0D0D",
"O  c #170302",
"+  c #100806",
"@  c #100F0D",
"#  c #10100F",
"$  c #0F0F10",
"%  c #131313",
"&  c #181616",
"*  c #191816",
"=  c #161618",
"-  c #191718",
";  c #1C1C1C",
":  c #25100D",
">  c #231514",
",  c #2D1815",
"<  c #211D1B",
"1  c #301814",
"2  c #311E1A",
"3  c #22211F",
"4  c #211F20",
"5  c #232323",
"6  c #2D2220",
"7  c #262827",
"8  c #2A2927",
"9  c #262628",
"0  c #292728",
"q  c #2D2C2C",
"w  c #342927",
"e  c #322E2D",
"r  c #31302E",
"t  c #3A302F",
"y  c #343333",
"u  c #3A3434",
"i  c #3A3836",
"p  c #363638",
"a  c #3D3B3B",
"s  c #493A37",
"d  c #423C3C",
"f  c #43413E",
"g  c #413F40",
"h  c #454442",
"j  c #494645",
"k  c #4B4946",
"l  c #4D4B4B",
"z  c #514D4D",
"x  c #53504E",
"c  c #4F5150",
"v  c #555453",
"b  c #5A5654",
"n  c #5A5957",
"m  c #575658",
"M  c #595758",
"N  c #5D5B5A",
"B  c #625E5D",
"V  c #62615F",
"C  c #656362",
"Z  c #6A6765",
"A  c #6A6965",
"S  c #6D6C6B",
"D  c #736F6D",
"F  c #71706E",
"G  c #6E6E70",
"H  c #777776",
"J  c #797574",
"K  c #7C7C7B",
"L  c #827D7C",
"P  c #847E80",
"I  c #838282",
"U  c #898586",
"Y  c #8D8A8A",
"T  c #928E8D",
"R  c #918F92",
"E  c #949393",
"W  c #999595",
"Q  c #9C9895",
"!  c #9C9A9A",
"~  c #A09C9B",
"^  c #A5A4A4",
"/  c #ABA7A5",
"(  c #ACA8A7",
")  c #ACACAB",
"_  c #B3AFAE",
"`  c #AFAFB1",
"'  c #B4B4B3",
"]  c #BAB9B7",
"[  c #BBBBBB",
"{  c #C1BFC0",
"}  c #C5C4C5",
"|  c #CDCCCE",
" . c #D0CECF",
".. c #D7D5D6",
"X. c #DDDCDC",
"o. c #E2E2E3",
/* pixels */
"          o % d l k l i ; +           ",
"        & h l z m m b z l f o         ",
"      & l I R E ! ! Y G A m d o       ",
"    & k E } ~ ! ! ! ^ | } K m f o     ",
"  = c R | S X $ $ $ 5 G ] | E C h o   ",
"% h R | S X X $ $ $     p G } H v f # ",
"q m ` S   $ = 9 a o   5 l   I ) n b f ",
"m E N X = ; 4 m y   5 m q X p ` A x f ",
"V ] h % 5 5 m y   4 m q 3 7 X ! D x h ",
"V ' j % 9 c y   3 m q = c a $ ! S x h ",
"V ' h ; m y   3 m q ; l g   o ! S x j ",
"V ' n h r   5 m q ; l a     # ! F f e ",
"a ) m 3   7 m q 4 c a       = ! D 8   ",
"  S V   % c q = a a       $ H K v 3   ",
"  k ] c   % 3 5 ; X     o K I v j @   ",
"  % H ) m             # H I j h <     ",
"    @ l I k i a a a i D J j d &       ",
"    % a r x N Z D S F x i a j b N 3   ",
"    * x l j h i r t t r D K i z ^ E = ",
"    e B B b V N N N b z J W M d ! ) 7 ",
"    d J n n W ! ! ! U j z ~ L e S ) 8 ",
"  X f J x v [ X.....! i k W ~ k n ) q ",
"  X d B d n } o.o.X.~ a z W ~ x N ) r ",
"  X e i 8 b ^ [ ] ] Y d d x x d N ' q ",
"  X h v y y a a d a d t t a d e b ( w ",
"    ; q 0 h b v z z z u d z z t w s > ",
"      o ; m S D R ~ T k t u u 6 2 1 , ",
"      o 3 k e N ~ ~ W L L P Z s 2 : O ",
"      o 3 v a K ) ^ / ( / / ~ b < + . ",
"      o < a y l Z C C V C Z T N * .   ",
"        % & % # @ $ o 7 4 % j i o     ",
"          o # # $ % $ ; ; @ * %       "
};
