/* XPM */
static char *P_R[] = {
/* columns rows colors chars-per-pixel */
"19 32 86 1 ",
"  c #010101",
". c #0F0705",
"X c #0B0A06",
"o c #060709",
"O c #0D0D0D",
"+ c #1E0200",
"@ c #100E0F",
"# c #10100E",
"$ c #0D0E10",
"% c #110F10",
"& c #0F1110",
"* c #131312",
"= c #191718",
"- c #1C1C1C",
"; c #280F0B",
": c #241613",
"> c #211D1B",
", c #2F1B1A",
"< c #331612",
"1 c #341815",
"2 c #321D1C",
"3 c #222222",
"4 c #282725",
"5 c #292728",
"6 c #2C2C2C",
"7 c #322424",
"8 c #322F2D",
"9 c #33312F",
"0 c #39312F",
"q c #353333",
"w c #3A3635",
"e c #3B3836",
"r c #363739",
"t c #3D3C3B",
"y c #403E3C",
"u c #493B3A",
"i c #42403E",
"p c #454342",
"a c #494644",
"s c #4B4947",
"d c #4D4C4B",
"f c #514E4C",
"g c #4E504F",
"h c #52504E",
"j c #514F50",
"k c #555453",
"l c #595655",
"z c #5B5856",
"x c #5D5B5B",
"c c #605C5B",
"v c #64605F",
"b c #5D5E60",
"n c #656362",
"m c #6B6665",
"M c #676769",
"N c #6C6B6A",
"B c #716E6E",
"V c #6D6E70",
"C c #716F70",
"Z c #6F7170",
"A c #747374",
"S c #787574",
"D c #7C7B7A",
"F c #817D7C",
"G c #848383",
"H c #8C8887",
"J c #8E8D8D",
"K c #918D8C",
"L c #91918F",
"P c #969493",
"I c #999595",
"U c #9A9897",
"Y c #9C9A9A",
"T c #A29E9D",
"R c #A4A3A2",
"E c #AAA6A5",
"W c #ABA7A8",
"Q c #ADACAC",
"! c #B0ACAB",
"~ c #B4B3B4",
"^ c #BABABB",
"/ c #C4C4C4",
"( c #CCCCCD",
") c #D4D3D4",
"_ c #DCDBDC",
"` c #E2E2E3",
/* pixels */
"     O>edade*X     ",
"    Oydfkzzdfi*    ",
"   XpzmNJUPJLDs*   ",
"  OikD/(WYTYR/Ks*  ",
" OpML(^N3O&O&A(Js= ",
"$pkS/Zr  &*OooZ(Jp#",
"pkxQGod3 &i3-OoZQg6",
"afM~ro6z3 rk--=XbPk",
"ahBTO436k- rk33#d^b",
"ihBU$td=6k- rh3#g~c",
"sfBY$ td-qz= rg-d~x",
"8pCU&  tg-6l- rpb~x",
" 4BY= o rg-6l3 3bQq",
" 4kDS#   rr=9g& MM ",
" $skGDO  O-3-*ol~p ",
"  >paGS&      xQA$ ",
"   *iaSBettewgGaO  ",
" 3vzat0hNNBmzg6t*  ",
"-UEswFB0wq0eiahh*  ",
"6QIyzISfzzzcvlvv6  ",
"6QMqFUsiHYYYUkxAt  ",
"qQlgTUsyU))_~dlAto ",
"qQxkTIgtU```^kixto ",
"q~xthhetH^^^Yk5w9  ",
"6Wz9yy99teyytqrlp  ",
":u70sfyqfffkky58=  ",
"1127we0aHTPBBh-O   ",
"+;,umFFFITUk9a-O   ",
"..>lTEWWER!Stj-O   ",
"  =cKmvnnnmsqt-o   ",
"  Oqs%35%OO****    ",
"  o==%=>%****$     "
};
