/* XPM */
static char *P_R[] = {
/* columns rows colors chars-per-pixel */
"32 32 181 2 ",
"   c #353737",
".  c #4C3327",
"X  c #5D3627",
"o  c #543729",
"O  c #5C3C2C",
"+  c #433338",
"@  c #643B27",
"#  c #6A3C27",
"$  c #653D29",
"%  c #6D3E29",
"&  c #703F28",
"*  c #632F35",
"=  c #6D2F30",
"-  c #5F4433",
";  c #65412E",
":  c #6E412A",
">  c #744027",
",  c #734129",
"<  c #7C4429",
"1  c #674633",
"2  c #694A37",
"3  c #634D3B",
"4  c #744B36",
"5  c #6E533F",
"6  c #243643",
"7  c #263A49",
"8  c #2A3D4B",
"9  c #313C44",
"0  c #4A3B41",
"q  c #284254",
"w  c #344F62",
"e  c #355267",
"r  c #3B5264",
"t  c #305C7D",
"y  c #454644",
"u  c #585247",
"i  c #604A4C",
"p  c #655B4F",
"a  c #765A4E",
"s  c #785F49",
"d  c #755F53",
"f  c #57615A",
"g  c #5D6159",
"h  c #76624E",
"j  c #6B665A",
"k  c #756356",
"l  c #776859",
"z  c #7C6D5C",
"x  c #77705B",
"c  c #4E6873",
"v  c #566C78",
"b  c #656E65",
"n  c #7B6A60",
"m  c #7A796D",
"M  c #6A7577",
"N  c #667779",
"B  c #6D7978",
"V  c #98272E",
"C  c #84373D",
"Z  c #82452C",
"A  c #8E4532",
"S  c #944635",
"D  c #9A4539",
"F  c #90593D",
"G  c #A6473E",
"H  c #8A3540",
"J  c #9C3B47",
"K  c #AA3C49",
"L  c #B93A49",
"P  c #8C4143",
"I  c #8B4E50",
"U  c #9C4352",
"Y  c #A64548",
"T  c #B54A45",
"R  c #A94553",
"E  c #BA4857",
"W  c #8C6C5A",
"Q  c #95625D",
"!  c #886E61",
"~  c #906C62",
"^  c #887968",
"/  c #987662",
"(  c #937D6D",
")  c #8A7F73",
"_  c #A07C6A",
"`  c #A37A71",
"'  c #C14B4B",
"]  c #D74357",
"[  c #7D816E",
"{  c #7B8576",
"}  c #8A866F",
"|  c #858277",
" . c #878378",
".. c #86907D",
"X. c #93947A",
"o. c #9B917E",
"O. c #A78975",
"+. c #BA937D",
"@. c #396583",
"#. c #3A6A8C",
"$. c #3B7096",
"%. c #3C749D",
"&. c #3D77A0",
"*. c #3F7AA4",
"=. c #4C768F",
"-. c #778888",
";. c #4A81A8",
":. c #6494B5",
">. c #709CBB",
",. c #878E8B",
"<. c #949484",
"1. c #959588",
"2. c #9A9C94",
"3. c #AE9A88",
"4. c #B79782",
"5. c #B99983",
"6. c #9FA48D",
"7. c #98A295",
"8. c #A6A687",
"9. c #A6A995",
"0. c #AEB796",
"q. c #B2B397",
"w. c #B3B699",
"e. c #B4BD9E",
"r. c #B8BB9A",
"t. c #849CA5",
"y. c #85A2AF",
"u. c #82A8BE",
"i. c #94AEBD",
"p. c #A3A5A2",
"a. c #A3B0B6",
"s. c #B6BAB1",
"d. c #D3A082",
"f. c #D2AC93",
"g. c #DBB49A",
"h. c #E2B59B",
"j. c #F0B89C",
"k. c #BCC5A3",
"l. c #BBC4AC",
"z. c #B9C1B1",
"x. c #C1C49A",
"c. c #C0C6A7",
"v. c #CBCEA2",
"b. c #C6D0AC",
"n. c #CBD3AA",
"m. c #D0D6A9",
"M. c #D2D9AE",
"N. c #C5CAB4",
"B. c #CFDCB5",
"V. c #D6DFB3",
"C. c #D2DDB8",
"Z. c #EEC2A5",
"A. c #F5C6A9",
"S. c #F8C6A8",
"D. c #FFD3B3",
"F. c #D6E1B6",
"G. c #D9E3B6",
"H. c #D6E3BB",
"J. c #DAE6BC",
"K. c #DEEABE",
"L. c #9BBACD",
"P. c #A4BDCB",
"I. c #ACC2D0",
"U. c #B5CCDB",
"Y. c #CED2C8",
"T. c #D2DAC1",
"R. c #DADDD1",
"E. c #DEECC1",
"W. c #DBE3C8",
"Q. c #E1EFC2",
"!. c #E2F0C4",
"~. c #E6F2CC",
"^. c #E5EADA",
"/. c #E6F0D0",
"(. c #EAF4D4",
"). c #EDF6DA",
"_. c #DDE8ED",
"`. c #EDF3EF",
"'. c #F2F6EA",
"]. c #F5FAEB",
"[. c #EBF1F1",
/* pixels */
"Q.Q.Q.Q.Q.Q.Q.Q.Q.Q.Q.Q.Q.Q.Q.Q.Q.Q.Q.Q.Q.Q.Q.Q.Q.Q.Q.Q.Q.Q.Q.Q.",
"Q.Q.Q.Q.Q.Q.Q.Q.Q.Q.Q.Q.Q.Q.Q.Q.Q.Q.Q.Q.Q.Q.Q.Q.Q.Q.Q.Q.Q.Q.Q.Q.",
"Q.Q.Q.Q.Q.Q.Q.Q.Q.Q.Q.Q.Q.Q.Q.Q.Q.Q.Q.Q.Q.Q.Q.Q.Q.Q.Q.Q.Q.Q.Q.Q.",
"Q.Q.Q.Q.Q.Q.Q.!.Q.!.Q.Q.Q.Q.Q.Q.Q.Q.Q.Q.Q.Q.Q.Q.Q.Q.Q.Q.Q.Q.Q.Q.",
"!.Q.Q.Q.Q.Q.Q.Q.Q.!.!.Q.Q.Q.Q.Q.Q.Q.!.Q.Q.Q.Q.Q.!.K.K.Q.Q.Q.Q.Q.",
"E.Q.Q.Q.Q.Q.Q.!.F.w.c.~.(.(.(.(.~.(.(.).(.).).'.).(.(.~.~.~.!.Q.",
"!.!.Q.Q.Q.!.J.e.[ - i 2.Y.'.].].].].].].N.p.p.p.9.s.^.'.).(.~.!.",
"!.K.Q.!.K.e.} 5 O # $ $ k 1.R.].].].Y.,.v e 8 8 w =.,.z.).(.(.!.",
"!.Q.Q.K.0.h : < < < < D D $ ) R.'.Y.-.@.$.$.t t =.I.a.-.z./.(.!.",
"Q.Q.!.b.h , < < < < Z G T < ; 1.^.-.#.*.*.*.&.%.;.U.[.i.N T.).!.",
"Q.Q.!.k.3 < < < Z < Z G T < @ | R.M #.*.*.*.*.*.*.>.[.P.c N.(.!.",
"Q.Q.!.k.3 < < < < < A T S < $  .^.M #.*.*.*.*.*.*.:._._.B ,.W.~.",
"Q.Q.!.k.3 < < < < < D ' Z < $  .W.M #.*.*.*.*.*.*.;.L.`.y.=.7.J.",
"Q.Q.!.k.3 < < < < < Z G < > 1 2.N.j w @.&.&.&.*.&.&.u._.t.c -.C.",
"Q.Q.!.k.3 < < , : $ O O o . j C.<.- O 0 w w r r r r v 1.7.7.l.Q.",
"Q.Q.!.k.3 < < $ s W O.+.k k j N.2.2 , % $ 4 / / 5.( p l 9./.(.!.",
"Q.Q.K.q.2 < < # d f.S.S.4.+.k <.B.<.l < < F d.S.D.g.O._ z C.(.!.",
"Q.b.8.h < < < , $ ! h.j.Z.h.O.e.Q.K.b.^ O X W Z.S.A.Z.+.O.W.~.!.",
"b.x 1 < < < < # = R Q W ~ ) e.E.!.!.!.6.9 7 y k n n ^ 9.C.!.!.E.",
"0.; : < < < < # H ] L K K ^ B.Q.!.!.!.e.r q 8   7 6 b B.!.!.!.!.",
"k.h . : Z < < , X = V V P r.Q.Q.Q.Q.Q.J.{ 7 u a q q { K.Q.!.E.!.",
"K.k.p : < < < , * * J C E 3.J.Q.Q.Q.Q.E.X.q j ^ 9 q ..K.Q.Q.E.!.",
"Q.Q.k.h : : & 1 I H L K Y ` V.!.Q.Q.Q.Q.k.f j ^   b l.!.E.!.!.!.",
"Q.!.!.k.^ x z <.<.i R U u 0.K.Q.Q.Q.Q.!.J.{ j b f e.Q.!.!.!.E.!.",
"Q.Q.Q.K.J.H.H.J.0.g + q m v.Q.Q.!.K.K.K.H...g f [ n.!.!.K.K.!.!.",
"Q.Q.Q.Q.!.!.J.m.x.x   3 o.m.K.Q.!.!.!.G.v.8.3   } v.M.K.!.!.!.K.",
"Q.Q.Q.Q.Q.!.K.G.J.k.0.k.G.G.K.!.K.!.K.K.G.M.e.e.n.G.G.K.!.K.!.K.",
"Q.Q.Q.Q.Q.Q.!.K.!.K.!.!.!.!.!.!.K.!.!.!.K.K.!.!.!.!.!.Q.!.!.!.!.",
"Q.Q.Q.Q.Q.Q.Q.Q.!.!.!.!.!.K.K.!.!.K.!.!.K.!.!.!.K.!.!.!.K.K.!.!.",
"Q.Q.Q.Q.Q.Q.Q.Q.K.!.K.!.!.!.!.!.!.!.!.K.!.!.K.!.!.!.K.!.!.!.!.K.",
"Q.Q.Q.Q.Q.Q.Q.Q.K.!.!.!.K.!.!.K.!.!.!.K.!.K.!.!.!.K.!.K.!.K.!.!.",
"Q.Q.Q.Q.Q.Q.Q.Q.!.!.K.K.!.!.!.!.K.K.!.!.!.!.K.K.!.!.!.K.!.!.!.K."
};
