/* XPM */
static char *P_R[] = {
/* columns rows colors chars-per-pixel */
"19 32 129 2 ",
"   c #010301",
".  c #0E0500",
"X  c #060904",
"o  c #0A0B06",
"O  c #0A0C09",
"+  c #170D04",
"@  c #0E130C",
"#  c #10130E",
"$  c #0F1312",
"%  c #131612",
"&  c #151915",
"*  c #1A1D16",
"=  c #1B1C19",
"-  c #22140B",
";  c #1E221B",
":  c #21231E",
">  c #32241B",
",  c #1E2221",
"<  c #222621",
"1  c #252A24",
"2  c #2A2B27",
"3  c #2C2E2D",
"4  c #322D27",
"5  c #3D2D24",
"6  c #2C312B",
"7  c #3E352C",
"8  c #35382F",
"9  c #323730",
"0  c #343B34",
"q  c #3C3D37",
"w  c #3C3F3A",
"e  c #43362C",
"r  c #493C33",
"t  c #3D423D",
"y  c #42443F",
"u  c #50433A",
"i  c #434540",
"p  c #444943",
"a  c #4A4C46",
"s  c #4B4C48",
"d  c #594F45",
"f  c #4C524B",
"g  c #575046",
"h  c #52544C",
"j  c #5B554C",
"k  c #58584E",
"l  c #515750",
"z  c #565953",
"x  c #5C5D55",
"c  c #545D58",
"v  c #5D5E5A",
"b  c #675E55",
"n  c #5F625B",
"m  c #666057",
"M  c #6A6057",
"N  c #64655E",
"B  c #6B645C",
"V  c #73665D",
"C  c #646562",
"Z  c #656963",
"A  c #696B64",
"S  c #6C6C69",
"D  c #6D726B",
"F  c #72746D",
"G  c #7C736A",
"H  c #737671",
"J  c #757A73",
"K  c #7A7C75",
"L  c #7C7E79",
"P  c #827D74",
"I  c #807F7A",
"U  c #7D817A",
"Y  c #82847D",
"T  c #8C837A",
"R  c #85887F",
"E  c #828780",
"W  c #858A83",
"Q  c #8A8B84",
"!  c #8B8E88",
"~  c #908F8C",
"^  c #8E918B",
"/  c #93938D",
"(  c #989189",
")  c #939691",
"_  c #989792",
"`  c #949992",
"'  c #9A9A93",
"]  c #9B9C99",
"[  c #9CA19A",
"{  c #A1A49D",
"}  c #B0A69D",
"|  c #A5A6A1",
" . c #A6A9A3",
".. c #AAABA4",
"X. c #B1AEA5",
"o. c #ADB2AB",
"O. c #B3B5AD",
"+. c #B4B5B1",
"@. c #B6BBB3",
"#. c #BBBAB6",
"$. c #BBBEB8",
"%. c #BEC2BB",
"&. c #C4C0B7",
"*. c #C2C4BD",
"=. c #C7CCC5",
"-. c #CBCEC7",
";. c #CCCEC8",
":. c #D1CAC2",
">. c #D1CFC9",
",. c #CED3CC",
"<. c #D3D4CD",
"1. c #D2D7D0",
"2. c #D6D9D2",
"3. c #DBDCD5",
"4. c #DEDED9",
"5. c #E2DBD3",
"6. c #DEE2DB",
"7. c #E3E4DE",
"8. c #E5EAE4",
"9. c #EAEDE6",
"0. c #ECEEE8",
"q. c #F0EEE2",
"w. c #EFF4EE",
"e. c #FAF2E7",
"r. c #F2F3EC",
"t. c #F5F6F0",
"y. c #F8F7F3",
"u. c #FBFBF5",
"i. c #FDFFFA",
/* pixels */
"O X X     o < h A F D h ; * X @   X % ",
"O O     % A K L R U U J U N 6         ",
"      + Z Q { +.*.6.6.1.2.%.U ;   %   ",
"o O # C Y +.i.i.t.7.0.8.w.u.=.D 6   o ",
"  $ S ] ;.i.i. .y @ < @ ; ..i.1.Z 1 X ",
"& S ! +.i.| v     ; % & X O o.i.=.H ; ",
"A E ~ 0.$.O L i O 1 J t 1 @   [ 0.H l ",
"S L _ t.v   h ) p X n E 6 ; @   ` ,.U ",
"U Y  .-.X a f x E 6   Z ) p t ; D u.^ ",
"K U { -.& D W p t U 6   Z E a ; U i.` ",
"Y ^ ] ;.@   D ^ 9 l ^ 6 X Z E 0 H 9.) ",
"x H { <.&   O D K 9 l W 9   Z J ^ i.^ ",
"  f  .1.; X # X D E 0 l ! t X t / 8.N ",
"@ a E O.o.;   X X D n 9 l E &   { )   ",
"X ; U Y %.@.;   O @ 0 t 0 ; X ) i.H   ",
"o   0 A D %.%.;   X     X   ) w.] X   ",
"      ; Z J ..{ N H N m b J *.H % X   ",
"X t / W F B m Y O.X.} ' Q I s S %     ",
"w 8.9.U N @.} h m m x N C H Q I 2   O ",
"c i.2.N ! 2.O.R / ` Q ~ _ I | _ s   O ",
"f 8.[ c @.7.R H *.3.3.4.5.! ~ +.C     ",
"f i.U H 6.7.R F 2.u.y.y.y.E _ #.S X   ",
"l w.E U 3.2.Y G 1.y.y.r.i.E S ] v O   ",
"k q.Q l R Y N A #.u.q.u.7.Q z N s     ",
"g e.T g M m g k x x b x b n N Q S     ",
"5 V u u G T G k K L H L W Z a z 3   O ",
"5 e r u j M B U >.5.2.O.{ R 8 *     $ ",
"- > e M } *.&.>.8.r.5.Q x U 8 ;       ",
". + e ( 5.e.u.u.i.y.i.+.S W q = X     ",
".   4 ' <.' ..{ { ] { L v C r #       ",
"o . ; z S : 4 t = $ = & < 2 ,       O ",
"X     ; < $ , 3 & $ % = = =           "
};
