/* XPM */
static char *P_U[] = {
/* columns rows colors chars-per-pixel */
"21 32 201 2 ",
"   c #020300",
".  c #0A0600",
"X  c #020B01",
"o  c #0B0C02",
"O  c #050D0A",
"+  c #090F0B",
"@  c #120600",
"#  c #120C04",
"$  c #1A0A02",
"%  c #041304",
"&  c #0A1304",
"*  c #07100D",
"=  c #09140B",
"-  c #051A09",
";  c #12120A",
":  c #131F0F",
">  c #191409",
",  c #0B1411",
"<  c #0A1E12",
"1  c #131D14",
"2  c #191D12",
"3  c #141413",
"4  c #2C0B01",
"5  c #360D07",
"6  c #24150B",
"7  c #2C170A",
"8  c #2C1B0B",
"9  c #37150B",
"0  c #201D14",
"q  c #341C12",
"w  c #182719",
"e  c #202217",
"r  c #25261B",
"t  c #232D1D",
"y  c #2E291A",
"u  c #352B1E",
"i  c #392719",
"p  c #25311D",
"a  c #3A321F",
"s  c #2C2E25",
"d  c #272929",
"f  c #3F2F20",
"g  c #263323",
"h  c #293728",
"j  c #2C3928",
"k  c #343326",
"l  c #333D2B",
"z  c #323730",
"x  c #3E3F37",
"c  c #333A32",
"v  c #441B15",
"b  c #46271A",
"n  c #54231E",
"m  c #542C20",
"M  c #42342B",
"N  c #403B28",
"B  c #443522",
"V  c #543B2F",
"C  c #5B352C",
"Z  c #443D34",
"A  c #2F4832",
"S  c #2D4633",
"D  c #354330",
"F  c #3C4433",
"G  c #3C4A37",
"H  c #3F433C",
"J  c #39503C",
"K  c #404833",
"L  c #434C3B",
"P  c #4A463A",
"I  c #5B4435",
"U  c #544A3C",
"Y  c #6C4A3E",
"T  c #464A40",
"R  c #4E4F49",
"E  c #474B47",
"W  c #564F47",
"Q  c #4A5643",
"!  c #4C534C",
"~  c #4D5A49",
"^  c #53564F",
"/  c #5B584F",
"(  c #545948",
")  c #4D5150",
"_  c #545B53",
"`  c #5B5D54",
"'  c #555E5A",
"]  c #515755",
"[  c #6F4F42",
"{  c #764B45",
"}  c #605E52",
"|  c #4E644F",
" . c #56634F",
".. c #566253",
"X. c #5C6455",
"o. c #5B6956",
"O. c #5E635C",
"+. c #5B6959",
"@. c #636A57",
"#. c #62655C",
"$. c #646D5D",
"%. c #676459",
"&. c #74635B",
"*. c #65745F",
"=. c #5A6B61",
"-. c #636B63",
";. c #6B6D63",
":. c #676F6C",
">. c #786C60",
",. c #677367",
"<. c #6B7264",
"1. c #6D7468",
"2. c #6F7A6A",
"3. c #717467",
"4. c #727269",
"5. c #79796F",
"6. c #7C7469",
"7. c #7A7D72",
"8. c #747C7A",
"9. c #7B8172",
"0. c #7D897A",
"q. c #83857C",
"w. c #888A7D",
"e. c #838B82",
"r. c #8A8E87",
"t. c #868B8A",
"y. c #8B8D89",
"u. c #808682",
"i. c #9C8A80",
"p. c #899383",
"a. c #8B938E",
"s. c #86988C",
"d. c #92958C",
"f. c #96988D",
"g. c #8F9490",
"h. c #959A93",
"j. c #9A9D96",
"k. c #959B99",
"l. c #909694",
"z. c #A29B8B",
"x. c #9CA29C",
"c. c #98A297",
"v. c #A2A69D",
"b. c #A3A99C",
"n. c #BEAB9D",
"m. c #9CA2A0",
"M. c #9DB3A7",
"N. c #A2A7A0",
"B. c #A1A9A4",
"V. c #AAACA3",
"C. c #A4ADA8",
"Z. c #B0ACA3",
"A. c #AAB1A5",
"S. c #ADB3A9",
"D. c #B2B6AD",
"F. c #B2BAAF",
"G. c #AAB7B2",
"H. c #B4BAB3",
"J. c #BBBEB6",
"K. c #B7BDB9",
"L. c #CAAFA8",
"P. c #CEADA6",
"I. c #CCB5AB",
"U. c #D3BBAF",
"Y. c #BFC5B7",
"T. c #BCC2BA",
"R. c #BEC8BF",
"E. c #C6CFBE",
"W. c #C9CCBF",
"Q. c #C3C4B9",
"!. c #BCC2C0",
"~. c #C4CBC4",
"^. c #C5CBC7",
"/. c #D2CCC0",
"(. c #CDD3CB",
"). c #CED4D2",
"_. c #D1D9D4",
"`. c #D9DDD6",
"'. c #DADFDA",
"]. c #D2D7D1",
"[. c #DAE2DB",
"{. c #DEE8DF",
"}. c #E2E7DE",
"|. c #DEE5E2",
" X c #DEE9E1",
".X c #E2E6E2",
"XX c #E3ECE5",
"oX c #E3EDEA",
"OX c #E9E8E6",
"+X c #EDF3E3",
"@X c #E5F1EC",
"#X c #EAF4EC",
"$X c #EEF8EF",
"%X c #F3F3EB",
"&X c #EBF6F1",
"*X c #EEF9F3",
"=X c #F1F7F5",
"-X c #F3FBF5",
";X c #FAFDF7",
":X c #F5FEFA",
">X c #FAFFFB",
/* pixels */
"    X X   O   z _ ` ` ` ` ^ s   O O O * , ",
"X X     X s L r.a.r.e.r.j.f.4.Z O   O O * ",
"  X     c q.x.K.F.J.K.H.H.J.D.x.' O   , , ",
"%   X T u.H.(.|._._._.).).`.'.].u.' O   O ",
"  & Q c.H.T._.$X:X:X=X=X:X>X>X&XB.8.=.O   ",
"% G h.T.T.(.XX@X:X:X:X:X*X*X:X:X_.m.8.:.3 ",
"L 7.A.T.R.[.@X@X:X&X&X&X@X&X=X&X|.).k.t.E ",
"#.h.Y.R.[.$X{.[.=X@X&X@XoXoX@X@X|._.!.k.] ",
"<.d.b.Y.XXXX#X@X@X@X@X@X@X@X@X@XoX|.K.k.=.",
"<.h.S.^.+X#X#X#X#X$X&X&X&X&X&X&X'.'.G.t.:.",
"3.f.F.^.$X$X-X:X-X:X*X-X:X*X-X-X=X&X!.k.8.",
"5.b.Y.(.-X:X;X>X:X:X>X:X>X:X>X>X=X|.!.m.:.",
"3.c.J.(.-X;X;X>X>X:X;X:X;X;X;X;XOX).!.m.E ",
"3.f.D.Q.`.[.[..X'.[.'.[.[.[.`.[.'.^.!.l.d ",
"%.7.f.d.j.x.v.B.j.j.j.j.j.j.c.j.l.l.t.) , ",
"r H ` ` } #.;.;.O.-.O.O.O.O.%.O.) ' ) O   ",
"o ; W &.;.$.1.<.d.q.7.:.*.2.9.9.:.:.w X X ",
"&   w } %.$.$.2.5.4.>.$.X.X.@.$.' h X & X ",
"% X t L L ..<.*.4.3.o...o.@.@.X.D t   % % ",
"- X G K p D G Q X.%.X.o.o.Q G F j ~ & X X ",
"X g $.;.Q ..F t & & ; w < < j Q ..*.D % X ",
"1 1.A.V.0.j J $.P R R ^ ~ =.+.h <.p.q.: X ",
"3 j.-X(.0.% a.=X.XOX.X}. X@XM.w +.E.Y.t o ",
"d y.%X}.r.1 j.>X>X;X=X>X:X:XG.<  .+XE.F X ",
"] C.[.{.w.X q.}.;X-XXX.X#X#Xc.  o.#XW.^ 2 ",
"=.a.c.p.2.w.W.%XQ.X.$.` V.;XZ.q.` b.I.1.2 ",
"S J D k I n.U.U.z.u   u i.L.P.I.Z u / P o ",
"D | o.( I Y Y I i a P f C { { { M P %.P # ",
"X t D N i b n b i B I I C n n v M Z k #   ",
"      . $ 9 9 4 7 7 8 9 4 5 9 q $   .   . ",
"    X X o @ 8 i u r $ 6 q i 6 @ > @ # . . ",
".     X & o W &.6.W 6 M &.&.r o # # # . ; "
};
