/* XPM */
static char *P_U[] = {
/* columns rows colors chars-per-pixel */
"21 32 194 2 ",
"   c #010301",
".  c #0C0501",
"X  c #030A02",
"o  c #090B03",
"O  c #060B0A",
"+  c #080D09",
"@  c #110500",
"#  c #120C06",
"$  c #1B0B03",
"%  c #130F09",
"&  c #051407",
"*  c #071108",
"=  c #0A110C",
"-  c #0C1C12",
";  c #131615",
":  c #141B13",
">  c #1C1D15",
",  c #1C1818",
"<  c #310C04",
"1  c #3A0F09",
"2  c #211209",
"3  c #2A160E",
"4  c #32190D",
"5  c #3A150C",
"6  c #211C18",
"7  c #381F1A",
"8  c #381C12",
"9  c #1A251A",
"0  c #212119",
"q  c #2F2118",
"w  c #252C1E",
"e  c #242215",
"r  c #3B261D",
"t  c #36281D",
"y  c #242720",
"u  c #262D22",
"i  c #292A25",
"p  c #272928",
"a  c #2A252B",
"s  c #352F27",
"d  c #253224",
"f  c #2D372A",
"g  c #363129",
"h  c #373828",
"j  c #383224",
"k  c #353D33",
"l  c #373A33",
"z  c #461B15",
"x  c #452A1E",
"c  c #4D281F",
"v  c #4D271C",
"b  c #55241F",
"n  c #5B2A24",
"m  c #48352F",
"M  c #443B2B",
"N  c #473528",
"B  c #5E352F",
"V  c #483730",
"C  c #463F37",
"Z  c #593831",
"A  c #553D31",
"S  c #3B4434",
"D  c #3F403B",
"F  c #3D4838",
"G  c #344735",
"H  c #42433E",
"J  c #4D4038",
"K  c #434A3C",
"L  c #51473E",
"P  c #5B4A3C",
"I  c #554939",
"U  c #6F4B3F",
"Y  c #624538",
"T  c #4A4740",
"R  c #424A44",
"E  c #4A4C42",
"W  c #414342",
"Q  c #544C45",
"!  c #4B5344",
"~  c #4A5548",
"^  c #52524C",
"/  c #525B4C",
"(  c #4F5352",
")  c #535553",
"_  c #5C5B55",
"`  c #585C58",
"'  c #7A4B47",
"]  c #744D47",
"[  c #605A4A",
"{  c #6C5F57",
"}  c #635E58",
"|  c #5A6556",
" . c #566258",
".. c #5D635B",
"X. c #5F6A5C",
"o. c #546753",
"O. c #636357",
"+. c #63645D",
"@. c #646A5E",
"#. c #696D5E",
"$. c #75625C",
"%. c #5D6160",
"&. c #5E6D66",
"*. c #616662",
"=. c #6E6762",
"-. c #666A63",
";. c #6A6C64",
":. c #666A69",
">. c #6D6F6B",
",. c #786A61",
"<. c #746E6A",
"1. c #667263",
"2. c #6A7566",
"3. c #6E736B",
"4. c #7A7067",
"5. c #73736B",
"6. c #747A6D",
"7. c #747877",
"8. c #7B7C74",
"9. c #7B7F7E",
"0. c #797572",
"q. c #867F79",
"w. c #82817C",
"e. c #90897F",
"r. c #838781",
"t. c #848B82",
"y. c #878B8A",
"u. c #8B8E8B",
"i. c #8B8A86",
"p. c #9E8A83",
"a. c #8A9289",
"s. c #93938D",
"d. c #93988D",
"f. c #918C90",
"g. c #8A9A90",
"h. c #929594",
"j. c #959A95",
"k. c #9A9B95",
"l. c #9B9D9B",
"z. c #959998",
"x. c #AB9F93",
"c. c #97A29A",
"v. c #9EA09B",
"b. c #A2A39B",
"n. c #99ADA4",
"m. c #A4A6A1",
"M. c #AAAEAB",
"N. c #AAABA5",
"B. c #B1AAA4",
"V. c #ADB0A9",
"C. c #B1B2AC",
"Z. c #A4B7B1",
"A. c #B3B7B0",
"S. c #B5B9B4",
"D. c #BABBB6",
"F. c #B7BCB8",
"G. c #BBBDBB",
"H. c #C0A89E",
"J. c #CCAEAA",
"K. c #D0AAA7",
"L. c #D3BAAE",
"P. c #BDC2BB",
"I. c #C4C4BD",
"U. c #BDC1C0",
"Y. c #C2C5C3",
"T. c #CBCDC4",
"R. c #C7CCC6",
"E. c #D4CBC2",
"W. c #CED2CB",
"Q. c #CCD2C6",
"!. c #D0D3CE",
"~. c #CFD3D2",
"^. c #D1D5D2",
"/. c #DBDEDA",
"(. c #D6DAD6",
"). c #DDE2DD",
"_. c #DEE3E3",
"`. c #E2E5E4",
"'. c #E6E8E5",
"]. c #E8EBE5",
"[. c #EBE7E8",
"{. c #E4EEEA",
"}. c #E9EEEC",
"|. c #EDF2EE",
" X c #F3F5EA",
".X c #FAF3E9",
"XX c #ECF5F3",
"oX c #EFF8F6",
"OX c #F2F6F4",
"+X c #F4F9F5",
"@X c #F8FDF7",
"#X c #F7F7F9",
"$X c #F5FCFA",
"%X c #FAFEFC",
/* pixels */
"    o     o   l _ +.+.+.+._ g     O O O O ",
"o       X i l y.h.s.u.u.k.j.<.l O   O O O ",
"      o l r.n.D.S.G.G.F.D.D.C.x.%.O   O O ",
"o   o E r.S.R./.^.^.^.~.!.(./.!.y.%.O   O ",
"  o ~ m.S.G.(.XX%XoX$XoX%X%X%X}.M.9.:.O   ",
"o R k.P.G.~.].|.$X%X%X%XOXoX$X#X_.M.9.>.; ",
"! 8.V.A.I.).XXXX%XoXXXXXXXoX$X$X{.~.z.y.R ",
"@.k.P.P.).OX{.{.oXoXoXXXXXXXXXXX}./.Y.h.( ",
";.d.C.Y.}.].oXoX|.XXXXXXXXXXXXXXXX_.U.z.%.",
"3.k.A.!. X|.OXoXoXoXoXoXoXoXoXoX`._.S.f.%.",
";.x.A.Q.OX+X@X%X$X$X@XoX%X$X$X@X$XXXU.z.7.",
"5.b.D.!.@X@X%X%X%X%X%X%X%X%X%X%X#X_.U.l.:.",
";.k.L.~.oX@X@X%X%X$X%X@X@X%X@X@XXX~.U.l.W ",
"<.d.D.I.(.).).`./.)./././././././.Y.U.f.a ",
"+.w.k.k.v.v.b.m.c.l.b.l.l.b.l.l.l.h.u.) ; ",
"i H +.+.+.-.3.>.-.-.-.-.-.-.;.;.` *.) = O ",
"+ % Q ,.;.#.3.2.i.8.0.>.-.6.8.6.3.1.: X X ",
"+   6 } ;.1.-.6.0.<.<.-.X.X.@.#...d X & X ",
"X X w ! E | 2.2.5.<.@.| X.1.@.O.F d   X X ",
"& X K K f S F ~ O.+.@.@.X./ K S G / &   X ",
"X u ;.6./ | F w 9 6 6 w 9 9 k / X.2.S o X ",
"; 3.C.C.t.f R @.^ ) _ )  .&. .d 6.d.w.: X ",
"; x.@X!.t.& u.OX[.[.`./._.{.n.- 1.Q.P.w o ",
"a f.+X'.y.: k.%X%X#X#X#X$X$XZ.- ..|.T.S X ",
"%.M.).).e.o w.].+X X`.`.|.XXl.  ;. XE.^ > ",
"&.g.c.a.2.e.E..XI._ ;._ B.@XB.q.O.N.I.5.6 ",
"G R G h Y H.I.L.x.j   j p.J.K.J.C j _ K . ",
"G  .X._ Y U U Y N N I N Z ' ' ] m Q ;.L % ",
"X w S M x v n v x V P Y B b n z N C g %   ",
"      . $ 5 5 < 4 4 q 5 < 1 z 8 $   . . . ",
"    X o . @ 3 t s 4 $ 3 7 x 2 . $ . #     ",
"  .   o o . Q $.,.L 2 m $.{ e o . @ @ . o "
};
