/* XPM */
static char *P_U[] = {
/* columns rows colors chars-per-pixel */
"21 32 139 2 ",
"   c #020101",
".  c #0B0201",
"X  c #0C0A02",
"o  c #0B0B0B",
"O  c #130100",
"+  c #1B0200",
"@  c #120800",
"#  c #130A0A",
"$  c #141006",
"%  c #16130A",
"&  c #1E140E",
"*  c #131313",
"=  c #171916",
"-  c #1C1B15",
";  c #171918",
":  c #1B1B1A",
">  c #220000",
",  c #200D09",
"<  c #2F0B0B",
"1  c #25120D",
"2  c #2E100E",
"3  c #2D1212",
"4  c #231C16",
"5  c #291C16",
"6  c #231D1D",
"7  c #2C1D18",
"8  c #331413",
"9  c #331C1A",
"0  c #3B1C1C",
"q  c #1E201D",
"w  c #2B261E",
"e  c #35201B",
"r  c #3A211D",
"t  c #232322",
"y  c #2F2627",
"u  c #2F2F27",
"i  c #27282A",
"p  c #2D2D2C",
"a  c #3A2524",
"s  c #352820",
"d  c #352E28",
"f  c #3E2D2B",
"g  c #35322A",
"h  c #3A362D",
"j  c #343534",
"k  c #363837",
"l  c #3C3C3C",
"z  c #442D2C",
"x  c #512F2E",
"c  c #443331",
"v  c #4E3535",
"b  c #423F38",
"n  c #4A3C39",
"m  c #523432",
"M  c #53393A",
"N  c #42423D",
"B  c #54433C",
"V  c #3D4140",
"C  c #444444",
"Z  c #4A4745",
"A  c #4C4A42",
"S  c #454648",
"D  c #474C4C",
"F  c #4B4C4C",
"G  c #504742",
"H  c #5C4242",
"J  c #544A45",
"K  c #5B4E4C",
"L  c #52524F",
"P  c #4B5151",
"I  c #525453",
"U  c #545857",
"Y  c #5D5954",
"T  c #545B5A",
"R  c #5A5B5B",
"E  c #624E4F",
"W  c #6C4A49",
"Q  c #66514C",
"!  c #635F5E",
"~  c #6C5E5D",
"^  c #69615E",
"/  c #5B5F60",
"(  c #656563",
")  c #696460",
"_  c #686964",
"`  c #656869",
"'  c #6D6D6D",
"]  c #706262",
"[  c #706F6B",
"{  c #73726E",
"}  c #6D6E70",
"|  c #757575",
" . c #7B7572",
".. c #7C7C7C",
"X. c #826D6C",
"o. c #837373",
"O. c #83827D",
"+. c #858585",
"@. c #8F8882",
"#. c #8C8C8C",
"$. c #918483",
"%. c #939393",
"&. c #9D9D9D",
"*. c #A39191",
"=. c #A29A97",
"-. c #A89D9B",
";. c #B49E9E",
":. c #A3A3A3",
">. c #A8A8A6",
",. c #AAAAAA",
"<. c #B6A3A3",
"1. c #B6ADA8",
"2. c #B8ADA9",
"3. c #B4B0AD",
"4. c #B4B4B4",
"5. c #B8B4B1",
"6. c #BBB8B3",
"7. c #BCBCBC",
"8. c #C4BFBC",
"9. c #CABFBD",
"0. c #C5C1BE",
"q. c gray77",
"w. c #CBC6C3",
"e. c #CDCAC6",
"r. c #CACACA",
"t. c #D1C3C2",
"y. c #D6CCCB",
"u. c #D5D0CD",
"i. c #DBD1CF",
"p. c #D4D4D4",
"a. c #DDD3D1",
"s. c #DBDBDB",
"d. c #E2CECF",
"f. c #E7D7D7",
"g. c #E3DBD9",
"h. c #EEE0DF",
"j. c #E2E2E1",
"k. c #EEE5E3",
"l. c #F4F3EF",
/* pixels */
"  o * o     o * P I F F S l :       o *   ",
"*         : V U | | | | ..} I k :     o   ",
"*     o p I O.:.&.&.&.&.:.&.#...V :       ",
"    o l } +.:.q.7.7.7.4.7.q.4.,.| l * o   ",
"  o V ..&.,.4.u.s.s.p.p.p.s.s.r.,.' l t o ",
"* l } %.,.4.r.p.j.j.s.s.s.j.s.p.r.%.` S i ",
"j ` %.:.,.r.p.s.p.s.s.s.s.s.s.p.s.4.#.} S ",
"S ..>.,.4.p.j.p.s.j.s.s.s.j.j.s.j.7.>.+.! ",
"U o.&.4.p.j.s.s.s.s.s.s.s.s.s.s.s.p.4.O.U ",
"I ..&.4.p.s.p.p.s.s.s.s.s.s.s.s.p.r.:.} U ",
"P ..&.4.s.j.s.s.s.s.s.s.s.s.s.s.p.q.&.' R ",
"P ..:.7.s.j.p.s.s.j.s.s.j.s.s.s.p.q.:.[ I ",
"F ..&.4.p.s.u.p.s.s.s.s.s.s.s.s.q.q.:.` C ",
"L ..&.,.q.q.7.q.7.7.7.7.7.7.7.7.4.7.&.! p ",
"V ` ..$.%.%.+.#.+.+.+.+.+.+.+.+.+.+.} l = ",
": C U I U I S I I I I I I I I I S S j *   ",
"  o i } S P Z / D P T T P D D D L p *     ",
"o     D F ' P D / U P D P P T ` C 6 o     ",
"    ; V l U U F T P P / T D V C j :       ",
"  * k S j l V k D C P T U V j l j p *     ",
"o : I R F l g * w q ; = = : p l S U j     ",
"* F >.&.( p Z I C Z Z V C F l t I #.' *   ",
"= { l.u.[ = ( 5.3.0.w.0.y.8. .: F 7.&.t   ",
"q _ j.e.{ -  .u.g.k.g.y.k.k.$.# S u.7.j   ",
"N O.0.6.Y q ^ h.i.y.9.t.h.f.o.O R r.7.V   ",
"L { O.{ Y ^ =.u.-.~ z K <.d.<.] Z &.-.S * ",
"g N N h J O.1.1.$.c . 7 X.;.;.*.6 F / j   ",
"u N B h h B K N J c a z v M H E y p C k o ",
"% w h h w w 5 5 1 z H m 0 8 0 a y ; t t   ",
"      # 1 & 5 s , 9 9 3 3 0 0 3 #         ",
"- @     . . @ 1 9 + O + 2 8 > O o * o   ; ",
"  X $ X   @ r B Q r 2 m W x < +   *     : "
};
