/* XPM */
static char *P_U[] = {
/* columns rows colors chars-per-pixel */
"32 32 117 2 ",
"   c #242322",
".  c #2E2622",
"X  c #23292D",
"o  c #372923",
"O  c #242E35",
"+  c #25323C",
"@  c #2A333B",
"#  c #363230",
"$  c #3D3A31",
"%  c #452E23",
"&  c #4A3024",
"*  c #42332D",
"=  c #4C3429",
"-  c #533424",
";  c #5B3624",
":  c #5F3825",
">  c #573B2E",
",  c #5C3A2A",
"<  c #423D3F",
"1  c #553E32",
"2  c #633A26",
"3  c #6D3E27",
"4  c #643D29",
"5  c #6E3F28",
"6  c #703F28",
"7  c #5B4333",
"8  c #5F4C3D",
"9  c #66412D",
"0  c #6B422D",
"q  c #744128",
"w  c #7C4429",
"e  c #6D4731",
"r  c #6F4933",
"t  c #6E4D38",
"y  c #734831",
"u  c #293740",
"i  c #263845",
"p  c #2D3941",
"a  c #3E4147",
"s  c #384651",
"d  c #364851",
"f  c #39505C",
"g  c #334F63",
"h  c #315066",
"j  c #395363",
"k  c #2C5470",
"l  c #2F5A78",
"z  c #375970",
"x  c #4A4B43",
"c  c #584D40",
"v  c #4F5047",
"b  c #445558",
"n  c #4E5B5A",
"m  c #6A5643",
"M  c #6E5A47",
"N  c #735742",
"B  c #745C47",
"V  c #705E50",
"C  c #76604B",
"Z  c #696154",
"A  c #776652",
"S  c #756A56",
"D  c #7A6B57",
"F  c #79745E",
"G  c #416377",
"H  c #496470",
"J  c #5F797F",
"K  c #636F69",
"L  c #777465",
"P  c #7C7663",
"I  c #7C7965",
"U  c #777C6B",
"Y  c #817E69",
"T  c #8C8B73",
"R  c #878C78",
"E  c #8B8E7A",
"W  c #8E917A",
"Q  c #989376",
"!  c #93957D",
"~  c #325F80",
"^  c #3F6882",
"/  c #38698C",
"(  c #3F7396",
")  c #3D749A",
"_  c #3E77A0",
"`  c #3F7AA4",
"'  c #607C83",
"]  c #687F81",
"[  c #407BA5",
"{  c #6A8181",
"}  c #889687",
"|  c #959981",
" . c #9E9F85",
".. c #9BA086",
"X. c #9DA68B",
"o. c #A3A283",
"O. c #A3A589",
"+. c #AAAC8F",
"@. c #A9B194",
"#. c #ACB598",
"$. c #B1B596",
"%. c #B2BB9C",
"&. c #B9BF9B",
"*. c #B7C5A7",
"=. c #BAC4A4",
"-. c #BFC8A5",
";. c #C2CDAB",
":. c #C6D0AD",
">. c #CAD5B1",
",. c #CFDAB2",
"<. c #D2DCB4",
"1. c #D7E4BE",
"2. c #D9E6BE",
"3. c #DBE9BE",
"4. c #DEECC1",
"5. c #E1EFC2",
"6. c #E2F0C4",
/* pixels */
"5.5.5.5.5.5.5.5.5.5.5.3.;.} f + O i j ..:.6.6.6.6.6.5.5.5.5.5.5.",
"5.5.5.5.5.5.5.5.5.6.4.*.J ^ ) l k ~ ) ^ ] ;.6.6.6.6.5.5.5.5.5.5.",
"5.5.5.5.5.5.5.5.6.6.;.' ) [ [ ( ) ) ` ` ( ] ,.6.6.5.5.5.5.5.5.5.",
"5.5.5.5.5.5.5.5.4.6.#.G [ [ [ [ ` ` ` ` ` H =.6.6.6.5.5.5.5.5.5.",
"5.5.5.5.5.5.5.5.6.6.#.G ` ` ` [ ` ` ` ` _ G -.6.5.5.5.5.5.5.5.5.",
"5.5.5.5.5.5.5.5.6.<.U z ` ` ` ` ` ` ` ` ) j R 1.5.5.5.5.5.5.5.5.",
"5.5.5.5.5.5.5.5.1.T 1 g ) { [ ` ` ` ` ` ) s 7 ..5.5.5.5.5.5.5.5.",
"5.5.5.5.5.5.6.5.4.! e < l ~ / ` ` ` / ^ j > t O.4.5.5.5.5.5.5.5.",
"5.5.5.5.5.5.5.5.5.:.M q ; = a h h g < = 2 6 S <.5.5.5.5.5.5.5.5.",
"5.5.5.5.5.5.5.5.5.3.o.m y w 0 ; ; , 6 w r V #.4.5.5.5.5.5.5.5.5.",
"5.5.5.5.5.5.5.5.5.6.3.=.Z 2 q q 3 3 5 4 L ;.4.5.5.5.5.5.5.5.5.5.",
"5.5.5.5.5.5.5.5.5.5.5.X.d @ * - % o # p b %.6.5.5.5.5.5.5.5.5.5.",
"5.5.5.5.5.5.5.5.5.5.5.=.n + X % - . O u K :.6.5.5.5.5.5.5.5.5.5.",
"5.5.5.5.5.5.5.5.5.5.5.@.8 : 2 0 3 2 : & V -.6.6.5.5.5.5.5.5.5.5.",
"5.5.5.5.5.5.5.5.5.6.:.A q w w w w w w 6 >  .5.5.5.5.5.5.5.5.5.5.",
"5.5.5.5.5.5.5.5.5.3.T 0 w w w w w w w w 3 Y 4.5.5.5.5.5.5.5.5.5.",
"5.5.5.5.5.5.5.5.6.-.C q w w w w w w w w 6 B =.5.5.5.5.5.5.5.5.5.",
"5.5.5.5.5.5.5.6.5...9 w w w w w w w w w w e ! 5.5.5.5.5.5.5.5.5.",
"5.5.5.5.5.5.5.5.5...4 w w w w w w w w w w 4 ! 5.5.5.5.5.5.5.5.5.",
"5.5.5.5.5.5.5.5.5.X.e w w w w w w w w w w 5 | 5.5.5.5.5.5.5.5.5.",
"5.5.5.5.5.5.5.5.6.>.D 6 w w w w w w w w 6 A :.5.5.5.5.5.5.5.5.5.",
"5.5.5.5.5.5.5.5.5.4.Y 3 w w w w w w w w 6 Y 4.6.5.5.5.5.5.5.5.5.",
"5.5.5.5.5.5.5.5.5.4.Y 3 w w w w w w w w 6 P 2.6.5.5.5.5.5.5.5.5.",
"5.5.5.5.5.5.5.5.5.4.Y 3 w w w w w w w w 6 F <.5.5.5.5.5.5.5.5.5.",
"5.5.5.5.5.5.5.<.| L N w w w w w w w w w 6 N I W ,.5.5.5.5.5.5.5.",
"5.5.5.5.5.5.5.T 5 6 q w w w w w w w w w w 6 6 5 o.5.5.5.5.5.5.5.",
"5.5.5.5.5.5.5.L 4 3 w w w w w w w w w w w w 3 4 Q 5.5.5.5.5.5.5.",
"5.5.5.5.5.5.5.$.c - w w w w w w w w w w w w - c &.5.5.5.5.5.5.5.",
"5.5.5.5.5.5.5.5.@.m w w w 6 6 w w 6 w w w w m O.5.5.5.5.5.5.5.5.",
"5.5.5.5.5.5.5.5.5.$.N 4 4 & ; 2 3 ; & 2 4 N +.5.5.5.5.5.5.5.5.5.",
"5.5.5.5.5.5.5.5.5.4.%.| W v         x E | #.4.5.5.5.5.5.5.5.5.5.",
"5.5.5.5.5.5.5.5.5.5.6.6.<.S   $ $   Z ,.6.6.5.5.5.5.5.5.5.5.5.5."
};
